0
SECTION
2
HEADER
9
$INSUNITS
70
4
0
ENDSEC
0
SECTION
2
ENTITIES
0
LWPOLYLINE
8
PLATE_OUTLINE
90
4
70
1
10
0.0000
20
0.0000
10
265.0000
20
0.0000
10
265.0000
20
365.0000
10
0.0000
20
365.0000
0
LWPOLYLINE
8
PCB_OUTLINE
90
4
70
1
10
42.5000
20
30.0000
10
222.5000
20
30.0000
10
222.5000
20
145.0000
10
42.5000
20
145.0000
0
CIRCLE
8
EXISTING_M5
10
18.5000
20
20.0000
40
2.7500
0
CIRCLE
8
EXISTING_M5
10
246.5000
20
20.0000
40
2.7500
0
CIRCLE
8
EXISTING_M5
10
18.5000
20
345.0000
40
2.7500
0
CIRCLE
8
EXISTING_M5
10
246.5000
20
345.0000
40
2.7500
0
CIRCLE
8
PCB_M3_DRILL
10
46.5000
20
34.0000
40
1.7500
0
CIRCLE
8
PCB_M3_DRILL
10
218.5000
20
34.0000
40
1.7500
0
CIRCLE
8
PCB_M3_DRILL
10
46.5000
20
141.0000
40
1.7500
0
CIRCLE
8
PCB_M3_DRILL
10
218.5000
20
141.0000
40
1.7500
0
LWPOLYLINE
8
MPPT_VERIFY
90
4
70
1
10
65.5000
20
240.0000
10
199.5000
20
240.0000
10
199.5000
20
310.0000
10
65.5000
20
310.0000
0
CIRCLE
8
MPPT_VERIFY
10
69.5000
20
250.0000
40
2.2500
0
CIRCLE
8
MPPT_VERIFY
10
69.5000
20
300.0000
40
2.2500
0
CIRCLE
8
MPPT_VERIFY
10
195.5000
20
250.0000
40
2.2500
0
CIRCLE
8
MPPT_VERIFY
10
195.5000
20
300.0000
40
2.2500
0
TEXT
8
NOTES
10
22.5000
20
177.0000
40
3.0000
1
70 mm MIN HARNESS / FUSE SERVICE ZONE
0
TEXT
8
NOTES
10
65.5000
20
315.0000
40
3.0000
1
MPPT 134x70 / 126x50 HOLES - VERIFY PHYSICAL UNIT
0
TEXT
8
NOTES
10
42.5000
20
20.0000
40
3.0000
1
PCB 180x115; 4x M3.5 DRILL
0
ENDSEC
0
EOF
