0
SECTION
2
HEADER
9
$INSUNITS
70
4
0
ENDSEC
0
SECTION
2
ENTITIES
0
LWPOLYLINE
8
XLOK_CUT
90
51
70
1
10
11.0000
20
14.7885
10
11.0000
20
14.7885
10
12.4962
20
12.7991
10
14.4224
20
11.2222
10
16.6681
20
10.1482
10
19.1046
20
9.6386
10
21.5925
20
9.7226
10
23.9891
20
10.3955
10
26.1572
20
11.6186
10
27.9726
20
13.3218
10
29.3312
20
15.4077
10
30.1552
20
17.7566
10
30.3974
20
20.2341
10
30.0439
20
22.6981
10
29.1150
20
25.0076
10
27.6639
20
27.0302
10
25.7738
20
28.6501
10
23.5528
20
29.7743
10
21.1284
20
30.3386
10
18.6392
20
30.3106
10
16.2281
20
29.6919
10
14.0330
20
28.5179
10
12.1798
20
26.8559
10
10.7746
20
24.8012
10
9.8979
20
22.4714
10
9.6000
20
20.0000
10
9.8979
20
17.5286
10
10.7746
20
15.1988
10
12.1798
20
13.1441
10
14.0330
20
11.4821
10
16.2281
20
10.3081
10
18.6392
20
9.6894
10
21.1284
20
9.6614
10
23.5528
20
10.2257
10
25.7738
20
11.3499
10
27.6639
20
12.9698
10
29.1150
20
14.9924
10
30.0439
20
17.3019
10
30.3974
20
19.7659
10
30.1552
20
22.2434
10
29.3312
20
24.5923
10
27.9726
20
26.6782
10
26.1572
20
28.3814
10
23.9891
20
29.6045
10
21.5925
20
30.2774
10
19.1046
20
30.3614
10
16.6681
20
29.8518
10
14.4224
20
28.7778
10
12.4962
20
27.2009
10
11.0000
20
25.2115
10
11.0000
20
25.2115
0
CIRCLE
8
M16_CUT
10
55.0000
20
20.0000
40
8.1000
0
TEXT
8
NOTES
10
8.0000
20
37.0000
40
2.5000
1
X-LOK CC-03: 20.8 / 19.4 D-CUT
0
TEXT
8
NOTES
10
43.0000
20
37.0000
40
2.5000
1
M12 REAR M16: DIA 16.2
0
ENDSEC
0
EOF
