0
SECTION
2
HEADER
9
$INSUNITS
70
4
0
ENDSEC
0
SECTION
2
ENTITIES
0
LWPOLYLINE
8
PANEL_REFERENCE
90
4
70
1
10
0.0000
20
0.0000
10
265.0000
20
0.0000
10
265.0000
20
100.0000
10
0.0000
20
100.0000
0
LWPOLYLINE
8
XLOK_CUT
90
51
70
1
10
36.0000
20
44.7885
10
36.0000
20
44.7885
10
37.4962
20
42.7991
10
39.4224
20
41.2222
10
41.6681
20
40.1482
10
44.1046
20
39.6386
10
46.5925
20
39.7226
10
48.9891
20
40.3955
10
51.1572
20
41.6186
10
52.9726
20
43.3218
10
54.3312
20
45.4077
10
55.1552
20
47.7566
10
55.3974
20
50.2341
10
55.0439
20
52.6981
10
54.1150
20
55.0076
10
52.6639
20
57.0302
10
50.7738
20
58.6501
10
48.5528
20
59.7743
10
46.1284
20
60.3386
10
43.6392
20
60.3106
10
41.2281
20
59.6919
10
39.0330
20
58.5179
10
37.1798
20
56.8559
10
35.7746
20
54.8012
10
34.8979
20
52.4714
10
34.6000
20
50.0000
10
34.8979
20
47.5286
10
35.7746
20
45.1988
10
37.1798
20
43.1441
10
39.0330
20
41.4821
10
41.2281
20
40.3081
10
43.6392
20
39.6894
10
46.1284
20
39.6614
10
48.5528
20
40.2257
10
50.7738
20
41.3499
10
52.6639
20
42.9698
10
54.1150
20
44.9924
10
55.0439
20
47.3019
10
55.3974
20
49.7659
10
55.1552
20
52.2434
10
54.3312
20
54.5923
10
52.9726
20
56.6782
10
51.1572
20
58.3814
10
48.9891
20
59.6045
10
46.5925
20
60.2774
10
44.1046
20
60.3614
10
41.6681
20
59.8518
10
39.4224
20
58.7778
10
37.4962
20
57.2009
10
36.0000
20
55.2115
10
36.0000
20
55.2115
0
TEXT
8
LABEL
10
37.0000
20
70.0000
40
3.0000
1
OUT1
0
LWPOLYLINE
8
XLOK_CUT
90
51
70
1
10
79.0000
20
44.7885
10
79.0000
20
44.7885
10
80.4962
20
42.7991
10
82.4224
20
41.2222
10
84.6681
20
40.1482
10
87.1046
20
39.6386
10
89.5925
20
39.7226
10
91.9891
20
40.3955
10
94.1572
20
41.6186
10
95.9726
20
43.3218
10
97.3312
20
45.4077
10
98.1552
20
47.7566
10
98.3974
20
50.2341
10
98.0439
20
52.6981
10
97.1150
20
55.0076
10
95.6639
20
57.0302
10
93.7738
20
58.6501
10
91.5528
20
59.7743
10
89.1284
20
60.3386
10
86.6392
20
60.3106
10
84.2281
20
59.6919
10
82.0330
20
58.5179
10
80.1798
20
56.8559
10
78.7746
20
54.8012
10
77.8979
20
52.4714
10
77.6000
20
50.0000
10
77.8979
20
47.5286
10
78.7746
20
45.1988
10
80.1798
20
43.1441
10
82.0330
20
41.4821
10
84.2281
20
40.3081
10
86.6392
20
39.6894
10
89.1284
20
39.6614
10
91.5528
20
40.2257
10
93.7738
20
41.3499
10
95.6639
20
42.9698
10
97.1150
20
44.9924
10
98.0439
20
47.3019
10
98.3974
20
49.7659
10
98.1552
20
52.2434
10
97.3312
20
54.5923
10
95.9726
20
56.6782
10
94.1572
20
58.3814
10
91.9891
20
59.6045
10
89.5925
20
60.2774
10
87.1046
20
60.3614
10
84.6681
20
59.8518
10
82.4224
20
58.7778
10
80.4962
20
57.2009
10
79.0000
20
55.2115
10
79.0000
20
55.2115
0
TEXT
8
LABEL
10
80.0000
20
70.0000
40
3.0000
1
OUT2
0
LWPOLYLINE
8
XLOK_CUT
90
51
70
1
10
122.0000
20
44.7885
10
122.0000
20
44.7885
10
123.4962
20
42.7991
10
125.4224
20
41.2222
10
127.6681
20
40.1482
10
130.1046
20
39.6386
10
132.5925
20
39.7226
10
134.9891
20
40.3955
10
137.1572
20
41.6186
10
138.9726
20
43.3218
10
140.3312
20
45.4077
10
141.1552
20
47.7566
10
141.3974
20
50.2341
10
141.0439
20
52.6981
10
140.1150
20
55.0076
10
138.6639
20
57.0302
10
136.7738
20
58.6501
10
134.5528
20
59.7743
10
132.1284
20
60.3386
10
129.6392
20
60.3106
10
127.2281
20
59.6919
10
125.0330
20
58.5179
10
123.1798
20
56.8559
10
121.7746
20
54.8012
10
120.8979
20
52.4714
10
120.6000
20
50.0000
10
120.8979
20
47.5286
10
121.7746
20
45.1988
10
123.1798
20
43.1441
10
125.0330
20
41.4821
10
127.2281
20
40.3081
10
129.6392
20
39.6894
10
132.1284
20
39.6614
10
134.5528
20
40.2257
10
136.7738
20
41.3499
10
138.6639
20
42.9698
10
140.1150
20
44.9924
10
141.0439
20
47.3019
10
141.3974
20
49.7659
10
141.1552
20
52.2434
10
140.3312
20
54.5923
10
138.9726
20
56.6782
10
137.1572
20
58.3814
10
134.9891
20
59.6045
10
132.5925
20
60.2774
10
130.1046
20
60.3614
10
127.6681
20
59.8518
10
125.4224
20
58.7778
10
123.4962
20
57.2009
10
122.0000
20
55.2115
10
122.0000
20
55.2115
0
TEXT
8
LABEL
10
123.0000
20
70.0000
40
3.0000
1
OUT3
0
LWPOLYLINE
8
XLOK_CUT
90
51
70
1
10
165.0000
20
44.7885
10
165.0000
20
44.7885
10
166.4962
20
42.7991
10
168.4224
20
41.2222
10
170.6681
20
40.1482
10
173.1046
20
39.6386
10
175.5925
20
39.7226
10
177.9891
20
40.3955
10
180.1572
20
41.6186
10
181.9726
20
43.3218
10
183.3312
20
45.4077
10
184.1552
20
47.7566
10
184.3974
20
50.2341
10
184.0439
20
52.6981
10
183.1150
20
55.0076
10
181.6639
20
57.0302
10
179.7738
20
58.6501
10
177.5528
20
59.7743
10
175.1284
20
60.3386
10
172.6392
20
60.3106
10
170.2281
20
59.6919
10
168.0330
20
58.5179
10
166.1798
20
56.8559
10
164.7746
20
54.8012
10
163.8979
20
52.4714
10
163.6000
20
50.0000
10
163.8979
20
47.5286
10
164.7746
20
45.1988
10
166.1798
20
43.1441
10
168.0330
20
41.4821
10
170.2281
20
40.3081
10
172.6392
20
39.6894
10
175.1284
20
39.6614
10
177.5528
20
40.2257
10
179.7738
20
41.3499
10
181.6639
20
42.9698
10
183.1150
20
44.9924
10
184.0439
20
47.3019
10
184.3974
20
49.7659
10
184.1552
20
52.2434
10
183.3312
20
54.5923
10
181.9726
20
56.6782
10
180.1572
20
58.3814
10
177.9891
20
59.6045
10
175.5925
20
60.2774
10
173.1046
20
60.3614
10
170.6681
20
59.8518
10
168.4224
20
58.7778
10
166.4962
20
57.2009
10
165.0000
20
55.2115
10
165.0000
20
55.2115
0
TEXT
8
LABEL
10
166.0000
20
70.0000
40
3.0000
1
OUT4
0
LWPOLYLINE
8
XLOK_CUT
90
51
70
1
10
208.0000
20
44.7885
10
208.0000
20
44.7885
10
209.4962
20
42.7991
10
211.4224
20
41.2222
10
213.6681
20
40.1482
10
216.1046
20
39.6386
10
218.5925
20
39.7226
10
220.9891
20
40.3955
10
223.1572
20
41.6186
10
224.9726
20
43.3218
10
226.3312
20
45.4077
10
227.1552
20
47.7566
10
227.3974
20
50.2341
10
227.0439
20
52.6981
10
226.1150
20
55.0076
10
224.6639
20
57.0302
10
222.7738
20
58.6501
10
220.5528
20
59.7743
10
218.1284
20
60.3386
10
215.6392
20
60.3106
10
213.2281
20
59.6919
10
211.0330
20
58.5179
10
209.1798
20
56.8559
10
207.7746
20
54.8012
10
206.8979
20
52.4714
10
206.6000
20
50.0000
10
206.8979
20
47.5286
10
207.7746
20
45.1988
10
209.1798
20
43.1441
10
211.0330
20
41.4821
10
213.2281
20
40.3081
10
215.6392
20
39.6894
10
218.1284
20
39.6614
10
220.5528
20
40.2257
10
222.7738
20
41.3499
10
224.6639
20
42.9698
10
226.1150
20
44.9924
10
227.0439
20
47.3019
10
227.3974
20
49.7659
10
227.1552
20
52.2434
10
226.3312
20
54.5923
10
224.9726
20
56.6782
10
223.1572
20
58.3814
10
220.9891
20
59.6045
10
218.5925
20
60.2774
10
216.1046
20
60.3614
10
213.6681
20
59.8518
10
211.4224
20
58.7778
10
209.4962
20
57.2009
10
208.0000
20
55.2115
10
208.0000
20
55.2115
0
TEXT
8
LABEL
10
209.0000
20
70.0000
40
3.0000
1
OUT5
0
TEXT
8
NOTES
10
8.0000
20
8.0000
40
3.0000
1
5x AMPHENOL X-LOK CC: D-CUT 20.8 / 19.4
0
TEXT
8
NOTES
10
8.0000
20
14.0000
40
3.0000
1
REFERENCE FLAT PANEL ONLY - CONFIRM BCPR WALL CLEARANCE
0
ENDSEC
0
EOF
