%TF.GenerationSoftware,KiCad,Pcbnew,10.0.5*%
%TF.CreationDate,2026-08-01T09:27:57+09:00*%
%TF.ProjectId,esp32c6-solar-controller,65737033-3263-4362-9d73-6f6c61722d63,REV A*%
%TF.SameCoordinates,Original*%
%TF.FileFunction,Soldermask,Top*%
%TF.FilePolarity,Negative*%
%FSLAX46Y46*%
G04 Gerber Fmt 4.6, Leading zero omitted, Abs format (unit mm)*
G04 Created by KiCad (PCBNEW 10.0.5) date 2026-08-01 09:27:57*
%MOMM*%
%LPD*%
G01*
G04 APERTURE LIST*
G04 Aperture macros list*
%AMRoundRect*
0 Rectangle with rounded corners*
0 $1 Rounding radius*
0 $2 $3 $4 $5 $6 $7 $8 $9 X,Y pos of 4 corners*
0 Add a 4 corners polygon primitive as box body*
4,1,4,$2,$3,$4,$5,$6,$7,$8,$9,$2,$3,0*
0 Add four circle primitives for the rounded corners*
1,1,$1+$1,$2,$3*
1,1,$1+$1,$4,$5*
1,1,$1+$1,$6,$7*
1,1,$1+$1,$8,$9*
0 Add four rect primitives between the rounded corners*
20,1,$1+$1,$2,$3,$4,$5,0*
20,1,$1+$1,$4,$5,$6,$7,0*
20,1,$1+$1,$6,$7,$8,$9,0*
20,1,$1+$1,$8,$9,$2,$3,0*%
G04 Aperture macros list end*
%ADD10C,2.500000*%
%ADD11C,2.000000*%
%ADD12R,0.600000X0.600000*%
%ADD13RoundRect,0.250000X-0.375000X-0.625000X0.375000X-0.625000X0.375000X0.625000X-0.375000X0.625000X0*%
%ADD14R,1.700000X1.700000*%
%ADD15C,1.700000*%
%ADD16R,3.000000X3.000000*%
%ADD17C,3.000000*%
%ADD18RoundRect,0.200000X-0.200000X-0.275000X0.200000X-0.275000X0.200000X0.275000X-0.200000X0.275000X0*%
%ADD19RoundRect,0.250000X-0.250000X-0.475000X0.250000X-0.475000X0.250000X0.475000X-0.250000X0.475000X0*%
%ADD20RoundRect,0.150000X-0.825000X-0.150000X0.825000X-0.150000X0.825000X0.150000X-0.825000X0.150000X0*%
%ADD21RoundRect,0.150000X0.150000X-0.825000X0.150000X0.825000X-0.150000X0.825000X-0.150000X-0.825000X0*%
%ADD22RoundRect,0.225000X-0.225000X-0.250000X0.225000X-0.250000X0.225000X0.250000X-0.225000X0.250000X0*%
%ADD23RoundRect,0.250000X-1.000000X-0.900000X1.000000X-0.900000X1.000000X0.900000X-1.000000X0.900000X0*%
%ADD24RoundRect,0.500000X-0.875000X-0.500000X0.875000X-0.500000X0.875000X0.500000X-0.875000X0.500000X0*%
%ADD25RoundRect,0.275000X-0.275000X0.975000X-0.275000X-0.975000X0.275000X-0.975000X0.275000X0.975000X0*%
%ADD26R,0.700000X1.270000*%
%ADD27R,0.700000X1.000000*%
%ADD28R,4.900000X4.500000*%
%ADD29RoundRect,0.275000X-2.025000X-0.275000X2.025000X-0.275000X2.025000X0.275000X-2.025000X0.275000X0*%
%ADD30RoundRect,0.250000X-4.450000X-5.150000X4.450000X-5.150000X4.450000X5.150000X-4.450000X5.150000X0*%
%ADD31O,0.364000X1.662000*%
%ADD32RoundRect,0.250000X-0.325000X-0.650000X0.325000X-0.650000X0.325000X0.650000X-0.325000X0.650000X0*%
%ADD33RoundRect,0.150000X-0.587500X-0.150000X0.587500X-0.150000X0.587500X0.150000X-0.587500X0.150000X0*%
%ADD34C,3.200000*%
%ADD35RoundRect,0.250000X-0.312500X-1.450000X0.312500X-1.450000X0.312500X1.450000X-0.312500X1.450000X0*%
%ADD36RoundRect,0.250000X-0.750000X-0.650000X0.750000X-0.650000X0.750000X0.650000X-0.750000X0.650000X0*%
%ADD37RoundRect,0.150000X-0.512500X-0.150000X0.512500X-0.150000X0.512500X0.150000X-0.512500X0.150000X0*%
%ADD38RoundRect,0.250000X-0.750000X-0.750000X0.750000X-0.750000X0.750000X0.750000X-0.750000X0.750000X0*%
%ADD39RoundRect,0.250000X-0.550000X-0.550000X0.550000X-0.550000X0.550000X0.550000X-0.550000X0.550000X0*%
%ADD40C,1.600000*%
%ADD41RoundRect,0.250000X-0.262500X-0.450000X0.262500X-0.450000X0.262500X0.450000X-0.262500X0.450000X0*%
G04 APERTURE END LIST*
D10*
%TO.C,F14*%
X162000000Y-68000000D03*
D11*
X155600000Y-66750000D03*
X155600000Y-69250000D03*
X159100000Y-66880000D03*
X159100000Y-69250000D03*
X164900000Y-66750000D03*
X164900000Y-69250000D03*
X168400000Y-66750000D03*
X168400000Y-69250000D03*
%TD*%
D12*
%TO.C,D34*%
X104000000Y-18000000D03*
X105000000Y-18000000D03*
%TD*%
D13*
%TO.C,F2*%
X64600000Y-52000000D03*
X67400000Y-52000000D03*
%TD*%
D14*
%TO.C,JP1*%
X126000000Y-46500000D03*
D15*
X126000000Y-49040000D03*
%TD*%
D16*
%TO.C,J4*%
X81100000Y-5000000D03*
D17*
X86180000Y-5000000D03*
X91260000Y-5000000D03*
X96340000Y-5000000D03*
%TD*%
D18*
%TO.C,R58*%
X113175000Y-83000000D03*
X114825000Y-83000000D03*
%TD*%
%TO.C,R42*%
X77175000Y-76000000D03*
X78825000Y-76000000D03*
%TD*%
D19*
%TO.C,C36*%
X131550000Y-53500000D03*
X133450000Y-53500000D03*
%TD*%
D20*
%TO.C,U3*%
X100525000Y-37095000D03*
X100525000Y-38365000D03*
X100525000Y-39635000D03*
X100525000Y-40905000D03*
X105475000Y-40905000D03*
X105475000Y-39635000D03*
X105475000Y-38365000D03*
X105475000Y-37095000D03*
%TD*%
D19*
%TO.C,C35*%
X120550000Y-53500000D03*
X122450000Y-53500000D03*
%TD*%
D21*
%TO.C,U6*%
X102190000Y-61475000D03*
X103460000Y-61475000D03*
X104730000Y-61475000D03*
X106000000Y-61475000D03*
X107270000Y-61475000D03*
X108540000Y-61475000D03*
X109810000Y-61475000D03*
X109810000Y-56525000D03*
X108540000Y-56525000D03*
X107270000Y-56525000D03*
X106000000Y-56525000D03*
X104730000Y-56525000D03*
X103460000Y-56525000D03*
X102190000Y-56525000D03*
%TD*%
D18*
%TO.C,R53*%
X113175000Y-79500000D03*
X114825000Y-79500000D03*
%TD*%
D10*
%TO.C,F1*%
X22000000Y-35000000D03*
D11*
X15600000Y-33750000D03*
X15600000Y-36250000D03*
X19100000Y-33880000D03*
X19100000Y-36250000D03*
X24900000Y-33750000D03*
X24900000Y-36250000D03*
X28400000Y-33750000D03*
X28400000Y-36250000D03*
%TD*%
D22*
%TO.C,C24*%
X157225000Y-48000000D03*
X158775000Y-48000000D03*
%TD*%
D23*
%TO.C,D24*%
X159850000Y-62000000D03*
X164150000Y-62000000D03*
%TD*%
D22*
%TO.C,C33*%
X126725000Y-53500000D03*
X128275000Y-53500000D03*
%TD*%
D20*
%TO.C,U9*%
X138525000Y-57095000D03*
X138525000Y-58365000D03*
X138525000Y-59635000D03*
X138525000Y-60905000D03*
X143475000Y-60905000D03*
X143475000Y-59635000D03*
X143475000Y-58365000D03*
X143475000Y-57095000D03*
%TD*%
D18*
%TO.C,R13*%
X115175000Y-52000000D03*
X116825000Y-52000000D03*
%TD*%
%TO.C,R1*%
X9175000Y-55000000D03*
X10825000Y-55000000D03*
%TD*%
D24*
%TO.C,U1*%
X71935000Y-34380000D03*
X71935000Y-36920000D03*
X71935000Y-39460000D03*
X71935000Y-42000000D03*
X71935000Y-44540000D03*
X71935000Y-47080000D03*
X71935000Y-49620000D03*
X88100000Y-49620000D03*
X88100000Y-47080000D03*
X88100000Y-44540000D03*
X88100000Y-42000000D03*
X88100000Y-39460000D03*
X88100000Y-36920000D03*
X88100000Y-34380000D03*
D15*
X78716600Y-33358500D03*
X81256600Y-33358500D03*
X78716600Y-35898500D03*
X81256600Y-35898500D03*
X78716600Y-38438500D03*
X81256600Y-38438500D03*
X78716600Y-40978500D03*
X81164000Y-40921700D03*
D25*
X78208600Y-47531700D03*
X80748600Y-47531700D03*
%TD*%
D26*
%TO.C,Q3*%
X47090000Y-76500000D03*
D27*
X50910000Y-82500000D03*
X49640000Y-82500000D03*
D28*
X49000000Y-79890000D03*
D27*
X48370000Y-82500000D03*
X47100000Y-82500000D03*
D26*
X50900000Y-76500000D03*
X49640000Y-76500000D03*
X48360000Y-76500000D03*
%TD*%
D20*
%TO.C,U8*%
X127525000Y-57095000D03*
X127525000Y-58365000D03*
X127525000Y-59635000D03*
X127525000Y-60905000D03*
X132475000Y-60905000D03*
X132475000Y-59635000D03*
X132475000Y-58365000D03*
X132475000Y-57095000D03*
%TD*%
D18*
%TO.C,R59*%
X149175000Y-83000000D03*
X150825000Y-83000000D03*
%TD*%
%TO.C,R23*%
X140175000Y-24000000D03*
X141825000Y-24000000D03*
%TD*%
D14*
%TO.C,J12*%
X93810000Y-109515000D03*
D15*
X93810000Y-107685000D03*
X93810000Y-105855000D03*
X86190000Y-109515000D03*
X86190000Y-107685000D03*
X86190000Y-105855000D03*
%TD*%
D29*
%TO.C,D14*%
X163350000Y-75960000D03*
D30*
X172500000Y-78500000D03*
D29*
X163350000Y-81040000D03*
%TD*%
D31*
%TO.C,U13*%
X19020000Y-48130000D03*
X19680000Y-48130000D03*
X20330000Y-48130000D03*
X20980000Y-48130000D03*
X20980000Y-43870000D03*
X20330000Y-43870000D03*
X19680000Y-43870000D03*
X19020000Y-43870000D03*
%TD*%
D18*
%TO.C,R8*%
X79175000Y-56500000D03*
X80825000Y-56500000D03*
%TD*%
D23*
%TO.C,D20*%
X30350000Y-68000000D03*
X34650000Y-68000000D03*
%TD*%
D18*
%TO.C,R51*%
X41175000Y-79500000D03*
X42825000Y-79500000D03*
%TD*%
%TO.C,R9*%
X95175000Y-41000000D03*
X96825000Y-41000000D03*
%TD*%
%TO.C,R3*%
X25175000Y-55000000D03*
X26825000Y-55000000D03*
%TD*%
D26*
%TO.C,Q6*%
X155090000Y-76500000D03*
D27*
X158910000Y-82500000D03*
X157640000Y-82500000D03*
D28*
X157000000Y-79890000D03*
D27*
X156370000Y-82500000D03*
X155100000Y-82500000D03*
D26*
X158900000Y-76500000D03*
X157640000Y-76500000D03*
X156360000Y-76500000D03*
%TD*%
D18*
%TO.C,R24*%
X148375000Y-20000000D03*
X150025000Y-20000000D03*
%TD*%
%TO.C,R17*%
X106175000Y-27000000D03*
X107825000Y-27000000D03*
%TD*%
D19*
%TO.C,C6*%
X11050000Y-46000000D03*
X12950000Y-46000000D03*
%TD*%
D32*
%TO.C,C9*%
X48525000Y-60000000D03*
X51475000Y-60000000D03*
%TD*%
D14*
%TO.C,J1*%
X16890000Y-5210000D03*
D15*
X16890000Y-7040000D03*
X16890000Y-8870000D03*
X24510000Y-5210000D03*
X24510000Y-7040000D03*
X24510000Y-8870000D03*
%TD*%
D32*
%TO.C,C8*%
X36525000Y-60000000D03*
X39475000Y-60000000D03*
%TD*%
D23*
%TO.C,D1*%
X49850000Y-36000000D03*
X54150000Y-36000000D03*
%TD*%
D18*
%TO.C,R54*%
X149175000Y-79500000D03*
X150825000Y-79500000D03*
%TD*%
%TO.C,R44*%
X149175000Y-76000000D03*
X150825000Y-76000000D03*
%TD*%
D21*
%TO.C,U5*%
X90190000Y-61475000D03*
X91460000Y-61475000D03*
X92730000Y-61475000D03*
X94000000Y-61475000D03*
X95270000Y-61475000D03*
X96540000Y-61475000D03*
X97810000Y-61475000D03*
X97810000Y-56525000D03*
X96540000Y-56525000D03*
X95270000Y-56525000D03*
X94000000Y-56525000D03*
X92730000Y-56525000D03*
X91460000Y-56525000D03*
X90190000Y-56525000D03*
%TD*%
D33*
%TO.C,D3*%
X32062500Y-56050000D03*
X32062500Y-57950000D03*
X33937500Y-57000000D03*
%TD*%
D22*
%TO.C,C22*%
X148425000Y-28000000D03*
X149975000Y-28000000D03*
%TD*%
D34*
%TO.C,H3*%
X4000000Y-111000000D03*
%TD*%
D14*
%TO.C,J14*%
X165810000Y-109515000D03*
D15*
X165810000Y-107685000D03*
X165810000Y-105855000D03*
X158190000Y-109515000D03*
X158190000Y-107685000D03*
X158190000Y-105855000D03*
%TD*%
D10*
%TO.C,F12*%
X90000000Y-68000000D03*
D11*
X83600000Y-66750000D03*
X83600000Y-69250000D03*
X87100000Y-66880000D03*
X87100000Y-69250000D03*
X92900000Y-66750000D03*
X92900000Y-69250000D03*
X96400000Y-66750000D03*
X96400000Y-69250000D03*
%TD*%
D32*
%TO.C,C10*%
X59525000Y-60000000D03*
X62475000Y-60000000D03*
%TD*%
D14*
%TO.C,J13*%
X129810000Y-109515000D03*
D15*
X129810000Y-107685000D03*
X129810000Y-105855000D03*
X122190000Y-109515000D03*
X122190000Y-107685000D03*
X122190000Y-105855000D03*
%TD*%
D26*
%TO.C,Q4*%
X83090000Y-76500000D03*
D27*
X86910000Y-82500000D03*
X85640000Y-82500000D03*
D28*
X85000000Y-79890000D03*
D27*
X84370000Y-82500000D03*
X83100000Y-82500000D03*
D26*
X86900000Y-76500000D03*
X85640000Y-76500000D03*
X84360000Y-76500000D03*
%TD*%
D29*
%TO.C,D10*%
X19350000Y-75960000D03*
D30*
X28500000Y-78500000D03*
D29*
X19350000Y-81040000D03*
%TD*%
D35*
%TO.C,F3*%
X93862500Y-20000000D03*
X98137500Y-20000000D03*
%TD*%
D34*
%TO.C,H4*%
X176000000Y-111000000D03*
%TD*%
D22*
%TO.C,C5*%
X95225000Y-35000000D03*
X96775000Y-35000000D03*
%TD*%
%TO.C,C20*%
X122025000Y-28000000D03*
X123575000Y-28000000D03*
%TD*%
D14*
%TO.C,J11*%
X57810000Y-109515000D03*
D15*
X57810000Y-107685000D03*
X57810000Y-105855000D03*
X50190000Y-109515000D03*
X50190000Y-107685000D03*
X50190000Y-105855000D03*
%TD*%
D34*
%TO.C,H2*%
X176000000Y-4000000D03*
%TD*%
D33*
%TO.C,D2*%
X119062500Y-38050000D03*
X119062500Y-39950000D03*
X120937500Y-39000000D03*
%TD*%
D14*
%TO.C,J10*%
X21810000Y-109515000D03*
D15*
X21810000Y-107685000D03*
X21810000Y-105855000D03*
X14190000Y-109515000D03*
X14190000Y-107685000D03*
X14190000Y-105855000D03*
%TD*%
D22*
%TO.C,C12*%
X106225000Y-31000000D03*
X107775000Y-31000000D03*
%TD*%
D12*
%TO.C,D31*%
X140500000Y-32000000D03*
X141500000Y-32000000D03*
%TD*%
D36*
%TO.C,L1*%
X55750000Y-52000000D03*
X60250000Y-52000000D03*
%TD*%
D18*
%TO.C,R41*%
X41175000Y-76000000D03*
X42825000Y-76000000D03*
%TD*%
D16*
%TO.C,J7*%
X136000000Y-5000000D03*
D17*
X141080000Y-5000000D03*
%TD*%
D12*
%TO.C,D33*%
X166900000Y-32000000D03*
X167900000Y-32000000D03*
%TD*%
D34*
%TO.C,H1*%
X4000000Y-4000000D03*
%TD*%
D18*
%TO.C,R11*%
X111175000Y-42000000D03*
X112825000Y-42000000D03*
%TD*%
%TO.C,R43*%
X113175000Y-76000000D03*
X114825000Y-76000000D03*
%TD*%
D26*
%TO.C,Q5*%
X119090000Y-76500000D03*
D27*
X122910000Y-82500000D03*
X121640000Y-82500000D03*
D28*
X121000000Y-79890000D03*
D27*
X120370000Y-82500000D03*
X119100000Y-82500000D03*
D26*
X122900000Y-76500000D03*
X121640000Y-76500000D03*
X120360000Y-76500000D03*
%TD*%
D18*
%TO.C,R27*%
X166575000Y-24000000D03*
X168225000Y-24000000D03*
%TD*%
D22*
%TO.C,C7*%
X50225000Y-45500000D03*
X51775000Y-45500000D03*
%TD*%
D23*
%TO.C,D23*%
X138350000Y-68000000D03*
X142650000Y-68000000D03*
%TD*%
D12*
%TO.C,D32*%
X153700000Y-32000000D03*
X154700000Y-32000000D03*
%TD*%
D18*
%TO.C,R50*%
X5175000Y-79500000D03*
X6825000Y-79500000D03*
%TD*%
D37*
%TO.C,U4*%
X44862500Y-51050000D03*
X44862500Y-52000000D03*
X44862500Y-52950000D03*
X47137500Y-52950000D03*
X47137500Y-52000000D03*
X47137500Y-51050000D03*
%TD*%
D38*
%TO.C,C1*%
X62000000Y-38000000D03*
D11*
X67000000Y-38000000D03*
%TD*%
D29*
%TO.C,D12*%
X91350000Y-75960000D03*
D30*
X100500000Y-78500000D03*
D29*
X91350000Y-81040000D03*
%TD*%
%TO.C,D13*%
X127350000Y-75960000D03*
D30*
X136500000Y-78500000D03*
D29*
X127350000Y-81040000D03*
%TD*%
%TO.C,D11*%
X55350000Y-75960000D03*
D30*
X64500000Y-78500000D03*
D29*
X55350000Y-81040000D03*
%TD*%
D10*
%TO.C,F11*%
X54000000Y-68000000D03*
D11*
X47600000Y-66750000D03*
X47600000Y-69250000D03*
X51100000Y-66880000D03*
X51100000Y-69250000D03*
X56900000Y-66750000D03*
X56900000Y-69250000D03*
X60400000Y-66750000D03*
X60400000Y-69250000D03*
%TD*%
D22*
%TO.C,C13*%
X27225000Y-45000000D03*
X28775000Y-45000000D03*
%TD*%
%TO.C,C23*%
X161625000Y-28000000D03*
X163175000Y-28000000D03*
%TD*%
D18*
%TO.C,R55*%
X5175000Y-83000000D03*
X6825000Y-83000000D03*
%TD*%
D23*
%TO.C,D22*%
X102350000Y-68000000D03*
X106650000Y-68000000D03*
%TD*%
D22*
%TO.C,C32*%
X115725000Y-53500000D03*
X117275000Y-53500000D03*
%TD*%
D39*
%TO.C,C11*%
X95000000Y-27000000D03*
D40*
X97000000Y-27000000D03*
%TD*%
D16*
%TO.C,J6*%
X122800000Y-5000000D03*
D17*
X127880000Y-5000000D03*
%TD*%
D18*
%TO.C,R10*%
X111175000Y-36000000D03*
X112825000Y-36000000D03*
%TD*%
%TO.C,R16*%
X106175000Y-22000000D03*
X107825000Y-22000000D03*
%TD*%
%TO.C,R26*%
X161575000Y-20000000D03*
X163225000Y-20000000D03*
%TD*%
D20*
%TO.C,U11*%
X148525000Y-44190000D03*
X148525000Y-45460000D03*
X148525000Y-46730000D03*
X148525000Y-48000000D03*
X148525000Y-49270000D03*
X148525000Y-50540000D03*
X148525000Y-51810000D03*
X153475000Y-51810000D03*
X153475000Y-50540000D03*
X153475000Y-49270000D03*
X153475000Y-48000000D03*
X153475000Y-46730000D03*
X153475000Y-45460000D03*
X153475000Y-44190000D03*
%TD*%
D22*
%TO.C,C3*%
X25225000Y-61000000D03*
X26775000Y-61000000D03*
%TD*%
D19*
%TO.C,C37*%
X142550000Y-53500000D03*
X144450000Y-53500000D03*
%TD*%
D18*
%TO.C,R25*%
X153375000Y-24000000D03*
X155025000Y-24000000D03*
%TD*%
D10*
%TO.C,F13*%
X126000000Y-68000000D03*
D11*
X119600000Y-66750000D03*
X119600000Y-69250000D03*
X123100000Y-66880000D03*
X123100000Y-69250000D03*
X128900000Y-66750000D03*
X128900000Y-69250000D03*
X132400000Y-66750000D03*
X132400000Y-69250000D03*
%TD*%
D26*
%TO.C,Q1*%
X40910000Y-38000000D03*
D27*
X37090000Y-32000000D03*
X38360000Y-32000000D03*
D28*
X39000000Y-34610000D03*
D27*
X39630000Y-32000000D03*
X40900000Y-32000000D03*
D26*
X37100000Y-38000000D03*
X38360000Y-38000000D03*
X39640000Y-38000000D03*
%TD*%
D20*
%TO.C,U7*%
X116525000Y-57095000D03*
X116525000Y-58365000D03*
X116525000Y-59635000D03*
X116525000Y-60905000D03*
X121475000Y-60905000D03*
X121475000Y-59635000D03*
X121475000Y-58365000D03*
X121475000Y-57095000D03*
%TD*%
D18*
%TO.C,R19*%
X116675000Y-27000000D03*
X118325000Y-27000000D03*
%TD*%
D16*
%TO.C,J9*%
X162400000Y-5000000D03*
D17*
X167480000Y-5000000D03*
%TD*%
D18*
%TO.C,R40*%
X5175000Y-76000000D03*
X6825000Y-76000000D03*
%TD*%
%TO.C,R57*%
X77175000Y-83000000D03*
X78825000Y-83000000D03*
%TD*%
D16*
%TO.C,J8*%
X149200000Y-5000000D03*
D17*
X154280000Y-5000000D03*
%TD*%
D22*
%TO.C,C34*%
X137725000Y-53500000D03*
X139275000Y-53500000D03*
%TD*%
%TO.C,C30*%
X93225000Y-53500000D03*
X94775000Y-53500000D03*
%TD*%
%TO.C,C31*%
X105225000Y-53500000D03*
X106775000Y-53500000D03*
%TD*%
D18*
%TO.C,R22*%
X135175000Y-20000000D03*
X136825000Y-20000000D03*
%TD*%
D16*
%TO.C,J5*%
X104500000Y-5000000D03*
D17*
X109580000Y-5000000D03*
X114660000Y-5000000D03*
%TD*%
D18*
%TO.C,R52*%
X77175000Y-79500000D03*
X78825000Y-79500000D03*
%TD*%
%TO.C,R14*%
X125175000Y-52000000D03*
X126825000Y-52000000D03*
%TD*%
D22*
%TO.C,C21*%
X135225000Y-28000000D03*
X136775000Y-28000000D03*
%TD*%
D23*
%TO.C,D21*%
X66350000Y-68000000D03*
X70650000Y-68000000D03*
%TD*%
D18*
%TO.C,R21*%
X126975000Y-24000000D03*
X128625000Y-24000000D03*
%TD*%
%TO.C,R2*%
X17175000Y-55000000D03*
X18825000Y-55000000D03*
%TD*%
%TO.C,R56*%
X41175000Y-83000000D03*
X42825000Y-83000000D03*
%TD*%
D16*
%TO.C,J3*%
X57700000Y-5000000D03*
D17*
X62780000Y-5000000D03*
X67860000Y-5000000D03*
X72940000Y-5000000D03*
%TD*%
D12*
%TO.C,D30*%
X127300000Y-32000000D03*
X128300000Y-32000000D03*
%TD*%
D37*
%TO.C,U12*%
X112862500Y-32050000D03*
X112862500Y-33000000D03*
X112862500Y-33950000D03*
X115137500Y-33950000D03*
X115137500Y-32050000D03*
%TD*%
D26*
%TO.C,Q2*%
X11090000Y-76500000D03*
D27*
X14910000Y-82500000D03*
X13640000Y-82500000D03*
D28*
X13000000Y-79890000D03*
D27*
X12370000Y-82500000D03*
X11100000Y-82500000D03*
D26*
X14900000Y-76500000D03*
X13640000Y-76500000D03*
X12360000Y-76500000D03*
%TD*%
D16*
%TO.C,J2*%
X34300000Y-5000000D03*
D17*
X39380000Y-5000000D03*
X44460000Y-5000000D03*
X49540000Y-5000000D03*
%TD*%
D18*
%TO.C,R18*%
X116675000Y-22000000D03*
X118325000Y-22000000D03*
%TD*%
D32*
%TO.C,C2*%
X66525000Y-60000000D03*
X69475000Y-60000000D03*
%TD*%
D41*
%TO.C,R12*%
X115087500Y-47000000D03*
X116912500Y-47000000D03*
%TD*%
D10*
%TO.C,F10*%
X18000000Y-68000000D03*
D11*
X11600000Y-66750000D03*
X11600000Y-69250000D03*
X15100000Y-66880000D03*
X15100000Y-69250000D03*
X20900000Y-66750000D03*
X20900000Y-69250000D03*
X24400000Y-66750000D03*
X24400000Y-69250000D03*
%TD*%
D18*
%TO.C,R20*%
X121975000Y-20000000D03*
X123625000Y-20000000D03*
%TD*%
M02*
