M48
; DRILL file KiCad 10.0.5 date 2026-08-01T09:27:58
; FORMAT={-:-/ absolute / metric / decimal}
; #@! TF.CreationDate,2026-08-01T09:27:58+09:00
; #@! TF.GenerationSoftware,Kicad,Pcbnew,10.0.5
; #@! TF.FileFunction,Plated,1,4,PTH
FMAT,2
METRIC
; #@! TA.AperFunction,Plated,PTH,ViaDrill
T1C0.400
; #@! TA.AperFunction,Plated,PTH,ViaDrill
T2C0.500
; #@! TA.AperFunction,Plated,PTH,ViaDrill
T3C0.600
; #@! TA.AperFunction,Plated,PTH,ComponentDrill
T4C0.800
; #@! TA.AperFunction,Plated,PTH,ComponentDrill
T5C1.000
; #@! TA.AperFunction,Plated,PTH,ComponentDrill
T6C1.300
; #@! TA.AperFunction,Plated,PTH,ComponentDrill
T7C1.400
; #@! TA.AperFunction,Plated,PTH,ComponentDrill
T8C1.500
%
G90
G05
T1
X7.975Y-55.0
X8.025Y-76.0
X8.025Y-83.0
X9.0Y-9.0
X9.0Y-24.0
X9.0Y-39.0
X9.05Y-46.0
X18.518Y-42.78
X19.383Y-41.892
X20.025Y-55.0
X20.636Y-41.894
X21.816Y-49.947
X25.225Y-45.0
X27.975Y-61.0
X28.35Y-68.0
X31.22Y-55.196
X36.446Y-30.988
X38.11Y-30.826
X39.0Y-24.0
X39.0Y-54.0
X39.0Y-69.0
X39.0Y-84.0
X39.0Y-99.0
X39.877Y-30.826
X40.675Y-60.0
X41.542Y-30.986
X41.984Y-39.687
X43.327Y-49.768
X44.025Y-76.0
X44.025Y-83.0
X48.059Y-53.719
X48.65Y-36.0
X52.675Y-60.0
X54.0Y-24.0
X55.35Y-36.0
X62.25Y-52.0
X63.675Y-60.0
X64.35Y-68.0
X67.185Y-45.581
X67.541Y-64.317
X69.0Y-24.0
X69.0Y-99.0
X69.4Y-52.0
X70.0Y-39.46
X70.675Y-60.0
X72.09Y-57.216
X73.353Y-73.389
X73.432Y-51.117
X80.025Y-76.0
X80.025Y-83.0
X80.91Y-48.721
X81.387Y-53.613
X82.025Y-56.5
X82.457Y-35.898
X84.0Y-24.0
X84.499Y-48.913
X86.535Y-56.997
X87.689Y-57.497
X88.041Y-62.718
X89.117Y-36.282
X89.557Y-33.01
X90.008Y-38.862
X91.241Y-39.272
X92.662Y-20.0
X93.225Y-35.0
X95.891Y-42.655
X95.908Y-58.168
X95.975Y-53.5
X96.921Y-59.385
X97.975Y-35.0
X98.025Y-41.0
X98.816Y-62.129
X98.979Y-63.621
X100.35Y-68.0
X101.273Y-61.135
X102.917Y-63.189
X103.51Y-64.809
X105.908Y-54.512
X106.2Y-18.0
X106.426Y-41.637
X107.088Y-63.189
X107.592Y-50.208
X107.628Y-47.749
X107.775Y-32.2
X107.818Y-55.457
X107.975Y-53.5
X108.54Y-55.325
X110.8Y-32.05
X110.816Y-62.129
X111.546Y-38.049
X111.662Y-33.0
X113.932Y-48.239
X114.0Y-24.0
X114.0Y-39.0
X114.0Y-69.0
X114.0Y-99.0
X114.109Y-49.997
X114.675Y-22.0
X114.75Y-54.871
X114.807Y-49.035
X115.093Y-29.627
X115.363Y-59.933
X116.025Y-76.0
X116.025Y-83.0
X116.673Y-30.768
X118.475Y-53.5
X119.076Y-61.023
X119.525Y-27.0
X122.137Y-39.0
X123.181Y-59.727
X123.514Y-43.925
X123.65Y-53.5
X124.725Y-53.5
X124.775Y-28.0
X126.028Y-50.89
X126.363Y-59.933
X127.324Y-21.17
X128.025Y-52.0
X128.275Y-54.7
X129.0Y-39.0
X129.136Y-28.552
X129.5Y-32.0
X131.149Y-29.526
X133.45Y-54.7
X135.23Y-58.668
X135.725Y-53.5
X136.35Y-68.0
X137.363Y-59.933
X137.574Y-61.637
X137.975Y-28.0
X139.662Y-29.852
X140.475Y-53.5
X142.7Y-32.0
X142.913Y-24.231
X143.125Y-26.468
X144.0Y-24.0
X144.0Y-39.0
X144.0Y-99.0
X145.412Y-60.132
X145.65Y-53.5
X147.871Y-52.816
X151.175Y-28.0
X151.552Y-20.059
X151.785Y-30.983
X152.023Y-26.454
X152.025Y-76.0
X152.025Y-83.0
X154.675Y-45.46
X154.675Y-48.0
X155.9Y-32.0
X157.85Y-62.0
X159.0Y-24.0
X159.0Y-39.0
X159.0Y-54.0
X159.975Y-48.0
X162.361Y-28.945
X162.472Y-22.104
X164.375Y-28.0
X169.1Y-32.0
X172.0Y-56.0
T2
X12.36Y-73.3
X13.595Y-92.872
X13.64Y-73.3
X14.9Y-73.3
X34.65Y-65.0
X48.36Y-73.3
X49.595Y-92.872
X49.64Y-73.3
X50.9Y-73.3
X70.65Y-65.0
X84.36Y-73.3
X85.595Y-92.872
X85.64Y-73.3
X86.9Y-73.3
X106.65Y-65.0
X108.0Y-36.247
X108.473Y-44.709
X120.36Y-73.3
X121.595Y-92.872
X121.64Y-73.3
X122.9Y-73.3
X142.65Y-65.0
X156.36Y-73.3
X157.595Y-92.872
X157.64Y-73.3
X158.9Y-73.3
X164.15Y-59.0
T3
X31.0Y-45.0
X41.5Y-55.0
X44.0Y-32.5
X44.0Y-35.0
X44.0Y-37.5
X46.0Y-32.5
X46.0Y-35.0
X46.0Y-37.5
X48.0Y-32.5
X48.0Y-35.0
X48.0Y-37.5
T4
X95.0Y-27.0
X97.0Y-27.0
T5
X62.0Y-38.0
X67.0Y-38.0
X126.0Y-46.5
X126.0Y-49.04
T6
X14.19Y-105.855
X14.19Y-107.685
X14.19Y-109.515
X16.89Y-5.21
X16.89Y-7.04
X16.89Y-8.87
X21.81Y-105.855
X21.81Y-107.685
X21.81Y-109.515
X24.51Y-5.21
X24.51Y-7.04
X24.51Y-8.87
X50.19Y-105.855
X50.19Y-107.685
X50.19Y-109.515
X57.81Y-105.855
X57.81Y-107.685
X57.81Y-109.515
X86.19Y-105.855
X86.19Y-107.685
X86.19Y-109.515
X93.81Y-105.855
X93.81Y-107.685
X93.81Y-109.515
X122.19Y-105.855
X122.19Y-107.685
X122.19Y-109.515
X129.81Y-105.855
X129.81Y-107.685
X129.81Y-109.515
X158.19Y-105.855
X158.19Y-107.685
X158.19Y-109.515
X165.81Y-105.855
X165.81Y-107.685
X165.81Y-109.515
T7
X34.3Y-5.0
X39.38Y-5.0
X44.46Y-5.0
X49.54Y-5.0
X57.7Y-5.0
X62.78Y-5.0
X67.86Y-5.0
X72.94Y-5.0
X81.1Y-5.0
X86.18Y-5.0
X91.26Y-5.0
X96.34Y-5.0
X104.5Y-5.0
X109.58Y-5.0
X114.66Y-5.0
X122.8Y-5.0
X127.88Y-5.0
X136.0Y-5.0
X141.08Y-5.0
X149.2Y-5.0
X154.28Y-5.0
X162.4Y-5.0
X167.48Y-5.0
T8
X11.6Y-66.75
X11.6Y-69.25
X15.1Y-66.88
X15.1Y-69.25
X15.6Y-33.75
X15.6Y-36.25
X19.1Y-33.88
X19.1Y-36.25
X20.9Y-66.75
X20.9Y-69.25
X24.4Y-66.75
X24.4Y-69.25
X24.9Y-33.75
X24.9Y-36.25
X28.4Y-33.75
X28.4Y-36.25
X47.6Y-66.75
X47.6Y-69.25
X51.1Y-66.88
X51.1Y-69.25
X56.9Y-66.75
X56.9Y-69.25
X60.4Y-66.75
X60.4Y-69.25
X83.6Y-66.75
X83.6Y-69.25
X87.1Y-66.88
X87.1Y-69.25
X92.9Y-66.75
X92.9Y-69.25
X96.4Y-66.75
X96.4Y-69.25
X119.6Y-66.75
X119.6Y-69.25
X123.1Y-66.88
X123.1Y-69.25
X128.9Y-66.75
X128.9Y-69.25
X132.4Y-66.75
X132.4Y-69.25
X155.6Y-66.75
X155.6Y-69.25
X159.1Y-66.88
X159.1Y-69.25
X164.9Y-66.75
X164.9Y-69.25
X168.4Y-66.75
X168.4Y-69.25
M30
