%TF.GenerationSoftware,KiCad,Pcbnew,10.0.5*%
%TF.CreationDate,2026-08-01T09:27:57+09:00*%
%TF.ProjectId,esp32c6-solar-controller,65737033-3263-4362-9d73-6f6c61722d63,REV A*%
%TF.SameCoordinates,Original*%
%TF.FileFunction,Legend,Top*%
%TF.FilePolarity,Positive*%
%FSLAX46Y46*%
G04 Gerber Fmt 4.6, Leading zero omitted, Abs format (unit mm)*
G04 Created by KiCad (PCBNEW 10.0.5) date 2026-08-01 09:27:57*
%MOMM*%
%LPD*%
G01*
G04 APERTURE LIST*
G04 Aperture macros list*
%AMRoundRect*
0 Rectangle with rounded corners*
0 $1 Rounding radius*
0 $2 $3 $4 $5 $6 $7 $8 $9 X,Y pos of 4 corners*
0 Add a 4 corners polygon primitive as box body*
4,1,4,$2,$3,$4,$5,$6,$7,$8,$9,$2,$3,0*
0 Add four circle primitives for the rounded corners*
1,1,$1+$1,$2,$3*
1,1,$1+$1,$4,$5*
1,1,$1+$1,$6,$7*
1,1,$1+$1,$8,$9*
0 Add four rect primitives between the rounded corners*
20,1,$1+$1,$2,$3,$4,$5,0*
20,1,$1+$1,$4,$5,$6,$7,0*
20,1,$1+$1,$6,$7,$8,$9,0*
20,1,$1+$1,$8,$9,$2,$3,0*%
G04 Aperture macros list end*
%ADD10C,0.150000*%
%ADD11C,0.180000*%
%ADD12C,0.120000*%
%ADD13C,0.250000*%
%ADD14C,0.060000*%
%ADD15C,0.000000*%
%ADD16C,0.300000*%
%ADD17C,2.500000*%
%ADD18C,2.000000*%
%ADD19R,0.600000X0.600000*%
%ADD20RoundRect,0.250000X-0.375000X-0.625000X0.375000X-0.625000X0.375000X0.625000X-0.375000X0.625000X0*%
%ADD21R,1.700000X1.700000*%
%ADD22C,1.700000*%
%ADD23R,3.000000X3.000000*%
%ADD24C,3.000000*%
%ADD25RoundRect,0.200000X-0.200000X-0.275000X0.200000X-0.275000X0.200000X0.275000X-0.200000X0.275000X0*%
%ADD26RoundRect,0.250000X-0.250000X-0.475000X0.250000X-0.475000X0.250000X0.475000X-0.250000X0.475000X0*%
%ADD27RoundRect,0.150000X-0.825000X-0.150000X0.825000X-0.150000X0.825000X0.150000X-0.825000X0.150000X0*%
%ADD28RoundRect,0.150000X0.150000X-0.825000X0.150000X0.825000X-0.150000X0.825000X-0.150000X-0.825000X0*%
%ADD29RoundRect,0.225000X-0.225000X-0.250000X0.225000X-0.250000X0.225000X0.250000X-0.225000X0.250000X0*%
%ADD30RoundRect,0.250000X-1.000000X-0.900000X1.000000X-0.900000X1.000000X0.900000X-1.000000X0.900000X0*%
%ADD31RoundRect,0.500000X-0.875000X-0.500000X0.875000X-0.500000X0.875000X0.500000X-0.875000X0.500000X0*%
%ADD32RoundRect,0.275000X-0.275000X0.975000X-0.275000X-0.975000X0.275000X-0.975000X0.275000X0.975000X0*%
%ADD33R,0.700000X1.270000*%
%ADD34R,0.700000X1.000000*%
%ADD35R,4.900000X4.500000*%
%ADD36RoundRect,0.275000X-2.025000X-0.275000X2.025000X-0.275000X2.025000X0.275000X-2.025000X0.275000X0*%
%ADD37RoundRect,0.250000X-4.450000X-5.150000X4.450000X-5.150000X4.450000X5.150000X-4.450000X5.150000X0*%
%ADD38O,0.364000X1.662000*%
%ADD39RoundRect,0.250000X-0.325000X-0.650000X0.325000X-0.650000X0.325000X0.650000X-0.325000X0.650000X0*%
%ADD40RoundRect,0.150000X-0.587500X-0.150000X0.587500X-0.150000X0.587500X0.150000X-0.587500X0.150000X0*%
%ADD41C,3.200000*%
%ADD42RoundRect,0.250000X-0.312500X-1.450000X0.312500X-1.450000X0.312500X1.450000X-0.312500X1.450000X0*%
%ADD43RoundRect,0.250000X-0.750000X-0.650000X0.750000X-0.650000X0.750000X0.650000X-0.750000X0.650000X0*%
%ADD44RoundRect,0.150000X-0.512500X-0.150000X0.512500X-0.150000X0.512500X0.150000X-0.512500X0.150000X0*%
%ADD45RoundRect,0.250000X-0.750000X-0.750000X0.750000X-0.750000X0.750000X0.750000X-0.750000X0.750000X0*%
%ADD46RoundRect,0.250000X-0.550000X-0.550000X0.550000X-0.550000X0.550000X0.550000X-0.550000X0.550000X0*%
%ADD47C,1.600000*%
%ADD48RoundRect,0.250000X-0.262500X-0.450000X0.262500X-0.450000X0.262500X0.450000X-0.262500X0.450000X0*%
G04 APERTURE END LIST*
D10*
X172362295Y-61209524D02*
X172362295Y-61666667D01*
X172362295Y-61438095D02*
X171562295Y-61438095D01*
X171562295Y-61438095D02*
X171676580Y-61514286D01*
X171676580Y-61514286D02*
X171752771Y-61590476D01*
X171752771Y-61590476D02*
X171790866Y-61666667D01*
X171638485Y-60904762D02*
X171600390Y-60866666D01*
X171600390Y-60866666D02*
X171562295Y-60790476D01*
X171562295Y-60790476D02*
X171562295Y-60600000D01*
X171562295Y-60600000D02*
X171600390Y-60523809D01*
X171600390Y-60523809D02*
X171638485Y-60485714D01*
X171638485Y-60485714D02*
X171714676Y-60447619D01*
X171714676Y-60447619D02*
X171790866Y-60447619D01*
X171790866Y-60447619D02*
X171905152Y-60485714D01*
X171905152Y-60485714D02*
X172362295Y-60942857D01*
X172362295Y-60942857D02*
X172362295Y-60447619D01*
X171562295Y-60219047D02*
X172362295Y-59952380D01*
X172362295Y-59952380D02*
X171562295Y-59685714D01*
X171524200Y-58238095D02*
X172552771Y-58923809D01*
X171828961Y-56752381D02*
X172057533Y-57361904D01*
X172057533Y-57361904D02*
X172286104Y-56752381D01*
X172362295Y-55952381D02*
X172362295Y-56409524D01*
X172362295Y-56180952D02*
X171562295Y-56180952D01*
X171562295Y-56180952D02*
X171676580Y-56257143D01*
X171676580Y-56257143D02*
X171752771Y-56333333D01*
X171752771Y-56333333D02*
X171790866Y-56409524D01*
X171562295Y-55457142D02*
X171562295Y-55380952D01*
X171562295Y-55380952D02*
X171600390Y-55304761D01*
X171600390Y-55304761D02*
X171638485Y-55266666D01*
X171638485Y-55266666D02*
X171714676Y-55228571D01*
X171714676Y-55228571D02*
X171867057Y-55190476D01*
X171867057Y-55190476D02*
X172057533Y-55190476D01*
X172057533Y-55190476D02*
X172209914Y-55228571D01*
X172209914Y-55228571D02*
X172286104Y-55266666D01*
X172286104Y-55266666D02*
X172324200Y-55304761D01*
X172324200Y-55304761D02*
X172362295Y-55380952D01*
X172362295Y-55380952D02*
X172362295Y-55457142D01*
X172362295Y-55457142D02*
X172324200Y-55533333D01*
X172324200Y-55533333D02*
X172286104Y-55571428D01*
X172286104Y-55571428D02*
X172209914Y-55609523D01*
X172209914Y-55609523D02*
X172057533Y-55647619D01*
X172057533Y-55647619D02*
X171867057Y-55647619D01*
X171867057Y-55647619D02*
X171714676Y-55609523D01*
X171714676Y-55609523D02*
X171638485Y-55571428D01*
X171638485Y-55571428D02*
X171600390Y-55533333D01*
X171600390Y-55533333D02*
X171562295Y-55457142D01*
X171562295Y-54695237D02*
X171562295Y-54619047D01*
X171562295Y-54619047D02*
X171600390Y-54542856D01*
X171600390Y-54542856D02*
X171638485Y-54504761D01*
X171638485Y-54504761D02*
X171714676Y-54466666D01*
X171714676Y-54466666D02*
X171867057Y-54428571D01*
X171867057Y-54428571D02*
X172057533Y-54428571D01*
X172057533Y-54428571D02*
X172209914Y-54466666D01*
X172209914Y-54466666D02*
X172286104Y-54504761D01*
X172286104Y-54504761D02*
X172324200Y-54542856D01*
X172324200Y-54542856D02*
X172362295Y-54619047D01*
X172362295Y-54619047D02*
X172362295Y-54695237D01*
X172362295Y-54695237D02*
X172324200Y-54771428D01*
X172324200Y-54771428D02*
X172286104Y-54809523D01*
X172286104Y-54809523D02*
X172209914Y-54847618D01*
X172209914Y-54847618D02*
X172057533Y-54885714D01*
X172057533Y-54885714D02*
X171867057Y-54885714D01*
X171867057Y-54885714D02*
X171714676Y-54847618D01*
X171714676Y-54847618D02*
X171638485Y-54809523D01*
X171638485Y-54809523D02*
X171600390Y-54771428D01*
X171600390Y-54771428D02*
X171562295Y-54695237D01*
X171562295Y-54161904D02*
X172362295Y-53971428D01*
X172362295Y-53971428D02*
X171790866Y-53819047D01*
X171790866Y-53819047D02*
X172362295Y-53666666D01*
X172362295Y-53666666D02*
X171562295Y-53476190D01*
X171524200Y-51990475D02*
X172552771Y-52676189D01*
X172362295Y-51114284D02*
X171562295Y-51114284D01*
X171562295Y-51114284D02*
X172133723Y-50847618D01*
X172133723Y-50847618D02*
X171562295Y-50580951D01*
X171562295Y-50580951D02*
X172362295Y-50580951D01*
X172133723Y-50238094D02*
X172133723Y-49857141D01*
X172362295Y-50314284D02*
X171562295Y-50047617D01*
X171562295Y-50047617D02*
X172362295Y-49780951D01*
X171562295Y-49590475D02*
X172362295Y-49057141D01*
X171562295Y-49057141D02*
X172362295Y-49590475D01*
X171638485Y-48790475D02*
X171600390Y-48752379D01*
X171600390Y-48752379D02*
X171562295Y-48676189D01*
X171562295Y-48676189D02*
X171562295Y-48485713D01*
X171562295Y-48485713D02*
X171600390Y-48409522D01*
X171600390Y-48409522D02*
X171638485Y-48371427D01*
X171638485Y-48371427D02*
X171714676Y-48333332D01*
X171714676Y-48333332D02*
X171790866Y-48333332D01*
X171790866Y-48333332D02*
X171905152Y-48371427D01*
X171905152Y-48371427D02*
X172362295Y-48828570D01*
X172362295Y-48828570D02*
X172362295Y-48333332D01*
X16328572Y-87508557D02*
X16500000Y-87508557D01*
X16500000Y-87508557D02*
X16585715Y-87551414D01*
X16585715Y-87551414D02*
X16671429Y-87637128D01*
X16671429Y-87637128D02*
X16714286Y-87808557D01*
X16714286Y-87808557D02*
X16714286Y-88108557D01*
X16714286Y-88108557D02*
X16671429Y-88279985D01*
X16671429Y-88279985D02*
X16585715Y-88365700D01*
X16585715Y-88365700D02*
X16500000Y-88408557D01*
X16500000Y-88408557D02*
X16328572Y-88408557D01*
X16328572Y-88408557D02*
X16242858Y-88365700D01*
X16242858Y-88365700D02*
X16157143Y-88279985D01*
X16157143Y-88279985D02*
X16114286Y-88108557D01*
X16114286Y-88108557D02*
X16114286Y-87808557D01*
X16114286Y-87808557D02*
X16157143Y-87637128D01*
X16157143Y-87637128D02*
X16242858Y-87551414D01*
X16242858Y-87551414D02*
X16328572Y-87508557D01*
X17100000Y-87508557D02*
X17100000Y-88237128D01*
X17100000Y-88237128D02*
X17142857Y-88322842D01*
X17142857Y-88322842D02*
X17185715Y-88365700D01*
X17185715Y-88365700D02*
X17271429Y-88408557D01*
X17271429Y-88408557D02*
X17442857Y-88408557D01*
X17442857Y-88408557D02*
X17528572Y-88365700D01*
X17528572Y-88365700D02*
X17571429Y-88322842D01*
X17571429Y-88322842D02*
X17614286Y-88237128D01*
X17614286Y-88237128D02*
X17614286Y-87508557D01*
X17914286Y-87508557D02*
X18428572Y-87508557D01*
X18171429Y-88408557D02*
X18171429Y-87508557D01*
X19885714Y-88408557D02*
X19371428Y-88408557D01*
X19628571Y-88408557D02*
X19628571Y-87508557D01*
X19628571Y-87508557D02*
X19542857Y-87637128D01*
X19542857Y-87637128D02*
X19457142Y-87722842D01*
X19457142Y-87722842D02*
X19371428Y-87765700D01*
X52328572Y-87508557D02*
X52500000Y-87508557D01*
X52500000Y-87508557D02*
X52585715Y-87551414D01*
X52585715Y-87551414D02*
X52671429Y-87637128D01*
X52671429Y-87637128D02*
X52714286Y-87808557D01*
X52714286Y-87808557D02*
X52714286Y-88108557D01*
X52714286Y-88108557D02*
X52671429Y-88279985D01*
X52671429Y-88279985D02*
X52585715Y-88365700D01*
X52585715Y-88365700D02*
X52500000Y-88408557D01*
X52500000Y-88408557D02*
X52328572Y-88408557D01*
X52328572Y-88408557D02*
X52242858Y-88365700D01*
X52242858Y-88365700D02*
X52157143Y-88279985D01*
X52157143Y-88279985D02*
X52114286Y-88108557D01*
X52114286Y-88108557D02*
X52114286Y-87808557D01*
X52114286Y-87808557D02*
X52157143Y-87637128D01*
X52157143Y-87637128D02*
X52242858Y-87551414D01*
X52242858Y-87551414D02*
X52328572Y-87508557D01*
X53100000Y-87508557D02*
X53100000Y-88237128D01*
X53100000Y-88237128D02*
X53142857Y-88322842D01*
X53142857Y-88322842D02*
X53185715Y-88365700D01*
X53185715Y-88365700D02*
X53271429Y-88408557D01*
X53271429Y-88408557D02*
X53442857Y-88408557D01*
X53442857Y-88408557D02*
X53528572Y-88365700D01*
X53528572Y-88365700D02*
X53571429Y-88322842D01*
X53571429Y-88322842D02*
X53614286Y-88237128D01*
X53614286Y-88237128D02*
X53614286Y-87508557D01*
X53914286Y-87508557D02*
X54428572Y-87508557D01*
X54171429Y-88408557D02*
X54171429Y-87508557D01*
X55371428Y-87594271D02*
X55414285Y-87551414D01*
X55414285Y-87551414D02*
X55500000Y-87508557D01*
X55500000Y-87508557D02*
X55714285Y-87508557D01*
X55714285Y-87508557D02*
X55800000Y-87551414D01*
X55800000Y-87551414D02*
X55842857Y-87594271D01*
X55842857Y-87594271D02*
X55885714Y-87679985D01*
X55885714Y-87679985D02*
X55885714Y-87765700D01*
X55885714Y-87765700D02*
X55842857Y-87894271D01*
X55842857Y-87894271D02*
X55328571Y-88408557D01*
X55328571Y-88408557D02*
X55885714Y-88408557D01*
X66585714Y-17408557D02*
X66285714Y-16979985D01*
X66071428Y-17408557D02*
X66071428Y-16508557D01*
X66071428Y-16508557D02*
X66414285Y-16508557D01*
X66414285Y-16508557D02*
X66500000Y-16551414D01*
X66500000Y-16551414D02*
X66542857Y-16594271D01*
X66542857Y-16594271D02*
X66585714Y-16679985D01*
X66585714Y-16679985D02*
X66585714Y-16808557D01*
X66585714Y-16808557D02*
X66542857Y-16894271D01*
X66542857Y-16894271D02*
X66500000Y-16937128D01*
X66500000Y-16937128D02*
X66414285Y-16979985D01*
X66414285Y-16979985D02*
X66071428Y-16979985D01*
X66928571Y-17365700D02*
X67057143Y-17408557D01*
X67057143Y-17408557D02*
X67271428Y-17408557D01*
X67271428Y-17408557D02*
X67357143Y-17365700D01*
X67357143Y-17365700D02*
X67400000Y-17322842D01*
X67400000Y-17322842D02*
X67442857Y-17237128D01*
X67442857Y-17237128D02*
X67442857Y-17151414D01*
X67442857Y-17151414D02*
X67400000Y-17065700D01*
X67400000Y-17065700D02*
X67357143Y-17022842D01*
X67357143Y-17022842D02*
X67271428Y-16979985D01*
X67271428Y-16979985D02*
X67100000Y-16937128D01*
X67100000Y-16937128D02*
X67014285Y-16894271D01*
X67014285Y-16894271D02*
X66971428Y-16851414D01*
X66971428Y-16851414D02*
X66928571Y-16765700D01*
X66928571Y-16765700D02*
X66928571Y-16679985D01*
X66928571Y-16679985D02*
X66971428Y-16594271D01*
X66971428Y-16594271D02*
X67014285Y-16551414D01*
X67014285Y-16551414D02*
X67100000Y-16508557D01*
X67100000Y-16508557D02*
X67314285Y-16508557D01*
X67314285Y-16508557D02*
X67442857Y-16551414D01*
X68214286Y-16808557D02*
X68214286Y-17408557D01*
X68000000Y-16465700D02*
X67785714Y-17108557D01*
X67785714Y-17108557D02*
X68342857Y-17108557D01*
X68814286Y-16894271D02*
X68728571Y-16851414D01*
X68728571Y-16851414D02*
X68685714Y-16808557D01*
X68685714Y-16808557D02*
X68642857Y-16722842D01*
X68642857Y-16722842D02*
X68642857Y-16679985D01*
X68642857Y-16679985D02*
X68685714Y-16594271D01*
X68685714Y-16594271D02*
X68728571Y-16551414D01*
X68728571Y-16551414D02*
X68814286Y-16508557D01*
X68814286Y-16508557D02*
X68985714Y-16508557D01*
X68985714Y-16508557D02*
X69071429Y-16551414D01*
X69071429Y-16551414D02*
X69114286Y-16594271D01*
X69114286Y-16594271D02*
X69157143Y-16679985D01*
X69157143Y-16679985D02*
X69157143Y-16722842D01*
X69157143Y-16722842D02*
X69114286Y-16808557D01*
X69114286Y-16808557D02*
X69071429Y-16851414D01*
X69071429Y-16851414D02*
X68985714Y-16894271D01*
X68985714Y-16894271D02*
X68814286Y-16894271D01*
X68814286Y-16894271D02*
X68728571Y-16937128D01*
X68728571Y-16937128D02*
X68685714Y-16979985D01*
X68685714Y-16979985D02*
X68642857Y-17065700D01*
X68642857Y-17065700D02*
X68642857Y-17237128D01*
X68642857Y-17237128D02*
X68685714Y-17322842D01*
X68685714Y-17322842D02*
X68728571Y-17365700D01*
X68728571Y-17365700D02*
X68814286Y-17408557D01*
X68814286Y-17408557D02*
X68985714Y-17408557D01*
X68985714Y-17408557D02*
X69071429Y-17365700D01*
X69071429Y-17365700D02*
X69114286Y-17322842D01*
X69114286Y-17322842D02*
X69157143Y-17237128D01*
X69157143Y-17237128D02*
X69157143Y-17065700D01*
X69157143Y-17065700D02*
X69114286Y-16979985D01*
X69114286Y-16979985D02*
X69071429Y-16937128D01*
X69071429Y-16937128D02*
X68985714Y-16894271D01*
X69971429Y-16508557D02*
X69542857Y-16508557D01*
X69542857Y-16508557D02*
X69500000Y-16937128D01*
X69500000Y-16937128D02*
X69542857Y-16894271D01*
X69542857Y-16894271D02*
X69628572Y-16851414D01*
X69628572Y-16851414D02*
X69842857Y-16851414D01*
X69842857Y-16851414D02*
X69928572Y-16894271D01*
X69928572Y-16894271D02*
X69971429Y-16937128D01*
X69971429Y-16937128D02*
X70014286Y-17022842D01*
X70014286Y-17022842D02*
X70014286Y-17237128D01*
X70014286Y-17237128D02*
X69971429Y-17322842D01*
X69971429Y-17322842D02*
X69928572Y-17365700D01*
X69928572Y-17365700D02*
X69842857Y-17408557D01*
X69842857Y-17408557D02*
X69628572Y-17408557D01*
X69628572Y-17408557D02*
X69542857Y-17365700D01*
X69542857Y-17365700D02*
X69500000Y-17322842D01*
X71728571Y-16465700D02*
X70957143Y-17622842D01*
X73014285Y-16937128D02*
X72714285Y-16937128D01*
X72714285Y-17408557D02*
X72714285Y-16508557D01*
X72714285Y-16508557D02*
X73142857Y-16508557D01*
X73485714Y-17408557D02*
X73485714Y-16508557D01*
X73914285Y-16937128D02*
X74214285Y-16937128D01*
X74342857Y-17408557D02*
X73914285Y-17408557D01*
X73914285Y-17408557D02*
X73914285Y-16508557D01*
X73914285Y-16508557D02*
X74342857Y-16508557D01*
X75157143Y-17408557D02*
X74728571Y-17408557D01*
X74728571Y-17408557D02*
X74728571Y-16508557D01*
X75457142Y-17408557D02*
X75457142Y-16508557D01*
X75457142Y-16508557D02*
X75671428Y-16508557D01*
X75671428Y-16508557D02*
X75799999Y-16551414D01*
X75799999Y-16551414D02*
X75885714Y-16637128D01*
X75885714Y-16637128D02*
X75928571Y-16722842D01*
X75928571Y-16722842D02*
X75971428Y-16894271D01*
X75971428Y-16894271D02*
X75971428Y-17022842D01*
X75971428Y-17022842D02*
X75928571Y-17194271D01*
X75928571Y-17194271D02*
X75885714Y-17279985D01*
X75885714Y-17279985D02*
X75799999Y-17365700D01*
X75799999Y-17365700D02*
X75671428Y-17408557D01*
X75671428Y-17408557D02*
X75457142Y-17408557D01*
X88328572Y-87508557D02*
X88500000Y-87508557D01*
X88500000Y-87508557D02*
X88585715Y-87551414D01*
X88585715Y-87551414D02*
X88671429Y-87637128D01*
X88671429Y-87637128D02*
X88714286Y-87808557D01*
X88714286Y-87808557D02*
X88714286Y-88108557D01*
X88714286Y-88108557D02*
X88671429Y-88279985D01*
X88671429Y-88279985D02*
X88585715Y-88365700D01*
X88585715Y-88365700D02*
X88500000Y-88408557D01*
X88500000Y-88408557D02*
X88328572Y-88408557D01*
X88328572Y-88408557D02*
X88242858Y-88365700D01*
X88242858Y-88365700D02*
X88157143Y-88279985D01*
X88157143Y-88279985D02*
X88114286Y-88108557D01*
X88114286Y-88108557D02*
X88114286Y-87808557D01*
X88114286Y-87808557D02*
X88157143Y-87637128D01*
X88157143Y-87637128D02*
X88242858Y-87551414D01*
X88242858Y-87551414D02*
X88328572Y-87508557D01*
X89100000Y-87508557D02*
X89100000Y-88237128D01*
X89100000Y-88237128D02*
X89142857Y-88322842D01*
X89142857Y-88322842D02*
X89185715Y-88365700D01*
X89185715Y-88365700D02*
X89271429Y-88408557D01*
X89271429Y-88408557D02*
X89442857Y-88408557D01*
X89442857Y-88408557D02*
X89528572Y-88365700D01*
X89528572Y-88365700D02*
X89571429Y-88322842D01*
X89571429Y-88322842D02*
X89614286Y-88237128D01*
X89614286Y-88237128D02*
X89614286Y-87508557D01*
X89914286Y-87508557D02*
X90428572Y-87508557D01*
X90171429Y-88408557D02*
X90171429Y-87508557D01*
X91328571Y-87508557D02*
X91885714Y-87508557D01*
X91885714Y-87508557D02*
X91585714Y-87851414D01*
X91585714Y-87851414D02*
X91714285Y-87851414D01*
X91714285Y-87851414D02*
X91800000Y-87894271D01*
X91800000Y-87894271D02*
X91842857Y-87937128D01*
X91842857Y-87937128D02*
X91885714Y-88022842D01*
X91885714Y-88022842D02*
X91885714Y-88237128D01*
X91885714Y-88237128D02*
X91842857Y-88322842D01*
X91842857Y-88322842D02*
X91800000Y-88365700D01*
X91800000Y-88365700D02*
X91714285Y-88408557D01*
X91714285Y-88408557D02*
X91457142Y-88408557D01*
X91457142Y-88408557D02*
X91371428Y-88365700D01*
X91371428Y-88365700D02*
X91328571Y-88322842D01*
X124328572Y-87508557D02*
X124500000Y-87508557D01*
X124500000Y-87508557D02*
X124585715Y-87551414D01*
X124585715Y-87551414D02*
X124671429Y-87637128D01*
X124671429Y-87637128D02*
X124714286Y-87808557D01*
X124714286Y-87808557D02*
X124714286Y-88108557D01*
X124714286Y-88108557D02*
X124671429Y-88279985D01*
X124671429Y-88279985D02*
X124585715Y-88365700D01*
X124585715Y-88365700D02*
X124500000Y-88408557D01*
X124500000Y-88408557D02*
X124328572Y-88408557D01*
X124328572Y-88408557D02*
X124242858Y-88365700D01*
X124242858Y-88365700D02*
X124157143Y-88279985D01*
X124157143Y-88279985D02*
X124114286Y-88108557D01*
X124114286Y-88108557D02*
X124114286Y-87808557D01*
X124114286Y-87808557D02*
X124157143Y-87637128D01*
X124157143Y-87637128D02*
X124242858Y-87551414D01*
X124242858Y-87551414D02*
X124328572Y-87508557D01*
X125100000Y-87508557D02*
X125100000Y-88237128D01*
X125100000Y-88237128D02*
X125142857Y-88322842D01*
X125142857Y-88322842D02*
X125185715Y-88365700D01*
X125185715Y-88365700D02*
X125271429Y-88408557D01*
X125271429Y-88408557D02*
X125442857Y-88408557D01*
X125442857Y-88408557D02*
X125528572Y-88365700D01*
X125528572Y-88365700D02*
X125571429Y-88322842D01*
X125571429Y-88322842D02*
X125614286Y-88237128D01*
X125614286Y-88237128D02*
X125614286Y-87508557D01*
X125914286Y-87508557D02*
X126428572Y-87508557D01*
X126171429Y-88408557D02*
X126171429Y-87508557D01*
X127800000Y-87808557D02*
X127800000Y-88408557D01*
X127585714Y-87465700D02*
X127371428Y-88108557D01*
X127371428Y-88108557D02*
X127928571Y-88108557D01*
X141114285Y-16865700D02*
X141242857Y-16908557D01*
X141242857Y-16908557D02*
X141457142Y-16908557D01*
X141457142Y-16908557D02*
X141542857Y-16865700D01*
X141542857Y-16865700D02*
X141585714Y-16822842D01*
X141585714Y-16822842D02*
X141628571Y-16737128D01*
X141628571Y-16737128D02*
X141628571Y-16651414D01*
X141628571Y-16651414D02*
X141585714Y-16565700D01*
X141585714Y-16565700D02*
X141542857Y-16522842D01*
X141542857Y-16522842D02*
X141457142Y-16479985D01*
X141457142Y-16479985D02*
X141285714Y-16437128D01*
X141285714Y-16437128D02*
X141199999Y-16394271D01*
X141199999Y-16394271D02*
X141157142Y-16351414D01*
X141157142Y-16351414D02*
X141114285Y-16265700D01*
X141114285Y-16265700D02*
X141114285Y-16179985D01*
X141114285Y-16179985D02*
X141157142Y-16094271D01*
X141157142Y-16094271D02*
X141199999Y-16051414D01*
X141199999Y-16051414D02*
X141285714Y-16008557D01*
X141285714Y-16008557D02*
X141499999Y-16008557D01*
X141499999Y-16008557D02*
X141628571Y-16051414D01*
X141971428Y-16651414D02*
X142400000Y-16651414D01*
X141885714Y-16908557D02*
X142185714Y-16008557D01*
X142185714Y-16008557D02*
X142485714Y-16908557D01*
X143085714Y-16437128D02*
X142785714Y-16437128D01*
X142785714Y-16908557D02*
X142785714Y-16008557D01*
X142785714Y-16008557D02*
X143214286Y-16008557D01*
X143557143Y-16437128D02*
X143857143Y-16437128D01*
X143985715Y-16908557D02*
X143557143Y-16908557D01*
X143557143Y-16908557D02*
X143557143Y-16008557D01*
X143557143Y-16008557D02*
X143985715Y-16008557D01*
X144242858Y-16008557D02*
X144757144Y-16008557D01*
X144500001Y-16908557D02*
X144500001Y-16008557D01*
X145228572Y-16479985D02*
X145228572Y-16908557D01*
X144928572Y-16008557D02*
X145228572Y-16479985D01*
X145228572Y-16479985D02*
X145528572Y-16008557D01*
X146514286Y-16908557D02*
X146514286Y-16008557D01*
X146942857Y-16908557D02*
X146942857Y-16008557D01*
X146942857Y-16008557D02*
X147457143Y-16908557D01*
X147457143Y-16908557D02*
X147457143Y-16008557D01*
X147885714Y-16908557D02*
X147885714Y-16008557D01*
X147885714Y-16008557D02*
X148228571Y-16008557D01*
X148228571Y-16008557D02*
X148314286Y-16051414D01*
X148314286Y-16051414D02*
X148357143Y-16094271D01*
X148357143Y-16094271D02*
X148400000Y-16179985D01*
X148400000Y-16179985D02*
X148400000Y-16308557D01*
X148400000Y-16308557D02*
X148357143Y-16394271D01*
X148357143Y-16394271D02*
X148314286Y-16437128D01*
X148314286Y-16437128D02*
X148228571Y-16479985D01*
X148228571Y-16479985D02*
X147885714Y-16479985D01*
X148785714Y-16008557D02*
X148785714Y-16737128D01*
X148785714Y-16737128D02*
X148828571Y-16822842D01*
X148828571Y-16822842D02*
X148871429Y-16865700D01*
X148871429Y-16865700D02*
X148957143Y-16908557D01*
X148957143Y-16908557D02*
X149128571Y-16908557D01*
X149128571Y-16908557D02*
X149214286Y-16865700D01*
X149214286Y-16865700D02*
X149257143Y-16822842D01*
X149257143Y-16822842D02*
X149300000Y-16737128D01*
X149300000Y-16737128D02*
X149300000Y-16008557D01*
X149600000Y-16008557D02*
X150114286Y-16008557D01*
X149857143Y-16908557D02*
X149857143Y-16008557D01*
X150371428Y-16865700D02*
X150500000Y-16908557D01*
X150500000Y-16908557D02*
X150714285Y-16908557D01*
X150714285Y-16908557D02*
X150800000Y-16865700D01*
X150800000Y-16865700D02*
X150842857Y-16822842D01*
X150842857Y-16822842D02*
X150885714Y-16737128D01*
X150885714Y-16737128D02*
X150885714Y-16651414D01*
X150885714Y-16651414D02*
X150842857Y-16565700D01*
X150842857Y-16565700D02*
X150800000Y-16522842D01*
X150800000Y-16522842D02*
X150714285Y-16479985D01*
X150714285Y-16479985D02*
X150542857Y-16437128D01*
X150542857Y-16437128D02*
X150457142Y-16394271D01*
X150457142Y-16394271D02*
X150414285Y-16351414D01*
X150414285Y-16351414D02*
X150371428Y-16265700D01*
X150371428Y-16265700D02*
X150371428Y-16179985D01*
X150371428Y-16179985D02*
X150414285Y-16094271D01*
X150414285Y-16094271D02*
X150457142Y-16051414D01*
X150457142Y-16051414D02*
X150542857Y-16008557D01*
X150542857Y-16008557D02*
X150757142Y-16008557D01*
X150757142Y-16008557D02*
X150885714Y-16051414D01*
X160328572Y-87508557D02*
X160500000Y-87508557D01*
X160500000Y-87508557D02*
X160585715Y-87551414D01*
X160585715Y-87551414D02*
X160671429Y-87637128D01*
X160671429Y-87637128D02*
X160714286Y-87808557D01*
X160714286Y-87808557D02*
X160714286Y-88108557D01*
X160714286Y-88108557D02*
X160671429Y-88279985D01*
X160671429Y-88279985D02*
X160585715Y-88365700D01*
X160585715Y-88365700D02*
X160500000Y-88408557D01*
X160500000Y-88408557D02*
X160328572Y-88408557D01*
X160328572Y-88408557D02*
X160242858Y-88365700D01*
X160242858Y-88365700D02*
X160157143Y-88279985D01*
X160157143Y-88279985D02*
X160114286Y-88108557D01*
X160114286Y-88108557D02*
X160114286Y-87808557D01*
X160114286Y-87808557D02*
X160157143Y-87637128D01*
X160157143Y-87637128D02*
X160242858Y-87551414D01*
X160242858Y-87551414D02*
X160328572Y-87508557D01*
X161100000Y-87508557D02*
X161100000Y-88237128D01*
X161100000Y-88237128D02*
X161142857Y-88322842D01*
X161142857Y-88322842D02*
X161185715Y-88365700D01*
X161185715Y-88365700D02*
X161271429Y-88408557D01*
X161271429Y-88408557D02*
X161442857Y-88408557D01*
X161442857Y-88408557D02*
X161528572Y-88365700D01*
X161528572Y-88365700D02*
X161571429Y-88322842D01*
X161571429Y-88322842D02*
X161614286Y-88237128D01*
X161614286Y-88237128D02*
X161614286Y-87508557D01*
X161914286Y-87508557D02*
X162428572Y-87508557D01*
X162171429Y-88408557D02*
X162171429Y-87508557D01*
X163842857Y-87508557D02*
X163414285Y-87508557D01*
X163414285Y-87508557D02*
X163371428Y-87937128D01*
X163371428Y-87937128D02*
X163414285Y-87894271D01*
X163414285Y-87894271D02*
X163500000Y-87851414D01*
X163500000Y-87851414D02*
X163714285Y-87851414D01*
X163714285Y-87851414D02*
X163800000Y-87894271D01*
X163800000Y-87894271D02*
X163842857Y-87937128D01*
X163842857Y-87937128D02*
X163885714Y-88022842D01*
X163885714Y-88022842D02*
X163885714Y-88237128D01*
X163885714Y-88237128D02*
X163842857Y-88322842D01*
X163842857Y-88322842D02*
X163800000Y-88365700D01*
X163800000Y-88365700D02*
X163714285Y-88408557D01*
X163714285Y-88408557D02*
X163500000Y-88408557D01*
X163500000Y-88408557D02*
X163414285Y-88365700D01*
X163414285Y-88365700D02*
X163371428Y-88322842D01*
X18547619Y-28954819D02*
X18547619Y-27954819D01*
X18547619Y-27954819D02*
X18928571Y-27954819D01*
X18928571Y-27954819D02*
X19023809Y-28002438D01*
X19023809Y-28002438D02*
X19071428Y-28050057D01*
X19071428Y-28050057D02*
X19119047Y-28145295D01*
X19119047Y-28145295D02*
X19119047Y-28288152D01*
X19119047Y-28288152D02*
X19071428Y-28383390D01*
X19071428Y-28383390D02*
X19023809Y-28431009D01*
X19023809Y-28431009D02*
X18928571Y-28478628D01*
X18928571Y-28478628D02*
X18547619Y-28478628D01*
X19738095Y-27954819D02*
X19928571Y-27954819D01*
X19928571Y-27954819D02*
X20023809Y-28002438D01*
X20023809Y-28002438D02*
X20119047Y-28097676D01*
X20119047Y-28097676D02*
X20166666Y-28288152D01*
X20166666Y-28288152D02*
X20166666Y-28621485D01*
X20166666Y-28621485D02*
X20119047Y-28811961D01*
X20119047Y-28811961D02*
X20023809Y-28907200D01*
X20023809Y-28907200D02*
X19928571Y-28954819D01*
X19928571Y-28954819D02*
X19738095Y-28954819D01*
X19738095Y-28954819D02*
X19642857Y-28907200D01*
X19642857Y-28907200D02*
X19547619Y-28811961D01*
X19547619Y-28811961D02*
X19500000Y-28621485D01*
X19500000Y-28621485D02*
X19500000Y-28288152D01*
X19500000Y-28288152D02*
X19547619Y-28097676D01*
X19547619Y-28097676D02*
X19642857Y-28002438D01*
X19642857Y-28002438D02*
X19738095Y-27954819D01*
X20500000Y-27954819D02*
X20738095Y-28954819D01*
X20738095Y-28954819D02*
X20928571Y-28240533D01*
X20928571Y-28240533D02*
X21119047Y-28954819D01*
X21119047Y-28954819D02*
X21357143Y-27954819D01*
X21738095Y-28431009D02*
X22071428Y-28431009D01*
X22214285Y-28954819D02*
X21738095Y-28954819D01*
X21738095Y-28954819D02*
X21738095Y-27954819D01*
X21738095Y-27954819D02*
X22214285Y-27954819D01*
X23214285Y-28954819D02*
X22880952Y-28478628D01*
X22642857Y-28954819D02*
X22642857Y-27954819D01*
X22642857Y-27954819D02*
X23023809Y-27954819D01*
X23023809Y-27954819D02*
X23119047Y-28002438D01*
X23119047Y-28002438D02*
X23166666Y-28050057D01*
X23166666Y-28050057D02*
X23214285Y-28145295D01*
X23214285Y-28145295D02*
X23214285Y-28288152D01*
X23214285Y-28288152D02*
X23166666Y-28383390D01*
X23166666Y-28383390D02*
X23119047Y-28431009D01*
X23119047Y-28431009D02*
X23023809Y-28478628D01*
X23023809Y-28478628D02*
X22642857Y-28478628D01*
X24404762Y-28954819D02*
X24404762Y-27954819D01*
X24880952Y-28954819D02*
X24880952Y-27954819D01*
X24880952Y-27954819D02*
X25452380Y-28954819D01*
X25452380Y-28954819D02*
X25452380Y-27954819D01*
D11*
X168545782Y-59228570D02*
X167345782Y-59228570D01*
X168545782Y-58657141D02*
X167345782Y-58657141D01*
X167345782Y-58657141D02*
X168545782Y-57971427D01*
X168545782Y-57971427D02*
X167345782Y-57971427D01*
X168202925Y-57457141D02*
X168202925Y-56885713D01*
X168545782Y-57571427D02*
X167345782Y-57171427D01*
X167345782Y-57171427D02*
X168545782Y-56771427D01*
X168545782Y-54771427D02*
X167974354Y-55171427D01*
X168545782Y-55457141D02*
X167345782Y-55457141D01*
X167345782Y-55457141D02*
X167345782Y-54999998D01*
X167345782Y-54999998D02*
X167402925Y-54885713D01*
X167402925Y-54885713D02*
X167460068Y-54828570D01*
X167460068Y-54828570D02*
X167574354Y-54771427D01*
X167574354Y-54771427D02*
X167745782Y-54771427D01*
X167745782Y-54771427D02*
X167860068Y-54828570D01*
X167860068Y-54828570D02*
X167917211Y-54885713D01*
X167917211Y-54885713D02*
X167974354Y-54999998D01*
X167974354Y-54999998D02*
X167974354Y-55457141D01*
X167917211Y-54257141D02*
X167917211Y-53857141D01*
X168545782Y-53685713D02*
X168545782Y-54257141D01*
X168545782Y-54257141D02*
X167345782Y-54257141D01*
X167345782Y-54257141D02*
X167345782Y-53685713D01*
X167345782Y-53342856D02*
X168545782Y-52942856D01*
X168545782Y-52942856D02*
X167345782Y-52542856D01*
X168202925Y-51285713D02*
X168202925Y-50714285D01*
X168545782Y-51399999D02*
X167345782Y-50999999D01*
X167345782Y-50999999D02*
X168545782Y-50599999D01*
D12*
X86323810Y-113678855D02*
X86323810Y-112878855D01*
X86323810Y-112878855D02*
X86590476Y-113450283D01*
X86590476Y-113450283D02*
X86857143Y-112878855D01*
X86857143Y-112878855D02*
X86857143Y-113678855D01*
X87200000Y-113450283D02*
X87580953Y-113450283D01*
X87123810Y-113678855D02*
X87390477Y-112878855D01*
X87390477Y-112878855D02*
X87657143Y-113678855D01*
X87809524Y-112878855D02*
X88266667Y-112878855D01*
X88038095Y-113678855D02*
X88038095Y-112878855D01*
X88533334Y-113678855D02*
X88533334Y-112878855D01*
X88914286Y-113678855D02*
X88914286Y-112878855D01*
X88914286Y-112878855D02*
X89371429Y-113678855D01*
X89371429Y-113678855D02*
X89371429Y-112878855D01*
X90171428Y-112916950D02*
X90095238Y-112878855D01*
X90095238Y-112878855D02*
X89980952Y-112878855D01*
X89980952Y-112878855D02*
X89866666Y-112916950D01*
X89866666Y-112916950D02*
X89790476Y-112993140D01*
X89790476Y-112993140D02*
X89752381Y-113069331D01*
X89752381Y-113069331D02*
X89714285Y-113221712D01*
X89714285Y-113221712D02*
X89714285Y-113335998D01*
X89714285Y-113335998D02*
X89752381Y-113488379D01*
X89752381Y-113488379D02*
X89790476Y-113564569D01*
X89790476Y-113564569D02*
X89866666Y-113640760D01*
X89866666Y-113640760D02*
X89980952Y-113678855D01*
X89980952Y-113678855D02*
X90057143Y-113678855D01*
X90057143Y-113678855D02*
X90171428Y-113640760D01*
X90171428Y-113640760D02*
X90209524Y-113602664D01*
X90209524Y-113602664D02*
X90209524Y-113335998D01*
X90209524Y-113335998D02*
X90057143Y-113335998D01*
X91428571Y-113259807D02*
X91161905Y-113259807D01*
X91161905Y-113678855D02*
X91161905Y-112878855D01*
X91161905Y-112878855D02*
X91542857Y-112878855D01*
X91809523Y-113450283D02*
X92190476Y-113450283D01*
X91733333Y-113678855D02*
X92000000Y-112878855D01*
X92000000Y-112878855D02*
X92266666Y-113678855D01*
X92990476Y-113602664D02*
X92952380Y-113640760D01*
X92952380Y-113640760D02*
X92838095Y-113678855D01*
X92838095Y-113678855D02*
X92761904Y-113678855D01*
X92761904Y-113678855D02*
X92647618Y-113640760D01*
X92647618Y-113640760D02*
X92571428Y-113564569D01*
X92571428Y-113564569D02*
X92533333Y-113488379D01*
X92533333Y-113488379D02*
X92495237Y-113335998D01*
X92495237Y-113335998D02*
X92495237Y-113221712D01*
X92495237Y-113221712D02*
X92533333Y-113069331D01*
X92533333Y-113069331D02*
X92571428Y-112993140D01*
X92571428Y-112993140D02*
X92647618Y-112916950D01*
X92647618Y-112916950D02*
X92761904Y-112878855D01*
X92761904Y-112878855D02*
X92838095Y-112878855D01*
X92838095Y-112878855D02*
X92952380Y-112916950D01*
X92952380Y-112916950D02*
X92990476Y-112955045D01*
X93333333Y-113259807D02*
X93599999Y-113259807D01*
X93714285Y-113678855D02*
X93333333Y-113678855D01*
X93333333Y-113678855D02*
X93333333Y-112878855D01*
X93333333Y-112878855D02*
X93714285Y-112878855D01*
X17023810Y-1773855D02*
X17023810Y-973855D01*
X17023810Y-973855D02*
X17290476Y-1545283D01*
X17290476Y-1545283D02*
X17557143Y-973855D01*
X17557143Y-973855D02*
X17557143Y-1773855D01*
X17900000Y-1545283D02*
X18280953Y-1545283D01*
X17823810Y-1773855D02*
X18090477Y-973855D01*
X18090477Y-973855D02*
X18357143Y-1773855D01*
X18509524Y-973855D02*
X18966667Y-973855D01*
X18738095Y-1773855D02*
X18738095Y-973855D01*
X19233334Y-1773855D02*
X19233334Y-973855D01*
X19614286Y-1773855D02*
X19614286Y-973855D01*
X19614286Y-973855D02*
X20071429Y-1773855D01*
X20071429Y-1773855D02*
X20071429Y-973855D01*
X20871428Y-1011950D02*
X20795238Y-973855D01*
X20795238Y-973855D02*
X20680952Y-973855D01*
X20680952Y-973855D02*
X20566666Y-1011950D01*
X20566666Y-1011950D02*
X20490476Y-1088140D01*
X20490476Y-1088140D02*
X20452381Y-1164331D01*
X20452381Y-1164331D02*
X20414285Y-1316712D01*
X20414285Y-1316712D02*
X20414285Y-1430998D01*
X20414285Y-1430998D02*
X20452381Y-1583379D01*
X20452381Y-1583379D02*
X20490476Y-1659569D01*
X20490476Y-1659569D02*
X20566666Y-1735760D01*
X20566666Y-1735760D02*
X20680952Y-1773855D01*
X20680952Y-1773855D02*
X20757143Y-1773855D01*
X20757143Y-1773855D02*
X20871428Y-1735760D01*
X20871428Y-1735760D02*
X20909524Y-1697664D01*
X20909524Y-1697664D02*
X20909524Y-1430998D01*
X20909524Y-1430998D02*
X20757143Y-1430998D01*
X22128571Y-1354807D02*
X21861905Y-1354807D01*
X21861905Y-1773855D02*
X21861905Y-973855D01*
X21861905Y-973855D02*
X22242857Y-973855D01*
X22509523Y-1545283D02*
X22890476Y-1545283D01*
X22433333Y-1773855D02*
X22700000Y-973855D01*
X22700000Y-973855D02*
X22966666Y-1773855D01*
X23690476Y-1697664D02*
X23652380Y-1735760D01*
X23652380Y-1735760D02*
X23538095Y-1773855D01*
X23538095Y-1773855D02*
X23461904Y-1773855D01*
X23461904Y-1773855D02*
X23347618Y-1735760D01*
X23347618Y-1735760D02*
X23271428Y-1659569D01*
X23271428Y-1659569D02*
X23233333Y-1583379D01*
X23233333Y-1583379D02*
X23195237Y-1430998D01*
X23195237Y-1430998D02*
X23195237Y-1316712D01*
X23195237Y-1316712D02*
X23233333Y-1164331D01*
X23233333Y-1164331D02*
X23271428Y-1088140D01*
X23271428Y-1088140D02*
X23347618Y-1011950D01*
X23347618Y-1011950D02*
X23461904Y-973855D01*
X23461904Y-973855D02*
X23538095Y-973855D01*
X23538095Y-973855D02*
X23652380Y-1011950D01*
X23652380Y-1011950D02*
X23690476Y-1050045D01*
X24033333Y-1354807D02*
X24299999Y-1354807D01*
X24414285Y-1773855D02*
X24033333Y-1773855D01*
X24033333Y-1773855D02*
X24033333Y-973855D01*
X24033333Y-973855D02*
X24414285Y-973855D01*
X158323810Y-113678855D02*
X158323810Y-112878855D01*
X158323810Y-112878855D02*
X158590476Y-113450283D01*
X158590476Y-113450283D02*
X158857143Y-112878855D01*
X158857143Y-112878855D02*
X158857143Y-113678855D01*
X159200000Y-113450283D02*
X159580953Y-113450283D01*
X159123810Y-113678855D02*
X159390477Y-112878855D01*
X159390477Y-112878855D02*
X159657143Y-113678855D01*
X159809524Y-112878855D02*
X160266667Y-112878855D01*
X160038095Y-113678855D02*
X160038095Y-112878855D01*
X160533334Y-113678855D02*
X160533334Y-112878855D01*
X160914286Y-113678855D02*
X160914286Y-112878855D01*
X160914286Y-112878855D02*
X161371429Y-113678855D01*
X161371429Y-113678855D02*
X161371429Y-112878855D01*
X162171428Y-112916950D02*
X162095238Y-112878855D01*
X162095238Y-112878855D02*
X161980952Y-112878855D01*
X161980952Y-112878855D02*
X161866666Y-112916950D01*
X161866666Y-112916950D02*
X161790476Y-112993140D01*
X161790476Y-112993140D02*
X161752381Y-113069331D01*
X161752381Y-113069331D02*
X161714285Y-113221712D01*
X161714285Y-113221712D02*
X161714285Y-113335998D01*
X161714285Y-113335998D02*
X161752381Y-113488379D01*
X161752381Y-113488379D02*
X161790476Y-113564569D01*
X161790476Y-113564569D02*
X161866666Y-113640760D01*
X161866666Y-113640760D02*
X161980952Y-113678855D01*
X161980952Y-113678855D02*
X162057143Y-113678855D01*
X162057143Y-113678855D02*
X162171428Y-113640760D01*
X162171428Y-113640760D02*
X162209524Y-113602664D01*
X162209524Y-113602664D02*
X162209524Y-113335998D01*
X162209524Y-113335998D02*
X162057143Y-113335998D01*
X163428571Y-113259807D02*
X163161905Y-113259807D01*
X163161905Y-113678855D02*
X163161905Y-112878855D01*
X163161905Y-112878855D02*
X163542857Y-112878855D01*
X163809523Y-113450283D02*
X164190476Y-113450283D01*
X163733333Y-113678855D02*
X164000000Y-112878855D01*
X164000000Y-112878855D02*
X164266666Y-113678855D01*
X164990476Y-113602664D02*
X164952380Y-113640760D01*
X164952380Y-113640760D02*
X164838095Y-113678855D01*
X164838095Y-113678855D02*
X164761904Y-113678855D01*
X164761904Y-113678855D02*
X164647618Y-113640760D01*
X164647618Y-113640760D02*
X164571428Y-113564569D01*
X164571428Y-113564569D02*
X164533333Y-113488379D01*
X164533333Y-113488379D02*
X164495237Y-113335998D01*
X164495237Y-113335998D02*
X164495237Y-113221712D01*
X164495237Y-113221712D02*
X164533333Y-113069331D01*
X164533333Y-113069331D02*
X164571428Y-112993140D01*
X164571428Y-112993140D02*
X164647618Y-112916950D01*
X164647618Y-112916950D02*
X164761904Y-112878855D01*
X164761904Y-112878855D02*
X164838095Y-112878855D01*
X164838095Y-112878855D02*
X164952380Y-112916950D01*
X164952380Y-112916950D02*
X164990476Y-112955045D01*
X165333333Y-113259807D02*
X165599999Y-113259807D01*
X165714285Y-113678855D02*
X165333333Y-113678855D01*
X165333333Y-113678855D02*
X165333333Y-112878855D01*
X165333333Y-112878855D02*
X165714285Y-112878855D01*
X122323810Y-113678855D02*
X122323810Y-112878855D01*
X122323810Y-112878855D02*
X122590476Y-113450283D01*
X122590476Y-113450283D02*
X122857143Y-112878855D01*
X122857143Y-112878855D02*
X122857143Y-113678855D01*
X123200000Y-113450283D02*
X123580953Y-113450283D01*
X123123810Y-113678855D02*
X123390477Y-112878855D01*
X123390477Y-112878855D02*
X123657143Y-113678855D01*
X123809524Y-112878855D02*
X124266667Y-112878855D01*
X124038095Y-113678855D02*
X124038095Y-112878855D01*
X124533334Y-113678855D02*
X124533334Y-112878855D01*
X124914286Y-113678855D02*
X124914286Y-112878855D01*
X124914286Y-112878855D02*
X125371429Y-113678855D01*
X125371429Y-113678855D02*
X125371429Y-112878855D01*
X126171428Y-112916950D02*
X126095238Y-112878855D01*
X126095238Y-112878855D02*
X125980952Y-112878855D01*
X125980952Y-112878855D02*
X125866666Y-112916950D01*
X125866666Y-112916950D02*
X125790476Y-112993140D01*
X125790476Y-112993140D02*
X125752381Y-113069331D01*
X125752381Y-113069331D02*
X125714285Y-113221712D01*
X125714285Y-113221712D02*
X125714285Y-113335998D01*
X125714285Y-113335998D02*
X125752381Y-113488379D01*
X125752381Y-113488379D02*
X125790476Y-113564569D01*
X125790476Y-113564569D02*
X125866666Y-113640760D01*
X125866666Y-113640760D02*
X125980952Y-113678855D01*
X125980952Y-113678855D02*
X126057143Y-113678855D01*
X126057143Y-113678855D02*
X126171428Y-113640760D01*
X126171428Y-113640760D02*
X126209524Y-113602664D01*
X126209524Y-113602664D02*
X126209524Y-113335998D01*
X126209524Y-113335998D02*
X126057143Y-113335998D01*
X127428571Y-113259807D02*
X127161905Y-113259807D01*
X127161905Y-113678855D02*
X127161905Y-112878855D01*
X127161905Y-112878855D02*
X127542857Y-112878855D01*
X127809523Y-113450283D02*
X128190476Y-113450283D01*
X127733333Y-113678855D02*
X128000000Y-112878855D01*
X128000000Y-112878855D02*
X128266666Y-113678855D01*
X128990476Y-113602664D02*
X128952380Y-113640760D01*
X128952380Y-113640760D02*
X128838095Y-113678855D01*
X128838095Y-113678855D02*
X128761904Y-113678855D01*
X128761904Y-113678855D02*
X128647618Y-113640760D01*
X128647618Y-113640760D02*
X128571428Y-113564569D01*
X128571428Y-113564569D02*
X128533333Y-113488379D01*
X128533333Y-113488379D02*
X128495237Y-113335998D01*
X128495237Y-113335998D02*
X128495237Y-113221712D01*
X128495237Y-113221712D02*
X128533333Y-113069331D01*
X128533333Y-113069331D02*
X128571428Y-112993140D01*
X128571428Y-112993140D02*
X128647618Y-112916950D01*
X128647618Y-112916950D02*
X128761904Y-112878855D01*
X128761904Y-112878855D02*
X128838095Y-112878855D01*
X128838095Y-112878855D02*
X128952380Y-112916950D01*
X128952380Y-112916950D02*
X128990476Y-112955045D01*
X129333333Y-113259807D02*
X129599999Y-113259807D01*
X129714285Y-113678855D02*
X129333333Y-113678855D01*
X129333333Y-113678855D02*
X129333333Y-112878855D01*
X129333333Y-112878855D02*
X129714285Y-112878855D01*
X50323810Y-113678855D02*
X50323810Y-112878855D01*
X50323810Y-112878855D02*
X50590476Y-113450283D01*
X50590476Y-113450283D02*
X50857143Y-112878855D01*
X50857143Y-112878855D02*
X50857143Y-113678855D01*
X51200000Y-113450283D02*
X51580953Y-113450283D01*
X51123810Y-113678855D02*
X51390477Y-112878855D01*
X51390477Y-112878855D02*
X51657143Y-113678855D01*
X51809524Y-112878855D02*
X52266667Y-112878855D01*
X52038095Y-113678855D02*
X52038095Y-112878855D01*
X52533334Y-113678855D02*
X52533334Y-112878855D01*
X52914286Y-113678855D02*
X52914286Y-112878855D01*
X52914286Y-112878855D02*
X53371429Y-113678855D01*
X53371429Y-113678855D02*
X53371429Y-112878855D01*
X54171428Y-112916950D02*
X54095238Y-112878855D01*
X54095238Y-112878855D02*
X53980952Y-112878855D01*
X53980952Y-112878855D02*
X53866666Y-112916950D01*
X53866666Y-112916950D02*
X53790476Y-112993140D01*
X53790476Y-112993140D02*
X53752381Y-113069331D01*
X53752381Y-113069331D02*
X53714285Y-113221712D01*
X53714285Y-113221712D02*
X53714285Y-113335998D01*
X53714285Y-113335998D02*
X53752381Y-113488379D01*
X53752381Y-113488379D02*
X53790476Y-113564569D01*
X53790476Y-113564569D02*
X53866666Y-113640760D01*
X53866666Y-113640760D02*
X53980952Y-113678855D01*
X53980952Y-113678855D02*
X54057143Y-113678855D01*
X54057143Y-113678855D02*
X54171428Y-113640760D01*
X54171428Y-113640760D02*
X54209524Y-113602664D01*
X54209524Y-113602664D02*
X54209524Y-113335998D01*
X54209524Y-113335998D02*
X54057143Y-113335998D01*
X55428571Y-113259807D02*
X55161905Y-113259807D01*
X55161905Y-113678855D02*
X55161905Y-112878855D01*
X55161905Y-112878855D02*
X55542857Y-112878855D01*
X55809523Y-113450283D02*
X56190476Y-113450283D01*
X55733333Y-113678855D02*
X56000000Y-112878855D01*
X56000000Y-112878855D02*
X56266666Y-113678855D01*
X56990476Y-113602664D02*
X56952380Y-113640760D01*
X56952380Y-113640760D02*
X56838095Y-113678855D01*
X56838095Y-113678855D02*
X56761904Y-113678855D01*
X56761904Y-113678855D02*
X56647618Y-113640760D01*
X56647618Y-113640760D02*
X56571428Y-113564569D01*
X56571428Y-113564569D02*
X56533333Y-113488379D01*
X56533333Y-113488379D02*
X56495237Y-113335998D01*
X56495237Y-113335998D02*
X56495237Y-113221712D01*
X56495237Y-113221712D02*
X56533333Y-113069331D01*
X56533333Y-113069331D02*
X56571428Y-112993140D01*
X56571428Y-112993140D02*
X56647618Y-112916950D01*
X56647618Y-112916950D02*
X56761904Y-112878855D01*
X56761904Y-112878855D02*
X56838095Y-112878855D01*
X56838095Y-112878855D02*
X56952380Y-112916950D01*
X56952380Y-112916950D02*
X56990476Y-112955045D01*
X57333333Y-113259807D02*
X57599999Y-113259807D01*
X57714285Y-113678855D02*
X57333333Y-113678855D01*
X57333333Y-113678855D02*
X57333333Y-112878855D01*
X57333333Y-112878855D02*
X57714285Y-112878855D01*
X14323810Y-113678855D02*
X14323810Y-112878855D01*
X14323810Y-112878855D02*
X14590476Y-113450283D01*
X14590476Y-113450283D02*
X14857143Y-112878855D01*
X14857143Y-112878855D02*
X14857143Y-113678855D01*
X15200000Y-113450283D02*
X15580953Y-113450283D01*
X15123810Y-113678855D02*
X15390477Y-112878855D01*
X15390477Y-112878855D02*
X15657143Y-113678855D01*
X15809524Y-112878855D02*
X16266667Y-112878855D01*
X16038095Y-113678855D02*
X16038095Y-112878855D01*
X16533334Y-113678855D02*
X16533334Y-112878855D01*
X16914286Y-113678855D02*
X16914286Y-112878855D01*
X16914286Y-112878855D02*
X17371429Y-113678855D01*
X17371429Y-113678855D02*
X17371429Y-112878855D01*
X18171428Y-112916950D02*
X18095238Y-112878855D01*
X18095238Y-112878855D02*
X17980952Y-112878855D01*
X17980952Y-112878855D02*
X17866666Y-112916950D01*
X17866666Y-112916950D02*
X17790476Y-112993140D01*
X17790476Y-112993140D02*
X17752381Y-113069331D01*
X17752381Y-113069331D02*
X17714285Y-113221712D01*
X17714285Y-113221712D02*
X17714285Y-113335998D01*
X17714285Y-113335998D02*
X17752381Y-113488379D01*
X17752381Y-113488379D02*
X17790476Y-113564569D01*
X17790476Y-113564569D02*
X17866666Y-113640760D01*
X17866666Y-113640760D02*
X17980952Y-113678855D01*
X17980952Y-113678855D02*
X18057143Y-113678855D01*
X18057143Y-113678855D02*
X18171428Y-113640760D01*
X18171428Y-113640760D02*
X18209524Y-113602664D01*
X18209524Y-113602664D02*
X18209524Y-113335998D01*
X18209524Y-113335998D02*
X18057143Y-113335998D01*
X19428571Y-113259807D02*
X19161905Y-113259807D01*
X19161905Y-113678855D02*
X19161905Y-112878855D01*
X19161905Y-112878855D02*
X19542857Y-112878855D01*
X19809523Y-113450283D02*
X20190476Y-113450283D01*
X19733333Y-113678855D02*
X20000000Y-112878855D01*
X20000000Y-112878855D02*
X20266666Y-113678855D01*
X20990476Y-113602664D02*
X20952380Y-113640760D01*
X20952380Y-113640760D02*
X20838095Y-113678855D01*
X20838095Y-113678855D02*
X20761904Y-113678855D01*
X20761904Y-113678855D02*
X20647618Y-113640760D01*
X20647618Y-113640760D02*
X20571428Y-113564569D01*
X20571428Y-113564569D02*
X20533333Y-113488379D01*
X20533333Y-113488379D02*
X20495237Y-113335998D01*
X20495237Y-113335998D02*
X20495237Y-113221712D01*
X20495237Y-113221712D02*
X20533333Y-113069331D01*
X20533333Y-113069331D02*
X20571428Y-112993140D01*
X20571428Y-112993140D02*
X20647618Y-112916950D01*
X20647618Y-112916950D02*
X20761904Y-112878855D01*
X20761904Y-112878855D02*
X20838095Y-112878855D01*
X20838095Y-112878855D02*
X20952380Y-112916950D01*
X20952380Y-112916950D02*
X20990476Y-112955045D01*
X21333333Y-113259807D02*
X21599999Y-113259807D01*
X21714285Y-113678855D02*
X21333333Y-113678855D01*
X21333333Y-113678855D02*
X21333333Y-112878855D01*
X21333333Y-112878855D02*
X21714285Y-112878855D01*
%TO.C,F14*%
D13*
X151970000Y-64950000D02*
X172030000Y-64950000D01*
X151970000Y-71050000D02*
X151970000Y-64950000D01*
X172030000Y-64950000D02*
X172030000Y-71050000D01*
X172030000Y-71050000D02*
X151970000Y-71050000D01*
D14*
X151870000Y-64820000D02*
G75*
G02*
X151810000Y-64820000I-30000J0D01*
G01*
X151810000Y-64820000D02*
G75*
G02*
X151870000Y-64820000I30000J0D01*
G01*
%TO.C,D34*%
D10*
X104000000Y-17500000D02*
X105000000Y-17500000D01*
X104000000Y-18500000D02*
X105000000Y-18500000D01*
D15*
G36*
X104500127Y-18000000D02*
G01*
X104500000Y-18000000D01*
X104400000Y-18200000D01*
X104400000Y-17800000D01*
X104500127Y-18000000D01*
G37*
G36*
X104601219Y-18198196D02*
G01*
X104501092Y-17998197D01*
X104501219Y-17998197D01*
X104601219Y-17798197D01*
X104601219Y-18198196D01*
G37*
%TO.C,F2*%
D12*
X65397936Y-51090000D02*
X66602064Y-51090000D01*
X65397936Y-52910000D02*
X66602064Y-52910000D01*
%TO.C,JP1*%
X124620000Y-45120000D02*
X126000000Y-45120000D01*
X124620000Y-46500000D02*
X124620000Y-45120000D01*
X124620000Y-47770000D02*
X124620000Y-50420000D01*
X124620000Y-47770000D02*
X127380000Y-47770000D01*
X124620000Y-50420000D02*
X127380000Y-50420000D01*
X127380000Y-47770000D02*
X127380000Y-50420000D01*
%TO.C,J4*%
D13*
X77560000Y-2000000D02*
X99880000Y-2000000D01*
X99880000Y-14000000D01*
X77560000Y-14000000D01*
X77560000Y-2000000D01*
%TO.C,R58*%
D12*
X113762742Y-82477500D02*
X114237258Y-82477500D01*
X113762742Y-83522500D02*
X114237258Y-83522500D01*
%TO.C,R42*%
X77762742Y-75477500D02*
X78237258Y-75477500D01*
X77762742Y-76522500D02*
X78237258Y-76522500D01*
%TO.C,C36*%
X132238748Y-52765000D02*
X132761252Y-52765000D01*
X132238748Y-54235000D02*
X132761252Y-54235000D01*
%TO.C,U3*%
X100940000Y-36440000D02*
X105060000Y-36440000D01*
X100940000Y-36535000D02*
X100940000Y-36440000D01*
X100940000Y-41560000D02*
X100940000Y-41465000D01*
X105060000Y-36440000D02*
X105060000Y-36535000D01*
X105060000Y-41465000D02*
X105060000Y-41560000D01*
X105060000Y-41560000D02*
X100940000Y-41560000D01*
X100400000Y-36530000D02*
X100160000Y-36200000D01*
X100640000Y-36200000D01*
X100400000Y-36530000D01*
G36*
X100400000Y-36530000D02*
G01*
X100160000Y-36200000D01*
X100640000Y-36200000D01*
X100400000Y-36530000D01*
G37*
%TO.C,C35*%
X121238748Y-52765000D02*
X121761252Y-52765000D01*
X121238748Y-54235000D02*
X121761252Y-54235000D01*
%TO.C,U6*%
X101565000Y-56940000D02*
X101630000Y-56940000D01*
X101565000Y-61060000D02*
X101565000Y-56940000D01*
X101630000Y-61060000D02*
X101565000Y-61060000D01*
X110370000Y-56940000D02*
X110435000Y-56940000D01*
X110435000Y-56940000D02*
X110435000Y-61060000D01*
X110435000Y-61060000D02*
X110370000Y-61060000D01*
X101630000Y-61600000D02*
X101300000Y-61840000D01*
X101300000Y-61360000D01*
X101630000Y-61600000D01*
G36*
X101630000Y-61600000D02*
G01*
X101300000Y-61840000D01*
X101300000Y-61360000D01*
X101630000Y-61600000D01*
G37*
%TO.C,R53*%
X113762742Y-78977500D02*
X114237258Y-78977500D01*
X113762742Y-80022500D02*
X114237258Y-80022500D01*
%TO.C,F1*%
D13*
X11970000Y-31950000D02*
X32030000Y-31950000D01*
X11970000Y-38050000D02*
X11970000Y-31950000D01*
X32030000Y-31950000D02*
X32030000Y-38050000D01*
X32030000Y-38050000D02*
X11970000Y-38050000D01*
D14*
X11870000Y-31820000D02*
G75*
G02*
X11810000Y-31820000I-30000J0D01*
G01*
X11810000Y-31820000D02*
G75*
G02*
X11870000Y-31820000I30000J0D01*
G01*
%TO.C,C24*%
D12*
X157859420Y-47490000D02*
X158140580Y-47490000D01*
X157859420Y-48510000D02*
X158140580Y-48510000D01*
%TO.C,D24*%
X158340000Y-59850000D02*
X158340000Y-64150000D01*
X158340000Y-59850000D02*
X164150000Y-59850000D01*
X158340000Y-64150000D02*
X164150000Y-64150000D01*
%TO.C,C33*%
X127359420Y-52990000D02*
X127640580Y-52990000D01*
X127359420Y-54010000D02*
X127640580Y-54010000D01*
%TO.C,U9*%
X138940000Y-56440000D02*
X143060000Y-56440000D01*
X138940000Y-56535000D02*
X138940000Y-56440000D01*
X138940000Y-61560000D02*
X138940000Y-61465000D01*
X143060000Y-56440000D02*
X143060000Y-56535000D01*
X143060000Y-61465000D02*
X143060000Y-61560000D01*
X143060000Y-61560000D02*
X138940000Y-61560000D01*
X138400000Y-56530000D02*
X138160000Y-56200000D01*
X138640000Y-56200000D01*
X138400000Y-56530000D01*
G36*
X138400000Y-56530000D02*
G01*
X138160000Y-56200000D01*
X138640000Y-56200000D01*
X138400000Y-56530000D01*
G37*
%TO.C,R13*%
X115762742Y-51477500D02*
X116237258Y-51477500D01*
X115762742Y-52522500D02*
X116237258Y-52522500D01*
%TO.C,R1*%
X9762742Y-54477500D02*
X10237258Y-54477500D01*
X9762742Y-55522500D02*
X10237258Y-55522500D01*
%TO.C,U1*%
D13*
X71100000Y-31500000D02*
X88900000Y-31500000D01*
X71100000Y-52500000D02*
X88900000Y-52500000D01*
%TO.C,Q3*%
X46400000Y-82500000D02*
X46400000Y-76500000D01*
X51600000Y-82500000D02*
X51600000Y-76500000D01*
D14*
X51530000Y-76490000D02*
G75*
G02*
X51470000Y-76490000I-30000J0D01*
G01*
X51470000Y-76490000D02*
G75*
G02*
X51530000Y-76490000I30000J0D01*
G01*
D13*
X51760000Y-76040000D02*
G75*
G02*
X51540000Y-76040000I-110000J0D01*
G01*
X51540000Y-76040000D02*
G75*
G02*
X51760000Y-76040000I110000J0D01*
G01*
%TO.C,U8*%
D12*
X127940000Y-56440000D02*
X132060000Y-56440000D01*
X127940000Y-56535000D02*
X127940000Y-56440000D01*
X127940000Y-61560000D02*
X127940000Y-61465000D01*
X132060000Y-56440000D02*
X132060000Y-56535000D01*
X132060000Y-61465000D02*
X132060000Y-61560000D01*
X132060000Y-61560000D02*
X127940000Y-61560000D01*
X127400000Y-56530000D02*
X127160000Y-56200000D01*
X127640000Y-56200000D01*
X127400000Y-56530000D01*
G36*
X127400000Y-56530000D02*
G01*
X127160000Y-56200000D01*
X127640000Y-56200000D01*
X127400000Y-56530000D01*
G37*
%TO.C,R59*%
X149762742Y-82477500D02*
X150237258Y-82477500D01*
X149762742Y-83522500D02*
X150237258Y-83522500D01*
%TO.C,R23*%
X140762742Y-23477500D02*
X141237258Y-23477500D01*
X140762742Y-24522500D02*
X141237258Y-24522500D01*
%TO.C,D14*%
X166175000Y-73300000D02*
X166175000Y-75110000D01*
X166175000Y-83700000D02*
X166175000Y-81890000D01*
X167675000Y-73300000D02*
X166175000Y-73300000D01*
X167675000Y-83700000D02*
X166175000Y-83700000D01*
X163612500Y-75110000D02*
X163372500Y-74780000D01*
X163852500Y-74780000D01*
X163612500Y-75110000D01*
G36*
X163612500Y-75110000D02*
G01*
X163372500Y-74780000D01*
X163852500Y-74780000D01*
X163612500Y-75110000D01*
G37*
%TO.C,U13*%
D10*
X18420000Y-44930000D02*
X21580000Y-44930000D01*
X18420000Y-47070000D02*
X18420000Y-44930000D01*
X21580000Y-44930000D02*
X21580000Y-47070000D01*
X21580000Y-47070000D02*
X18420000Y-47070000D01*
D16*
X18540000Y-48130000D02*
G75*
G02*
X18240000Y-48130000I-150000J0D01*
G01*
X18240000Y-48130000D02*
G75*
G02*
X18540000Y-48130000I150000J0D01*
G01*
D14*
X18530000Y-48450000D02*
G75*
G02*
X18470000Y-48450000I-30000J0D01*
G01*
X18470000Y-48450000D02*
G75*
G02*
X18530000Y-48450000I30000J0D01*
G01*
D16*
X19180000Y-46320000D02*
G75*
G02*
X18860000Y-46320000I-160000J0D01*
G01*
X18860000Y-46320000D02*
G75*
G02*
X19180000Y-46320000I160000J0D01*
G01*
%TO.C,R8*%
D12*
X79762742Y-55977500D02*
X80237258Y-55977500D01*
X79762742Y-57022500D02*
X80237258Y-57022500D01*
%TO.C,D20*%
X28840000Y-65850000D02*
X28840000Y-70150000D01*
X28840000Y-65850000D02*
X34650000Y-65850000D01*
X28840000Y-70150000D02*
X34650000Y-70150000D01*
%TO.C,R51*%
X41762742Y-78977500D02*
X42237258Y-78977500D01*
X41762742Y-80022500D02*
X42237258Y-80022500D01*
%TO.C,R9*%
X95762742Y-40477500D02*
X96237258Y-40477500D01*
X95762742Y-41522500D02*
X96237258Y-41522500D01*
%TO.C,R3*%
X25762742Y-54477500D02*
X26237258Y-54477500D01*
X25762742Y-55522500D02*
X26237258Y-55522500D01*
%TO.C,Q6*%
D13*
X154400000Y-82500000D02*
X154400000Y-76500000D01*
X159600000Y-82500000D02*
X159600000Y-76500000D01*
D14*
X159530000Y-76490000D02*
G75*
G02*
X159470000Y-76490000I-30000J0D01*
G01*
X159470000Y-76490000D02*
G75*
G02*
X159530000Y-76490000I30000J0D01*
G01*
D13*
X159760000Y-76040000D02*
G75*
G02*
X159540000Y-76040000I-110000J0D01*
G01*
X159540000Y-76040000D02*
G75*
G02*
X159760000Y-76040000I110000J0D01*
G01*
%TO.C,R24*%
D12*
X148962742Y-19477500D02*
X149437258Y-19477500D01*
X148962742Y-20522500D02*
X149437258Y-20522500D01*
%TO.C,R17*%
X106762742Y-26477500D02*
X107237258Y-26477500D01*
X106762742Y-27522500D02*
X107237258Y-27522500D01*
%TO.C,C6*%
X11738748Y-45265000D02*
X12261252Y-45265000D01*
X11738748Y-46735000D02*
X12261252Y-46735000D01*
%TO.C,C9*%
X49288748Y-59090000D02*
X50711252Y-59090000D01*
X49288748Y-60910000D02*
X50711252Y-60910000D01*
%TO.C,C8*%
X37288748Y-59090000D02*
X38711252Y-59090000D01*
X37288748Y-60910000D02*
X38711252Y-60910000D01*
%TO.C,D1*%
X48340000Y-33850000D02*
X48340000Y-38150000D01*
X48340000Y-33850000D02*
X54150000Y-33850000D01*
X48340000Y-38150000D02*
X54150000Y-38150000D01*
%TO.C,R54*%
X149762742Y-78977500D02*
X150237258Y-78977500D01*
X149762742Y-80022500D02*
X150237258Y-80022500D01*
%TO.C,R44*%
X149762742Y-75477500D02*
X150237258Y-75477500D01*
X149762742Y-76522500D02*
X150237258Y-76522500D01*
%TO.C,U5*%
X89565000Y-56940000D02*
X89630000Y-56940000D01*
X89565000Y-61060000D02*
X89565000Y-56940000D01*
X89630000Y-61060000D02*
X89565000Y-61060000D01*
X98370000Y-56940000D02*
X98435000Y-56940000D01*
X98435000Y-56940000D02*
X98435000Y-61060000D01*
X98435000Y-61060000D02*
X98370000Y-61060000D01*
X89630000Y-61600000D02*
X89300000Y-61840000D01*
X89300000Y-61360000D01*
X89630000Y-61600000D01*
G36*
X89630000Y-61600000D02*
G01*
X89300000Y-61840000D01*
X89300000Y-61360000D01*
X89630000Y-61600000D01*
G37*
%TO.C,D3*%
X32240000Y-55440000D02*
X33760000Y-55440000D01*
X32240000Y-55490000D02*
X32240000Y-55440000D01*
X32240000Y-57390000D02*
X32240000Y-56610000D01*
X32240000Y-58560000D02*
X32240000Y-58510000D01*
X33760000Y-55440000D02*
X33760000Y-56440000D01*
X33760000Y-57560000D02*
X33760000Y-58560000D01*
X33760000Y-58560000D02*
X32240000Y-58560000D01*
X31700000Y-56620000D02*
X31940000Y-56950000D01*
X31460000Y-56950000D01*
X31700000Y-56620000D01*
G36*
X31940000Y-56950000D02*
G01*
X31460000Y-56950000D01*
X31700000Y-56620000D01*
X31940000Y-56950000D01*
G37*
%TO.C,C22*%
X149059420Y-27490000D02*
X149340580Y-27490000D01*
X149059420Y-28510000D02*
X149340580Y-28510000D01*
%TO.C,F12*%
D13*
X79970000Y-64950000D02*
X100030000Y-64950000D01*
X79970000Y-71050000D02*
X79970000Y-64950000D01*
X100030000Y-64950000D02*
X100030000Y-71050000D01*
X100030000Y-71050000D02*
X79970000Y-71050000D01*
D14*
X79870000Y-64820000D02*
G75*
G02*
X79810000Y-64820000I-30000J0D01*
G01*
X79810000Y-64820000D02*
G75*
G02*
X79870000Y-64820000I30000J0D01*
G01*
%TO.C,C10*%
D12*
X60288748Y-59090000D02*
X61711252Y-59090000D01*
X60288748Y-60910000D02*
X61711252Y-60910000D01*
%TO.C,Q4*%
D13*
X82400000Y-82500000D02*
X82400000Y-76500000D01*
X87600000Y-82500000D02*
X87600000Y-76500000D01*
D14*
X87530000Y-76490000D02*
G75*
G02*
X87470000Y-76490000I-30000J0D01*
G01*
X87470000Y-76490000D02*
G75*
G02*
X87530000Y-76490000I30000J0D01*
G01*
D13*
X87760000Y-76040000D02*
G75*
G02*
X87540000Y-76040000I-110000J0D01*
G01*
X87540000Y-76040000D02*
G75*
G02*
X87760000Y-76040000I110000J0D01*
G01*
%TO.C,D10*%
D12*
X22175000Y-73300000D02*
X22175000Y-75110000D01*
X22175000Y-83700000D02*
X22175000Y-81890000D01*
X23675000Y-73300000D02*
X22175000Y-73300000D01*
X23675000Y-83700000D02*
X22175000Y-83700000D01*
X19612500Y-75110000D02*
X19372500Y-74780000D01*
X19852500Y-74780000D01*
X19612500Y-75110000D01*
G36*
X19612500Y-75110000D02*
G01*
X19372500Y-74780000D01*
X19852500Y-74780000D01*
X19612500Y-75110000D01*
G37*
%TO.C,F3*%
X94613748Y-18290000D02*
X97386252Y-18290000D01*
X94613748Y-21710000D02*
X97386252Y-21710000D01*
%TO.C,C5*%
X95859420Y-34490000D02*
X96140580Y-34490000D01*
X95859420Y-35510000D02*
X96140580Y-35510000D01*
%TO.C,C20*%
X122659420Y-27490000D02*
X122940580Y-27490000D01*
X122659420Y-28510000D02*
X122940580Y-28510000D01*
%TO.C,D2*%
X119240000Y-37440000D02*
X120760000Y-37440000D01*
X119240000Y-37490000D02*
X119240000Y-37440000D01*
X119240000Y-39390000D02*
X119240000Y-38610000D01*
X119240000Y-40560000D02*
X119240000Y-40510000D01*
X120760000Y-37440000D02*
X120760000Y-38440000D01*
X120760000Y-39560000D02*
X120760000Y-40560000D01*
X120760000Y-40560000D02*
X119240000Y-40560000D01*
X118700000Y-38620000D02*
X118940000Y-38950000D01*
X118460000Y-38950000D01*
X118700000Y-38620000D01*
G36*
X118940000Y-38950000D02*
G01*
X118460000Y-38950000D01*
X118700000Y-38620000D01*
X118940000Y-38950000D01*
G37*
%TO.C,C12*%
X106859420Y-30490000D02*
X107140580Y-30490000D01*
X106859420Y-31510000D02*
X107140580Y-31510000D01*
%TO.C,D31*%
D10*
X140500000Y-31500000D02*
X141500000Y-31500000D01*
X140500000Y-32500000D02*
X141500000Y-32500000D01*
D15*
G36*
X141000127Y-32000000D02*
G01*
X141000000Y-32000000D01*
X140900000Y-32200000D01*
X140900000Y-31800000D01*
X141000127Y-32000000D01*
G37*
G36*
X141101219Y-32198196D02*
G01*
X141001092Y-31998197D01*
X141001219Y-31998197D01*
X141101219Y-31798197D01*
X141101219Y-32198196D01*
G37*
%TO.C,L1*%
D12*
X55040000Y-49290000D02*
X60960000Y-49290000D01*
X55040000Y-50840000D02*
X55040000Y-49290000D01*
X55040000Y-54710000D02*
X55040000Y-53160000D01*
X60960000Y-49290000D02*
X60960000Y-50840000D01*
X60960000Y-53160000D02*
X60960000Y-54710000D01*
X60960000Y-54710000D02*
X55040000Y-54710000D01*
%TO.C,R41*%
X41762742Y-75477500D02*
X42237258Y-75477500D01*
X41762742Y-76522500D02*
X42237258Y-76522500D01*
%TO.C,J7*%
D13*
X132460000Y-2000000D02*
X144620000Y-2000000D01*
X144620000Y-14000000D01*
X132460000Y-14000000D01*
X132460000Y-2000000D01*
%TO.C,D33*%
D10*
X166900000Y-31500000D02*
X167900000Y-31500000D01*
X166900000Y-32500000D02*
X167900000Y-32500000D01*
D15*
G36*
X167400127Y-32000000D02*
G01*
X167400000Y-32000000D01*
X167300000Y-32200000D01*
X167300000Y-31800000D01*
X167400127Y-32000000D01*
G37*
G36*
X167501219Y-32198196D02*
G01*
X167401092Y-31998197D01*
X167401219Y-31998197D01*
X167501219Y-31798197D01*
X167501219Y-32198196D01*
G37*
%TO.C,R11*%
D12*
X111762742Y-41477500D02*
X112237258Y-41477500D01*
X111762742Y-42522500D02*
X112237258Y-42522500D01*
%TO.C,R43*%
X113762742Y-75477500D02*
X114237258Y-75477500D01*
X113762742Y-76522500D02*
X114237258Y-76522500D01*
%TO.C,Q5*%
D13*
X118400000Y-82500000D02*
X118400000Y-76500000D01*
X123600000Y-82500000D02*
X123600000Y-76500000D01*
D14*
X123530000Y-76490000D02*
G75*
G02*
X123470000Y-76490000I-30000J0D01*
G01*
X123470000Y-76490000D02*
G75*
G02*
X123530000Y-76490000I30000J0D01*
G01*
D13*
X123760000Y-76040000D02*
G75*
G02*
X123540000Y-76040000I-110000J0D01*
G01*
X123540000Y-76040000D02*
G75*
G02*
X123760000Y-76040000I110000J0D01*
G01*
%TO.C,R27*%
D12*
X167162742Y-23477500D02*
X167637258Y-23477500D01*
X167162742Y-24522500D02*
X167637258Y-24522500D01*
%TO.C,C7*%
X50859420Y-44990000D02*
X51140580Y-44990000D01*
X50859420Y-46010000D02*
X51140580Y-46010000D01*
%TO.C,D23*%
X136840000Y-65850000D02*
X136840000Y-70150000D01*
X136840000Y-65850000D02*
X142650000Y-65850000D01*
X136840000Y-70150000D02*
X142650000Y-70150000D01*
%TO.C,D32*%
D10*
X153700000Y-31500000D02*
X154700000Y-31500000D01*
X153700000Y-32500000D02*
X154700000Y-32500000D01*
D15*
G36*
X154200127Y-32000000D02*
G01*
X154200000Y-32000000D01*
X154100000Y-32200000D01*
X154100000Y-31800000D01*
X154200127Y-32000000D01*
G37*
G36*
X154301219Y-32198196D02*
G01*
X154201092Y-31998197D01*
X154201219Y-31998197D01*
X154301219Y-31798197D01*
X154301219Y-32198196D01*
G37*
%TO.C,R50*%
D12*
X5762742Y-78977500D02*
X6237258Y-78977500D01*
X5762742Y-80022500D02*
X6237258Y-80022500D01*
%TO.C,U4*%
X45090000Y-50440000D02*
X46910000Y-50440000D01*
X45090000Y-50490000D02*
X45090000Y-50440000D01*
X45090000Y-53560000D02*
X45090000Y-53510000D01*
X46910000Y-50440000D02*
X46910000Y-50490000D01*
X46910000Y-53510000D02*
X46910000Y-53560000D01*
X46910000Y-53560000D02*
X45090000Y-53560000D01*
X44550000Y-50490000D02*
X44310000Y-50160000D01*
X44790000Y-50160000D01*
X44550000Y-50490000D01*
G36*
X44550000Y-50490000D02*
G01*
X44310000Y-50160000D01*
X44790000Y-50160000D01*
X44550000Y-50490000D01*
G37*
%TO.C,C1*%
X59020354Y-35125000D02*
X60020354Y-35125000D01*
X59520354Y-34625000D02*
X59520354Y-35625000D01*
X64500000Y-32920000D02*
X64500000Y-43080000D01*
X64540000Y-32920000D02*
X64540000Y-43080000D01*
X64580000Y-32921000D02*
X64580000Y-43079000D01*
X64620000Y-32921000D02*
X64620000Y-43079000D01*
X64660000Y-32923000D02*
X64660000Y-43077000D01*
X64700000Y-32924000D02*
X64700000Y-43076000D01*
X64740000Y-32926000D02*
X64740000Y-43074000D01*
X64780000Y-32928000D02*
X64780000Y-43072000D01*
X64820000Y-32930000D02*
X64820000Y-43070000D01*
X64860000Y-32933000D02*
X64860000Y-43067000D01*
X64900000Y-32936000D02*
X64900000Y-43064000D01*
X64940000Y-32939000D02*
X64940000Y-43061000D01*
X64980000Y-32943000D02*
X64980000Y-43057000D01*
X65020000Y-32946000D02*
X65020000Y-43054000D01*
X65060000Y-32951000D02*
X65060000Y-43049000D01*
X65100000Y-32955000D02*
X65100000Y-43045000D01*
X65140000Y-32960000D02*
X65140000Y-43040000D01*
X65180000Y-32965000D02*
X65180000Y-43035000D01*
X65220000Y-32971000D02*
X65220000Y-43029000D01*
X65260000Y-32977000D02*
X65260000Y-43023000D01*
X65300000Y-32983000D02*
X65300000Y-43017000D01*
X65340000Y-32989000D02*
X65340000Y-43011000D01*
X65380000Y-32996000D02*
X65380000Y-43004000D01*
X65420000Y-33003000D02*
X65420000Y-42997000D01*
X65460000Y-33011000D02*
X65460000Y-42989000D01*
X65500000Y-33019000D02*
X65500000Y-42981000D01*
X65540000Y-33027000D02*
X65540000Y-42973000D01*
X65580000Y-33035000D02*
X65580000Y-42965000D01*
X65620000Y-33044000D02*
X65620000Y-42956000D01*
X65660000Y-33053000D02*
X65660000Y-42947000D01*
X65700000Y-33063000D02*
X65700000Y-42937000D01*
X65740000Y-33072000D02*
X65740000Y-42928000D01*
X65780000Y-33083000D02*
X65780000Y-36760000D01*
X65780000Y-39240000D02*
X65780000Y-42917000D01*
X65820000Y-33093000D02*
X65820000Y-36760000D01*
X65820000Y-39240000D02*
X65820000Y-42907000D01*
X65860000Y-33104000D02*
X65860000Y-36760000D01*
X65860000Y-39240000D02*
X65860000Y-42896000D01*
X65900000Y-33115000D02*
X65900000Y-36760000D01*
X65900000Y-39240000D02*
X65900000Y-42885000D01*
X65940000Y-33127000D02*
X65940000Y-36760000D01*
X65940000Y-39240000D02*
X65940000Y-42873000D01*
X65980000Y-33139000D02*
X65980000Y-36760000D01*
X65980000Y-39240000D02*
X65980000Y-42861000D01*
X66020000Y-33151000D02*
X66020000Y-36760000D01*
X66020000Y-39240000D02*
X66020000Y-42849000D01*
X66060000Y-33163000D02*
X66060000Y-36760000D01*
X66060000Y-39240000D02*
X66060000Y-42837000D01*
X66100000Y-33176000D02*
X66100000Y-36760000D01*
X66100000Y-39240000D02*
X66100000Y-42824000D01*
X66140000Y-33190000D02*
X66140000Y-36760000D01*
X66140000Y-39240000D02*
X66140000Y-42810000D01*
X66180000Y-33203000D02*
X66180000Y-36760000D01*
X66180000Y-39240000D02*
X66180000Y-42797000D01*
X66220000Y-33218000D02*
X66220000Y-36760000D01*
X66220000Y-39240000D02*
X66220000Y-42782000D01*
X66260000Y-33232000D02*
X66260000Y-36760000D01*
X66260000Y-39240000D02*
X66260000Y-42768000D01*
X66300000Y-33247000D02*
X66300000Y-36760000D01*
X66300000Y-39240000D02*
X66300000Y-42753000D01*
X66340000Y-33262000D02*
X66340000Y-36760000D01*
X66340000Y-39240000D02*
X66340000Y-42738000D01*
X66380000Y-33278000D02*
X66380000Y-36760000D01*
X66380000Y-39240000D02*
X66380000Y-42722000D01*
X66420000Y-33294000D02*
X66420000Y-36760000D01*
X66420000Y-39240000D02*
X66420000Y-42706000D01*
X66460000Y-33310000D02*
X66460000Y-36760000D01*
X66460000Y-39240000D02*
X66460000Y-42690000D01*
X66500000Y-33327000D02*
X66500000Y-36760000D01*
X66500000Y-39240000D02*
X66500000Y-42673000D01*
X66540000Y-33344000D02*
X66540000Y-36760000D01*
X66540000Y-39240000D02*
X66540000Y-42656000D01*
X66580000Y-33362000D02*
X66580000Y-36760000D01*
X66580000Y-39240000D02*
X66580000Y-42638000D01*
X66620000Y-33380000D02*
X66620000Y-36760000D01*
X66620000Y-39240000D02*
X66620000Y-42620000D01*
X66660000Y-33398000D02*
X66660000Y-36760000D01*
X66660000Y-39240000D02*
X66660000Y-42602000D01*
X66700000Y-33417000D02*
X66700000Y-36760000D01*
X66700000Y-39240000D02*
X66700000Y-42583000D01*
X66740000Y-33436000D02*
X66740000Y-36760000D01*
X66740000Y-39240000D02*
X66740000Y-42564000D01*
X66780000Y-33456000D02*
X66780000Y-36760000D01*
X66780000Y-39240000D02*
X66780000Y-42544000D01*
X66820000Y-33476000D02*
X66820000Y-36760000D01*
X66820000Y-39240000D02*
X66820000Y-42524000D01*
X66860000Y-33496000D02*
X66860000Y-36760000D01*
X66860000Y-39240000D02*
X66860000Y-42504000D01*
X66900000Y-33517000D02*
X66900000Y-36760000D01*
X66900000Y-39240000D02*
X66900000Y-42483000D01*
X66940000Y-33539000D02*
X66940000Y-36760000D01*
X66940000Y-39240000D02*
X66940000Y-42461000D01*
X66980000Y-33561000D02*
X66980000Y-36760000D01*
X66980000Y-39240000D02*
X66980000Y-42439000D01*
X67020000Y-33583000D02*
X67020000Y-36760000D01*
X67020000Y-39240000D02*
X67020000Y-42417000D01*
X67060000Y-33606000D02*
X67060000Y-36760000D01*
X67060000Y-39240000D02*
X67060000Y-42394000D01*
X67100000Y-33629000D02*
X67100000Y-36760000D01*
X67100000Y-39240000D02*
X67100000Y-42371000D01*
X67140000Y-33653000D02*
X67140000Y-36760000D01*
X67140000Y-39240000D02*
X67140000Y-42347000D01*
X67180000Y-33677000D02*
X67180000Y-36760000D01*
X67180000Y-39240000D02*
X67180000Y-42323000D01*
X67220000Y-33702000D02*
X67220000Y-36760000D01*
X67220000Y-39240000D02*
X67220000Y-42298000D01*
X67260000Y-33728000D02*
X67260000Y-36760000D01*
X67260000Y-39240000D02*
X67260000Y-42272000D01*
X67300000Y-33753000D02*
X67300000Y-36760000D01*
X67300000Y-39240000D02*
X67300000Y-42247000D01*
X67340000Y-33780000D02*
X67340000Y-36760000D01*
X67340000Y-39240000D02*
X67340000Y-42220000D01*
X67380000Y-33807000D02*
X67380000Y-36760000D01*
X67380000Y-39240000D02*
X67380000Y-42193000D01*
X67420000Y-33834000D02*
X67420000Y-36760000D01*
X67420000Y-39240000D02*
X67420000Y-42166000D01*
X67460000Y-33862000D02*
X67460000Y-36760000D01*
X67460000Y-39240000D02*
X67460000Y-42138000D01*
X67500000Y-33891000D02*
X67500000Y-36760000D01*
X67500000Y-39240000D02*
X67500000Y-42109000D01*
X67540000Y-33920000D02*
X67540000Y-36760000D01*
X67540000Y-39240000D02*
X67540000Y-42080000D01*
X67580000Y-33950000D02*
X67580000Y-36760000D01*
X67580000Y-39240000D02*
X67580000Y-42050000D01*
X67620000Y-33980000D02*
X67620000Y-36760000D01*
X67620000Y-39240000D02*
X67620000Y-42020000D01*
X67660000Y-34012000D02*
X67660000Y-36760000D01*
X67660000Y-39240000D02*
X67660000Y-41988000D01*
X67700000Y-34043000D02*
X67700000Y-36760000D01*
X67700000Y-39240000D02*
X67700000Y-41957000D01*
X67740000Y-34076000D02*
X67740000Y-36760000D01*
X67740000Y-39240000D02*
X67740000Y-41924000D01*
X67780000Y-34109000D02*
X67780000Y-36760000D01*
X67780000Y-39240000D02*
X67780000Y-41891000D01*
X67820000Y-34142000D02*
X67820000Y-36760000D01*
X67820000Y-39240000D02*
X67820000Y-41858000D01*
X67860000Y-34177000D02*
X67860000Y-36760000D01*
X67860000Y-39240000D02*
X67860000Y-41823000D01*
X67900000Y-34212000D02*
X67900000Y-36760000D01*
X67900000Y-39240000D02*
X67900000Y-41788000D01*
X67940000Y-34248000D02*
X67940000Y-36760000D01*
X67940000Y-39240000D02*
X67940000Y-41752000D01*
X67980000Y-34284000D02*
X67980000Y-36760000D01*
X67980000Y-39240000D02*
X67980000Y-41716000D01*
X68020000Y-34322000D02*
X68020000Y-36760000D01*
X68020000Y-39240000D02*
X68020000Y-41678000D01*
X68060000Y-34360000D02*
X68060000Y-36760000D01*
X68060000Y-39240000D02*
X68060000Y-41640000D01*
X68100000Y-34399000D02*
X68100000Y-36760000D01*
X68100000Y-39240000D02*
X68100000Y-41601000D01*
X68140000Y-34439000D02*
X68140000Y-36760000D01*
X68140000Y-39240000D02*
X68140000Y-41561000D01*
X68180000Y-34480000D02*
X68180000Y-36760000D01*
X68180000Y-39240000D02*
X68180000Y-41520000D01*
X68220000Y-34522000D02*
X68220000Y-36760000D01*
X68220000Y-39240000D02*
X68220000Y-41478000D01*
X68260000Y-34565000D02*
X68260000Y-41435000D01*
X68300000Y-34609000D02*
X68300000Y-41391000D01*
X68340000Y-34653000D02*
X68340000Y-41347000D01*
X68380000Y-34699000D02*
X68380000Y-41301000D01*
X68420000Y-34746000D02*
X68420000Y-41254000D01*
X68460000Y-34795000D02*
X68460000Y-41205000D01*
X68500000Y-34844000D02*
X68500000Y-41156000D01*
X68540000Y-34895000D02*
X68540000Y-41105000D01*
X68580000Y-34947000D02*
X68580000Y-41053000D01*
X68620000Y-35000000D02*
X68620000Y-41000000D01*
X68660000Y-35055000D02*
X68660000Y-40945000D01*
X68700000Y-35112000D02*
X68700000Y-40888000D01*
X68740000Y-35170000D02*
X68740000Y-40830000D01*
X68780000Y-35230000D02*
X68780000Y-40770000D01*
X68820000Y-35292000D02*
X68820000Y-40708000D01*
X68860000Y-35356000D02*
X68860000Y-40644000D01*
X68900000Y-35422000D02*
X68900000Y-40578000D01*
X68940000Y-35490000D02*
X68940000Y-40510000D01*
X68980000Y-35561000D02*
X68980000Y-40439000D01*
X69020000Y-35635000D02*
X69020000Y-40365000D01*
X69060000Y-35712000D02*
X69060000Y-40288000D01*
X69100000Y-35792000D02*
X69100000Y-40208000D01*
X69140000Y-35876000D02*
X69140000Y-40124000D01*
X69180000Y-35963000D02*
X69180000Y-40037000D01*
X69220000Y-36056000D02*
X69220000Y-39944000D01*
X69260000Y-36154000D02*
X69260000Y-39846000D01*
X69300000Y-36258000D02*
X69300000Y-39742000D01*
X69340000Y-36370000D02*
X69340000Y-39630000D01*
X69380000Y-36491000D02*
X69380000Y-39509000D01*
X69420000Y-36623000D02*
X69420000Y-39377000D01*
X69460000Y-36770000D02*
X69460000Y-39230000D01*
X69500000Y-36938000D02*
X69500000Y-39062000D01*
X69540000Y-37138000D02*
X69540000Y-38862000D01*
X69580000Y-37401000D02*
X69580000Y-38599000D01*
X69620000Y-38000000D02*
G75*
G02*
X59380000Y-38000000I-5120000J0D01*
G01*
X59380000Y-38000000D02*
G75*
G02*
X69620000Y-38000000I5120000J0D01*
G01*
%TO.C,D12*%
X94175000Y-73300000D02*
X94175000Y-75110000D01*
X94175000Y-83700000D02*
X94175000Y-81890000D01*
X95675000Y-73300000D02*
X94175000Y-73300000D01*
X95675000Y-83700000D02*
X94175000Y-83700000D01*
X91612500Y-75110000D02*
X91372500Y-74780000D01*
X91852500Y-74780000D01*
X91612500Y-75110000D01*
G36*
X91612500Y-75110000D02*
G01*
X91372500Y-74780000D01*
X91852500Y-74780000D01*
X91612500Y-75110000D01*
G37*
%TO.C,D13*%
X130175000Y-73300000D02*
X130175000Y-75110000D01*
X130175000Y-83700000D02*
X130175000Y-81890000D01*
X131675000Y-73300000D02*
X130175000Y-73300000D01*
X131675000Y-83700000D02*
X130175000Y-83700000D01*
X127612500Y-75110000D02*
X127372500Y-74780000D01*
X127852500Y-74780000D01*
X127612500Y-75110000D01*
G36*
X127612500Y-75110000D02*
G01*
X127372500Y-74780000D01*
X127852500Y-74780000D01*
X127612500Y-75110000D01*
G37*
%TO.C,D11*%
X58175000Y-73300000D02*
X58175000Y-75110000D01*
X58175000Y-83700000D02*
X58175000Y-81890000D01*
X59675000Y-73300000D02*
X58175000Y-73300000D01*
X59675000Y-83700000D02*
X58175000Y-83700000D01*
X55612500Y-75110000D02*
X55372500Y-74780000D01*
X55852500Y-74780000D01*
X55612500Y-75110000D01*
G36*
X55612500Y-75110000D02*
G01*
X55372500Y-74780000D01*
X55852500Y-74780000D01*
X55612500Y-75110000D01*
G37*
%TO.C,F11*%
D13*
X43970000Y-64950000D02*
X64030000Y-64950000D01*
X43970000Y-71050000D02*
X43970000Y-64950000D01*
X64030000Y-64950000D02*
X64030000Y-71050000D01*
X64030000Y-71050000D02*
X43970000Y-71050000D01*
D14*
X43870000Y-64820000D02*
G75*
G02*
X43810000Y-64820000I-30000J0D01*
G01*
X43810000Y-64820000D02*
G75*
G02*
X43870000Y-64820000I30000J0D01*
G01*
%TO.C,C13*%
D12*
X27859420Y-44490000D02*
X28140580Y-44490000D01*
X27859420Y-45510000D02*
X28140580Y-45510000D01*
%TO.C,C23*%
X162259420Y-27490000D02*
X162540580Y-27490000D01*
X162259420Y-28510000D02*
X162540580Y-28510000D01*
%TO.C,R55*%
X5762742Y-82477500D02*
X6237258Y-82477500D01*
X5762742Y-83522500D02*
X6237258Y-83522500D01*
%TO.C,D22*%
X100840000Y-65850000D02*
X100840000Y-70150000D01*
X100840000Y-65850000D02*
X106650000Y-65850000D01*
X100840000Y-70150000D02*
X106650000Y-70150000D01*
%TO.C,C32*%
X116359420Y-52990000D02*
X116640580Y-52990000D01*
X116359420Y-54010000D02*
X116640580Y-54010000D01*
%TO.C,C11*%
X93195225Y-25525000D02*
X93695225Y-25525000D01*
X93445225Y-25275000D02*
X93445225Y-25775000D01*
X96000000Y-24420000D02*
X96000000Y-25960000D01*
X96000000Y-28040000D02*
X96000000Y-29580000D01*
X96040000Y-24420000D02*
X96040000Y-25960000D01*
X96040000Y-28040000D02*
X96040000Y-29580000D01*
X96080000Y-24421000D02*
X96080000Y-25960000D01*
X96080000Y-28040000D02*
X96080000Y-29579000D01*
X96120000Y-24423000D02*
X96120000Y-25960000D01*
X96120000Y-28040000D02*
X96120000Y-29577000D01*
X96160000Y-24425000D02*
X96160000Y-25960000D01*
X96160000Y-28040000D02*
X96160000Y-29575000D01*
X96200000Y-24428000D02*
X96200000Y-25960000D01*
X96200000Y-28040000D02*
X96200000Y-29572000D01*
X96240000Y-24431000D02*
X96240000Y-25960000D01*
X96240000Y-28040000D02*
X96240000Y-29569000D01*
X96280000Y-24435000D02*
X96280000Y-25960000D01*
X96280000Y-28040000D02*
X96280000Y-29565000D01*
X96320000Y-24440000D02*
X96320000Y-25960000D01*
X96320000Y-28040000D02*
X96320000Y-29560000D01*
X96360000Y-24445000D02*
X96360000Y-25960000D01*
X96360000Y-28040000D02*
X96360000Y-29555000D01*
X96400000Y-24451000D02*
X96400000Y-25960000D01*
X96400000Y-28040000D02*
X96400000Y-29549000D01*
X96440000Y-24457000D02*
X96440000Y-25960000D01*
X96440000Y-28040000D02*
X96440000Y-29543000D01*
X96480000Y-24464000D02*
X96480000Y-25960000D01*
X96480000Y-28040000D02*
X96480000Y-29536000D01*
X96520000Y-24472000D02*
X96520000Y-25960000D01*
X96520000Y-28040000D02*
X96520000Y-29528000D01*
X96560000Y-24481000D02*
X96560000Y-25960000D01*
X96560000Y-28040000D02*
X96560000Y-29519000D01*
X96600000Y-24490000D02*
X96600000Y-25960000D01*
X96600000Y-28040000D02*
X96600000Y-29510000D01*
X96640000Y-24499000D02*
X96640000Y-25960000D01*
X96640000Y-28040000D02*
X96640000Y-29501000D01*
X96680000Y-24510000D02*
X96680000Y-25960000D01*
X96680000Y-28040000D02*
X96680000Y-29490000D01*
X96720000Y-24521000D02*
X96720000Y-25960000D01*
X96720000Y-28040000D02*
X96720000Y-29479000D01*
X96760000Y-24533000D02*
X96760000Y-25960000D01*
X96760000Y-28040000D02*
X96760000Y-29467000D01*
X96800000Y-24545000D02*
X96800000Y-25960000D01*
X96800000Y-28040000D02*
X96800000Y-29455000D01*
X96840000Y-24558000D02*
X96840000Y-25960000D01*
X96840000Y-28040000D02*
X96840000Y-29442000D01*
X96880000Y-24572000D02*
X96880000Y-25960000D01*
X96880000Y-28040000D02*
X96880000Y-29428000D01*
X96920000Y-24587000D02*
X96920000Y-25960000D01*
X96920000Y-28040000D02*
X96920000Y-29413000D01*
X96960000Y-24602000D02*
X96960000Y-25960000D01*
X96960000Y-28040000D02*
X96960000Y-29398000D01*
X97000000Y-24618000D02*
X97000000Y-25960000D01*
X97000000Y-28040000D02*
X97000000Y-29382000D01*
X97040000Y-24635000D02*
X97040000Y-25960000D01*
X97040000Y-28040000D02*
X97040000Y-29365000D01*
X97080000Y-24653000D02*
X97080000Y-25960000D01*
X97080000Y-28040000D02*
X97080000Y-29347000D01*
X97120000Y-24671000D02*
X97120000Y-25960000D01*
X97120000Y-28040000D02*
X97120000Y-29329000D01*
X97160000Y-24691000D02*
X97160000Y-25960000D01*
X97160000Y-28040000D02*
X97160000Y-29309000D01*
X97200000Y-24711000D02*
X97200000Y-25960000D01*
X97200000Y-28040000D02*
X97200000Y-29289000D01*
X97240000Y-24732000D02*
X97240000Y-25960000D01*
X97240000Y-28040000D02*
X97240000Y-29268000D01*
X97280000Y-24754000D02*
X97280000Y-25960000D01*
X97280000Y-28040000D02*
X97280000Y-29246000D01*
X97320000Y-24777000D02*
X97320000Y-25960000D01*
X97320000Y-28040000D02*
X97320000Y-29223000D01*
X97360000Y-24801000D02*
X97360000Y-25960000D01*
X97360000Y-28040000D02*
X97360000Y-29199000D01*
X97400000Y-24825000D02*
X97400000Y-25960000D01*
X97400000Y-28040000D02*
X97400000Y-29175000D01*
X97440000Y-24851000D02*
X97440000Y-25960000D01*
X97440000Y-28040000D02*
X97440000Y-29149000D01*
X97480000Y-24878000D02*
X97480000Y-25960000D01*
X97480000Y-28040000D02*
X97480000Y-29122000D01*
X97520000Y-24906000D02*
X97520000Y-25960000D01*
X97520000Y-28040000D02*
X97520000Y-29094000D01*
X97560000Y-24935000D02*
X97560000Y-25960000D01*
X97560000Y-28040000D02*
X97560000Y-29065000D01*
X97600000Y-24965000D02*
X97600000Y-25960000D01*
X97600000Y-28040000D02*
X97600000Y-29035000D01*
X97640000Y-24997000D02*
X97640000Y-25960000D01*
X97640000Y-28040000D02*
X97640000Y-29003000D01*
X97680000Y-25030000D02*
X97680000Y-25960000D01*
X97680000Y-28040000D02*
X97680000Y-28970000D01*
X97720000Y-25064000D02*
X97720000Y-25960000D01*
X97720000Y-28040000D02*
X97720000Y-28936000D01*
X97760000Y-25099000D02*
X97760000Y-25960000D01*
X97760000Y-28040000D02*
X97760000Y-28901000D01*
X97800000Y-25136000D02*
X97800000Y-25960000D01*
X97800000Y-28040000D02*
X97800000Y-28864000D01*
X97840000Y-25175000D02*
X97840000Y-25960000D01*
X97840000Y-28040000D02*
X97840000Y-28825000D01*
X97880000Y-25215000D02*
X97880000Y-25960000D01*
X97880000Y-28040000D02*
X97880000Y-28785000D01*
X97920000Y-25257000D02*
X97920000Y-25960000D01*
X97920000Y-28040000D02*
X97920000Y-28743000D01*
X97960000Y-25301000D02*
X97960000Y-25960000D01*
X97960000Y-28040000D02*
X97960000Y-28699000D01*
X98000000Y-25348000D02*
X98000000Y-25960000D01*
X98000000Y-28040000D02*
X98000000Y-28652000D01*
X98040000Y-25396000D02*
X98040000Y-28604000D01*
X98080000Y-25447000D02*
X98080000Y-28553000D01*
X98120000Y-25501000D02*
X98120000Y-28499000D01*
X98160000Y-25557000D02*
X98160000Y-28443000D01*
X98200000Y-25617000D02*
X98200000Y-28383000D01*
X98240000Y-25681000D02*
X98240000Y-28319000D01*
X98280000Y-25749000D02*
X98280000Y-28251000D01*
X98320000Y-25823000D02*
X98320000Y-28177000D01*
X98360000Y-25902000D02*
X98360000Y-28098000D01*
X98400000Y-25989000D02*
X98400000Y-28011000D01*
X98440000Y-26086000D02*
X98440000Y-27914000D01*
X98480000Y-26195000D02*
X98480000Y-27805000D01*
X98520000Y-26323000D02*
X98520000Y-27677000D01*
X98560000Y-26483000D02*
X98560000Y-27517000D01*
X98600000Y-26717000D02*
X98600000Y-27283000D01*
X98620000Y-27000000D02*
G75*
G02*
X93380000Y-27000000I-2620000J0D01*
G01*
X93380000Y-27000000D02*
G75*
G02*
X98620000Y-27000000I2620000J0D01*
G01*
%TO.C,J6*%
D13*
X119260000Y-2000000D02*
X131420000Y-2000000D01*
X131420000Y-14000000D01*
X119260000Y-14000000D01*
X119260000Y-2000000D01*
%TO.C,R10*%
D12*
X111762742Y-35477500D02*
X112237258Y-35477500D01*
X111762742Y-36522500D02*
X112237258Y-36522500D01*
%TO.C,R16*%
X106762742Y-21477500D02*
X107237258Y-21477500D01*
X106762742Y-22522500D02*
X107237258Y-22522500D01*
%TO.C,R26*%
X162162742Y-19477500D02*
X162637258Y-19477500D01*
X162162742Y-20522500D02*
X162637258Y-20522500D01*
%TO.C,U11*%
X148940000Y-43565000D02*
X153060000Y-43565000D01*
X148940000Y-43630000D02*
X148940000Y-43565000D01*
X148940000Y-52435000D02*
X148940000Y-52370000D01*
X153060000Y-43565000D02*
X153060000Y-43630000D01*
X153060000Y-52370000D02*
X153060000Y-52435000D01*
X153060000Y-52435000D02*
X148940000Y-52435000D01*
X148400000Y-43630000D02*
X148160000Y-43300000D01*
X148640000Y-43300000D01*
X148400000Y-43630000D01*
G36*
X148400000Y-43630000D02*
G01*
X148160000Y-43300000D01*
X148640000Y-43300000D01*
X148400000Y-43630000D01*
G37*
%TO.C,C3*%
X25859420Y-60490000D02*
X26140580Y-60490000D01*
X25859420Y-61510000D02*
X26140580Y-61510000D01*
%TO.C,C37*%
X143238748Y-52765000D02*
X143761252Y-52765000D01*
X143238748Y-54235000D02*
X143761252Y-54235000D01*
%TO.C,R25*%
X153962742Y-23477500D02*
X154437258Y-23477500D01*
X153962742Y-24522500D02*
X154437258Y-24522500D01*
%TO.C,F13*%
D13*
X115970000Y-64950000D02*
X136030000Y-64950000D01*
X115970000Y-71050000D02*
X115970000Y-64950000D01*
X136030000Y-64950000D02*
X136030000Y-71050000D01*
X136030000Y-71050000D02*
X115970000Y-71050000D01*
D14*
X115870000Y-64820000D02*
G75*
G02*
X115810000Y-64820000I-30000J0D01*
G01*
X115810000Y-64820000D02*
G75*
G02*
X115870000Y-64820000I30000J0D01*
G01*
%TO.C,Q1*%
D13*
X36400000Y-32000000D02*
X36400000Y-38000000D01*
X41600000Y-32000000D02*
X41600000Y-38000000D01*
X36460000Y-38460000D02*
G75*
G02*
X36240000Y-38460000I-110000J0D01*
G01*
X36240000Y-38460000D02*
G75*
G02*
X36460000Y-38460000I110000J0D01*
G01*
D14*
X36530000Y-38010000D02*
G75*
G02*
X36470000Y-38010000I-30000J0D01*
G01*
X36470000Y-38010000D02*
G75*
G02*
X36530000Y-38010000I30000J0D01*
G01*
%TO.C,U7*%
D12*
X116940000Y-56440000D02*
X121060000Y-56440000D01*
X116940000Y-56535000D02*
X116940000Y-56440000D01*
X116940000Y-61560000D02*
X116940000Y-61465000D01*
X121060000Y-56440000D02*
X121060000Y-56535000D01*
X121060000Y-61465000D02*
X121060000Y-61560000D01*
X121060000Y-61560000D02*
X116940000Y-61560000D01*
X116400000Y-56530000D02*
X116160000Y-56200000D01*
X116640000Y-56200000D01*
X116400000Y-56530000D01*
G36*
X116400000Y-56530000D02*
G01*
X116160000Y-56200000D01*
X116640000Y-56200000D01*
X116400000Y-56530000D01*
G37*
%TO.C,R19*%
X117262742Y-26477500D02*
X117737258Y-26477500D01*
X117262742Y-27522500D02*
X117737258Y-27522500D01*
%TO.C,J9*%
D13*
X158860000Y-2000000D02*
X171020000Y-2000000D01*
X171020000Y-14000000D01*
X158860000Y-14000000D01*
X158860000Y-2000000D01*
%TO.C,R40*%
D12*
X5762742Y-75477500D02*
X6237258Y-75477500D01*
X5762742Y-76522500D02*
X6237258Y-76522500D01*
%TO.C,R57*%
X77762742Y-82477500D02*
X78237258Y-82477500D01*
X77762742Y-83522500D02*
X78237258Y-83522500D01*
%TO.C,J8*%
D13*
X145660000Y-2000000D02*
X157820000Y-2000000D01*
X157820000Y-14000000D01*
X145660000Y-14000000D01*
X145660000Y-2000000D01*
%TO.C,C34*%
D12*
X138359420Y-52990000D02*
X138640580Y-52990000D01*
X138359420Y-54010000D02*
X138640580Y-54010000D01*
%TO.C,C30*%
X93859420Y-52990000D02*
X94140580Y-52990000D01*
X93859420Y-54010000D02*
X94140580Y-54010000D01*
%TO.C,C31*%
X105859420Y-52990000D02*
X106140580Y-52990000D01*
X105859420Y-54010000D02*
X106140580Y-54010000D01*
%TO.C,R22*%
X135762742Y-19477500D02*
X136237258Y-19477500D01*
X135762742Y-20522500D02*
X136237258Y-20522500D01*
%TO.C,J5*%
D13*
X100960000Y-2000000D02*
X118200000Y-2000000D01*
X118200000Y-14000000D01*
X100960000Y-14000000D01*
X100960000Y-2000000D01*
%TO.C,R52*%
D12*
X77762742Y-78977500D02*
X78237258Y-78977500D01*
X77762742Y-80022500D02*
X78237258Y-80022500D01*
%TO.C,R14*%
X125762742Y-51477500D02*
X126237258Y-51477500D01*
X125762742Y-52522500D02*
X126237258Y-52522500D01*
%TO.C,C21*%
X135859420Y-27490000D02*
X136140580Y-27490000D01*
X135859420Y-28510000D02*
X136140580Y-28510000D01*
%TO.C,D21*%
X64840000Y-65850000D02*
X64840000Y-70150000D01*
X64840000Y-65850000D02*
X70650000Y-65850000D01*
X64840000Y-70150000D02*
X70650000Y-70150000D01*
%TO.C,R21*%
X127562742Y-23477500D02*
X128037258Y-23477500D01*
X127562742Y-24522500D02*
X128037258Y-24522500D01*
%TO.C,R2*%
X17762742Y-54477500D02*
X18237258Y-54477500D01*
X17762742Y-55522500D02*
X18237258Y-55522500D01*
%TO.C,R56*%
X41762742Y-82477500D02*
X42237258Y-82477500D01*
X41762742Y-83522500D02*
X42237258Y-83522500D01*
%TO.C,J3*%
D13*
X54160000Y-2000000D02*
X76480000Y-2000000D01*
X76480000Y-14000000D01*
X54160000Y-14000000D01*
X54160000Y-2000000D01*
%TO.C,D30*%
D10*
X127300000Y-31500000D02*
X128300000Y-31500000D01*
X127300000Y-32500000D02*
X128300000Y-32500000D01*
D15*
G36*
X127800127Y-32000000D02*
G01*
X127800000Y-32000000D01*
X127700000Y-32200000D01*
X127700000Y-31800000D01*
X127800127Y-32000000D01*
G37*
G36*
X127901219Y-32198196D02*
G01*
X127801092Y-31998197D01*
X127801219Y-31998197D01*
X127901219Y-31798197D01*
X127901219Y-32198196D01*
G37*
%TO.C,U12*%
D12*
X113090000Y-31440000D02*
X114910000Y-31440000D01*
X113090000Y-31490000D02*
X113090000Y-31440000D01*
X113090000Y-34560000D02*
X113090000Y-34510000D01*
X114910000Y-31440000D02*
X114910000Y-31490000D01*
X114910000Y-32610000D02*
X114910000Y-33390000D01*
X114910000Y-34510000D02*
X114910000Y-34560000D01*
X114910000Y-34560000D02*
X113090000Y-34560000D01*
X112550000Y-31490000D02*
X112310000Y-31160000D01*
X112790000Y-31160000D01*
X112550000Y-31490000D01*
G36*
X112550000Y-31490000D02*
G01*
X112310000Y-31160000D01*
X112790000Y-31160000D01*
X112550000Y-31490000D01*
G37*
%TO.C,Q2*%
D13*
X10400000Y-82500000D02*
X10400000Y-76500000D01*
X15600000Y-82500000D02*
X15600000Y-76500000D01*
D14*
X15530000Y-76490000D02*
G75*
G02*
X15470000Y-76490000I-30000J0D01*
G01*
X15470000Y-76490000D02*
G75*
G02*
X15530000Y-76490000I30000J0D01*
G01*
D13*
X15760000Y-76040000D02*
G75*
G02*
X15540000Y-76040000I-110000J0D01*
G01*
X15540000Y-76040000D02*
G75*
G02*
X15760000Y-76040000I110000J0D01*
G01*
%TO.C,J2*%
X30760000Y-2000000D02*
X53080000Y-2000000D01*
X53080000Y-14000000D01*
X30760000Y-14000000D01*
X30760000Y-2000000D01*
%TO.C,R18*%
D12*
X117262742Y-21477500D02*
X117737258Y-21477500D01*
X117262742Y-22522500D02*
X117737258Y-22522500D01*
%TO.C,C2*%
X67288748Y-59090000D02*
X68711252Y-59090000D01*
X67288748Y-60910000D02*
X68711252Y-60910000D01*
%TO.C,R12*%
X115772936Y-46265000D02*
X116227064Y-46265000D01*
X115772936Y-47735000D02*
X116227064Y-47735000D01*
%TO.C,F10*%
D13*
X7970000Y-64950000D02*
X28030000Y-64950000D01*
X7970000Y-71050000D02*
X7970000Y-64950000D01*
X28030000Y-64950000D02*
X28030000Y-71050000D01*
X28030000Y-71050000D02*
X7970000Y-71050000D01*
D14*
X7870000Y-64820000D02*
G75*
G02*
X7810000Y-64820000I-30000J0D01*
G01*
X7810000Y-64820000D02*
G75*
G02*
X7870000Y-64820000I30000J0D01*
G01*
%TO.C,R20*%
D12*
X122562742Y-19477500D02*
X123037258Y-19477500D01*
X122562742Y-20522500D02*
X123037258Y-20522500D01*
%TD*%
%LPC*%
D17*
%TO.C,F14*%
X162000000Y-68000000D03*
D18*
X155600000Y-66750000D03*
X155600000Y-69250000D03*
X159100000Y-66880000D03*
X159100000Y-69250000D03*
X164900000Y-66750000D03*
X164900000Y-69250000D03*
X168400000Y-66750000D03*
X168400000Y-69250000D03*
%TD*%
D19*
%TO.C,D34*%
X104000000Y-18000000D03*
X105000000Y-18000000D03*
%TD*%
D20*
%TO.C,F2*%
X64600000Y-52000000D03*
X67400000Y-52000000D03*
%TD*%
D21*
%TO.C,JP1*%
X126000000Y-46500000D03*
D22*
X126000000Y-49040000D03*
%TD*%
D23*
%TO.C,J4*%
X81100000Y-5000000D03*
D24*
X86180000Y-5000000D03*
X91260000Y-5000000D03*
X96340000Y-5000000D03*
%TD*%
D25*
%TO.C,R58*%
X113175000Y-83000000D03*
X114825000Y-83000000D03*
%TD*%
%TO.C,R42*%
X77175000Y-76000000D03*
X78825000Y-76000000D03*
%TD*%
D26*
%TO.C,C36*%
X131550000Y-53500000D03*
X133450000Y-53500000D03*
%TD*%
D27*
%TO.C,U3*%
X100525000Y-37095000D03*
X100525000Y-38365000D03*
X100525000Y-39635000D03*
X100525000Y-40905000D03*
X105475000Y-40905000D03*
X105475000Y-39635000D03*
X105475000Y-38365000D03*
X105475000Y-37095000D03*
%TD*%
D26*
%TO.C,C35*%
X120550000Y-53500000D03*
X122450000Y-53500000D03*
%TD*%
D28*
%TO.C,U6*%
X102190000Y-61475000D03*
X103460000Y-61475000D03*
X104730000Y-61475000D03*
X106000000Y-61475000D03*
X107270000Y-61475000D03*
X108540000Y-61475000D03*
X109810000Y-61475000D03*
X109810000Y-56525000D03*
X108540000Y-56525000D03*
X107270000Y-56525000D03*
X106000000Y-56525000D03*
X104730000Y-56525000D03*
X103460000Y-56525000D03*
X102190000Y-56525000D03*
%TD*%
D25*
%TO.C,R53*%
X113175000Y-79500000D03*
X114825000Y-79500000D03*
%TD*%
D17*
%TO.C,F1*%
X22000000Y-35000000D03*
D18*
X15600000Y-33750000D03*
X15600000Y-36250000D03*
X19100000Y-33880000D03*
X19100000Y-36250000D03*
X24900000Y-33750000D03*
X24900000Y-36250000D03*
X28400000Y-33750000D03*
X28400000Y-36250000D03*
%TD*%
D29*
%TO.C,C24*%
X157225000Y-48000000D03*
X158775000Y-48000000D03*
%TD*%
D30*
%TO.C,D24*%
X159850000Y-62000000D03*
X164150000Y-62000000D03*
%TD*%
D29*
%TO.C,C33*%
X126725000Y-53500000D03*
X128275000Y-53500000D03*
%TD*%
D27*
%TO.C,U9*%
X138525000Y-57095000D03*
X138525000Y-58365000D03*
X138525000Y-59635000D03*
X138525000Y-60905000D03*
X143475000Y-60905000D03*
X143475000Y-59635000D03*
X143475000Y-58365000D03*
X143475000Y-57095000D03*
%TD*%
D25*
%TO.C,R13*%
X115175000Y-52000000D03*
X116825000Y-52000000D03*
%TD*%
%TO.C,R1*%
X9175000Y-55000000D03*
X10825000Y-55000000D03*
%TD*%
D31*
%TO.C,U1*%
X71935000Y-34380000D03*
X71935000Y-36920000D03*
X71935000Y-39460000D03*
X71935000Y-42000000D03*
X71935000Y-44540000D03*
X71935000Y-47080000D03*
X71935000Y-49620000D03*
X88100000Y-49620000D03*
X88100000Y-47080000D03*
X88100000Y-44540000D03*
X88100000Y-42000000D03*
X88100000Y-39460000D03*
X88100000Y-36920000D03*
X88100000Y-34380000D03*
D22*
X78716600Y-33358500D03*
X81256600Y-33358500D03*
X78716600Y-35898500D03*
X81256600Y-35898500D03*
X78716600Y-38438500D03*
X81256600Y-38438500D03*
X78716600Y-40978500D03*
X81164000Y-40921700D03*
D32*
X78208600Y-47531700D03*
X80748600Y-47531700D03*
%TD*%
D33*
%TO.C,Q3*%
X47090000Y-76500000D03*
D34*
X50910000Y-82500000D03*
X49640000Y-82500000D03*
D35*
X49000000Y-79890000D03*
D34*
X48370000Y-82500000D03*
X47100000Y-82500000D03*
D33*
X50900000Y-76500000D03*
X49640000Y-76500000D03*
X48360000Y-76500000D03*
%TD*%
D27*
%TO.C,U8*%
X127525000Y-57095000D03*
X127525000Y-58365000D03*
X127525000Y-59635000D03*
X127525000Y-60905000D03*
X132475000Y-60905000D03*
X132475000Y-59635000D03*
X132475000Y-58365000D03*
X132475000Y-57095000D03*
%TD*%
D25*
%TO.C,R59*%
X149175000Y-83000000D03*
X150825000Y-83000000D03*
%TD*%
%TO.C,R23*%
X140175000Y-24000000D03*
X141825000Y-24000000D03*
%TD*%
D21*
%TO.C,J12*%
X93810000Y-109515000D03*
D22*
X93810000Y-107685000D03*
X93810000Y-105855000D03*
X86190000Y-109515000D03*
X86190000Y-107685000D03*
X86190000Y-105855000D03*
%TD*%
D36*
%TO.C,D14*%
X163350000Y-75960000D03*
D37*
X172500000Y-78500000D03*
D36*
X163350000Y-81040000D03*
%TD*%
D38*
%TO.C,U13*%
X19020000Y-48130000D03*
X19680000Y-48130000D03*
X20330000Y-48130000D03*
X20980000Y-48130000D03*
X20980000Y-43870000D03*
X20330000Y-43870000D03*
X19680000Y-43870000D03*
X19020000Y-43870000D03*
%TD*%
D25*
%TO.C,R8*%
X79175000Y-56500000D03*
X80825000Y-56500000D03*
%TD*%
D30*
%TO.C,D20*%
X30350000Y-68000000D03*
X34650000Y-68000000D03*
%TD*%
D25*
%TO.C,R51*%
X41175000Y-79500000D03*
X42825000Y-79500000D03*
%TD*%
%TO.C,R9*%
X95175000Y-41000000D03*
X96825000Y-41000000D03*
%TD*%
%TO.C,R3*%
X25175000Y-55000000D03*
X26825000Y-55000000D03*
%TD*%
D33*
%TO.C,Q6*%
X155090000Y-76500000D03*
D34*
X158910000Y-82500000D03*
X157640000Y-82500000D03*
D35*
X157000000Y-79890000D03*
D34*
X156370000Y-82500000D03*
X155100000Y-82500000D03*
D33*
X158900000Y-76500000D03*
X157640000Y-76500000D03*
X156360000Y-76500000D03*
%TD*%
D25*
%TO.C,R24*%
X148375000Y-20000000D03*
X150025000Y-20000000D03*
%TD*%
%TO.C,R17*%
X106175000Y-27000000D03*
X107825000Y-27000000D03*
%TD*%
D26*
%TO.C,C6*%
X11050000Y-46000000D03*
X12950000Y-46000000D03*
%TD*%
D39*
%TO.C,C9*%
X48525000Y-60000000D03*
X51475000Y-60000000D03*
%TD*%
D21*
%TO.C,J1*%
X16890000Y-5210000D03*
D22*
X16890000Y-7040000D03*
X16890000Y-8870000D03*
X24510000Y-5210000D03*
X24510000Y-7040000D03*
X24510000Y-8870000D03*
%TD*%
D39*
%TO.C,C8*%
X36525000Y-60000000D03*
X39475000Y-60000000D03*
%TD*%
D30*
%TO.C,D1*%
X49850000Y-36000000D03*
X54150000Y-36000000D03*
%TD*%
D25*
%TO.C,R54*%
X149175000Y-79500000D03*
X150825000Y-79500000D03*
%TD*%
%TO.C,R44*%
X149175000Y-76000000D03*
X150825000Y-76000000D03*
%TD*%
D28*
%TO.C,U5*%
X90190000Y-61475000D03*
X91460000Y-61475000D03*
X92730000Y-61475000D03*
X94000000Y-61475000D03*
X95270000Y-61475000D03*
X96540000Y-61475000D03*
X97810000Y-61475000D03*
X97810000Y-56525000D03*
X96540000Y-56525000D03*
X95270000Y-56525000D03*
X94000000Y-56525000D03*
X92730000Y-56525000D03*
X91460000Y-56525000D03*
X90190000Y-56525000D03*
%TD*%
D40*
%TO.C,D3*%
X32062500Y-56050000D03*
X32062500Y-57950000D03*
X33937500Y-57000000D03*
%TD*%
D29*
%TO.C,C22*%
X148425000Y-28000000D03*
X149975000Y-28000000D03*
%TD*%
D41*
%TO.C,H3*%
X4000000Y-111000000D03*
%TD*%
D21*
%TO.C,J14*%
X165810000Y-109515000D03*
D22*
X165810000Y-107685000D03*
X165810000Y-105855000D03*
X158190000Y-109515000D03*
X158190000Y-107685000D03*
X158190000Y-105855000D03*
%TD*%
D17*
%TO.C,F12*%
X90000000Y-68000000D03*
D18*
X83600000Y-66750000D03*
X83600000Y-69250000D03*
X87100000Y-66880000D03*
X87100000Y-69250000D03*
X92900000Y-66750000D03*
X92900000Y-69250000D03*
X96400000Y-66750000D03*
X96400000Y-69250000D03*
%TD*%
D39*
%TO.C,C10*%
X59525000Y-60000000D03*
X62475000Y-60000000D03*
%TD*%
D21*
%TO.C,J13*%
X129810000Y-109515000D03*
D22*
X129810000Y-107685000D03*
X129810000Y-105855000D03*
X122190000Y-109515000D03*
X122190000Y-107685000D03*
X122190000Y-105855000D03*
%TD*%
D33*
%TO.C,Q4*%
X83090000Y-76500000D03*
D34*
X86910000Y-82500000D03*
X85640000Y-82500000D03*
D35*
X85000000Y-79890000D03*
D34*
X84370000Y-82500000D03*
X83100000Y-82500000D03*
D33*
X86900000Y-76500000D03*
X85640000Y-76500000D03*
X84360000Y-76500000D03*
%TD*%
D36*
%TO.C,D10*%
X19350000Y-75960000D03*
D37*
X28500000Y-78500000D03*
D36*
X19350000Y-81040000D03*
%TD*%
D42*
%TO.C,F3*%
X93862500Y-20000000D03*
X98137500Y-20000000D03*
%TD*%
D41*
%TO.C,H4*%
X176000000Y-111000000D03*
%TD*%
D29*
%TO.C,C5*%
X95225000Y-35000000D03*
X96775000Y-35000000D03*
%TD*%
%TO.C,C20*%
X122025000Y-28000000D03*
X123575000Y-28000000D03*
%TD*%
D21*
%TO.C,J11*%
X57810000Y-109515000D03*
D22*
X57810000Y-107685000D03*
X57810000Y-105855000D03*
X50190000Y-109515000D03*
X50190000Y-107685000D03*
X50190000Y-105855000D03*
%TD*%
D41*
%TO.C,H2*%
X176000000Y-4000000D03*
%TD*%
D40*
%TO.C,D2*%
X119062500Y-38050000D03*
X119062500Y-39950000D03*
X120937500Y-39000000D03*
%TD*%
D21*
%TO.C,J10*%
X21810000Y-109515000D03*
D22*
X21810000Y-107685000D03*
X21810000Y-105855000D03*
X14190000Y-109515000D03*
X14190000Y-107685000D03*
X14190000Y-105855000D03*
%TD*%
D29*
%TO.C,C12*%
X106225000Y-31000000D03*
X107775000Y-31000000D03*
%TD*%
D19*
%TO.C,D31*%
X140500000Y-32000000D03*
X141500000Y-32000000D03*
%TD*%
D43*
%TO.C,L1*%
X55750000Y-52000000D03*
X60250000Y-52000000D03*
%TD*%
D25*
%TO.C,R41*%
X41175000Y-76000000D03*
X42825000Y-76000000D03*
%TD*%
D23*
%TO.C,J7*%
X136000000Y-5000000D03*
D24*
X141080000Y-5000000D03*
%TD*%
D19*
%TO.C,D33*%
X166900000Y-32000000D03*
X167900000Y-32000000D03*
%TD*%
D41*
%TO.C,H1*%
X4000000Y-4000000D03*
%TD*%
D25*
%TO.C,R11*%
X111175000Y-42000000D03*
X112825000Y-42000000D03*
%TD*%
%TO.C,R43*%
X113175000Y-76000000D03*
X114825000Y-76000000D03*
%TD*%
D33*
%TO.C,Q5*%
X119090000Y-76500000D03*
D34*
X122910000Y-82500000D03*
X121640000Y-82500000D03*
D35*
X121000000Y-79890000D03*
D34*
X120370000Y-82500000D03*
X119100000Y-82500000D03*
D33*
X122900000Y-76500000D03*
X121640000Y-76500000D03*
X120360000Y-76500000D03*
%TD*%
D25*
%TO.C,R27*%
X166575000Y-24000000D03*
X168225000Y-24000000D03*
%TD*%
D29*
%TO.C,C7*%
X50225000Y-45500000D03*
X51775000Y-45500000D03*
%TD*%
D30*
%TO.C,D23*%
X138350000Y-68000000D03*
X142650000Y-68000000D03*
%TD*%
D19*
%TO.C,D32*%
X153700000Y-32000000D03*
X154700000Y-32000000D03*
%TD*%
D25*
%TO.C,R50*%
X5175000Y-79500000D03*
X6825000Y-79500000D03*
%TD*%
D44*
%TO.C,U4*%
X44862500Y-51050000D03*
X44862500Y-52000000D03*
X44862500Y-52950000D03*
X47137500Y-52950000D03*
X47137500Y-52000000D03*
X47137500Y-51050000D03*
%TD*%
D45*
%TO.C,C1*%
X62000000Y-38000000D03*
D18*
X67000000Y-38000000D03*
%TD*%
D36*
%TO.C,D12*%
X91350000Y-75960000D03*
D37*
X100500000Y-78500000D03*
D36*
X91350000Y-81040000D03*
%TD*%
%TO.C,D13*%
X127350000Y-75960000D03*
D37*
X136500000Y-78500000D03*
D36*
X127350000Y-81040000D03*
%TD*%
%TO.C,D11*%
X55350000Y-75960000D03*
D37*
X64500000Y-78500000D03*
D36*
X55350000Y-81040000D03*
%TD*%
D17*
%TO.C,F11*%
X54000000Y-68000000D03*
D18*
X47600000Y-66750000D03*
X47600000Y-69250000D03*
X51100000Y-66880000D03*
X51100000Y-69250000D03*
X56900000Y-66750000D03*
X56900000Y-69250000D03*
X60400000Y-66750000D03*
X60400000Y-69250000D03*
%TD*%
D29*
%TO.C,C13*%
X27225000Y-45000000D03*
X28775000Y-45000000D03*
%TD*%
%TO.C,C23*%
X161625000Y-28000000D03*
X163175000Y-28000000D03*
%TD*%
D25*
%TO.C,R55*%
X5175000Y-83000000D03*
X6825000Y-83000000D03*
%TD*%
D30*
%TO.C,D22*%
X102350000Y-68000000D03*
X106650000Y-68000000D03*
%TD*%
D29*
%TO.C,C32*%
X115725000Y-53500000D03*
X117275000Y-53500000D03*
%TD*%
D46*
%TO.C,C11*%
X95000000Y-27000000D03*
D47*
X97000000Y-27000000D03*
%TD*%
D23*
%TO.C,J6*%
X122800000Y-5000000D03*
D24*
X127880000Y-5000000D03*
%TD*%
D25*
%TO.C,R10*%
X111175000Y-36000000D03*
X112825000Y-36000000D03*
%TD*%
%TO.C,R16*%
X106175000Y-22000000D03*
X107825000Y-22000000D03*
%TD*%
%TO.C,R26*%
X161575000Y-20000000D03*
X163225000Y-20000000D03*
%TD*%
D27*
%TO.C,U11*%
X148525000Y-44190000D03*
X148525000Y-45460000D03*
X148525000Y-46730000D03*
X148525000Y-48000000D03*
X148525000Y-49270000D03*
X148525000Y-50540000D03*
X148525000Y-51810000D03*
X153475000Y-51810000D03*
X153475000Y-50540000D03*
X153475000Y-49270000D03*
X153475000Y-48000000D03*
X153475000Y-46730000D03*
X153475000Y-45460000D03*
X153475000Y-44190000D03*
%TD*%
D29*
%TO.C,C3*%
X25225000Y-61000000D03*
X26775000Y-61000000D03*
%TD*%
D26*
%TO.C,C37*%
X142550000Y-53500000D03*
X144450000Y-53500000D03*
%TD*%
D25*
%TO.C,R25*%
X153375000Y-24000000D03*
X155025000Y-24000000D03*
%TD*%
D17*
%TO.C,F13*%
X126000000Y-68000000D03*
D18*
X119600000Y-66750000D03*
X119600000Y-69250000D03*
X123100000Y-66880000D03*
X123100000Y-69250000D03*
X128900000Y-66750000D03*
X128900000Y-69250000D03*
X132400000Y-66750000D03*
X132400000Y-69250000D03*
%TD*%
D33*
%TO.C,Q1*%
X40910000Y-38000000D03*
D34*
X37090000Y-32000000D03*
X38360000Y-32000000D03*
D35*
X39000000Y-34610000D03*
D34*
X39630000Y-32000000D03*
X40900000Y-32000000D03*
D33*
X37100000Y-38000000D03*
X38360000Y-38000000D03*
X39640000Y-38000000D03*
%TD*%
D27*
%TO.C,U7*%
X116525000Y-57095000D03*
X116525000Y-58365000D03*
X116525000Y-59635000D03*
X116525000Y-60905000D03*
X121475000Y-60905000D03*
X121475000Y-59635000D03*
X121475000Y-58365000D03*
X121475000Y-57095000D03*
%TD*%
D25*
%TO.C,R19*%
X116675000Y-27000000D03*
X118325000Y-27000000D03*
%TD*%
D23*
%TO.C,J9*%
X162400000Y-5000000D03*
D24*
X167480000Y-5000000D03*
%TD*%
D25*
%TO.C,R40*%
X5175000Y-76000000D03*
X6825000Y-76000000D03*
%TD*%
%TO.C,R57*%
X77175000Y-83000000D03*
X78825000Y-83000000D03*
%TD*%
D23*
%TO.C,J8*%
X149200000Y-5000000D03*
D24*
X154280000Y-5000000D03*
%TD*%
D29*
%TO.C,C34*%
X137725000Y-53500000D03*
X139275000Y-53500000D03*
%TD*%
%TO.C,C30*%
X93225000Y-53500000D03*
X94775000Y-53500000D03*
%TD*%
%TO.C,C31*%
X105225000Y-53500000D03*
X106775000Y-53500000D03*
%TD*%
D25*
%TO.C,R22*%
X135175000Y-20000000D03*
X136825000Y-20000000D03*
%TD*%
D23*
%TO.C,J5*%
X104500000Y-5000000D03*
D24*
X109580000Y-5000000D03*
X114660000Y-5000000D03*
%TD*%
D25*
%TO.C,R52*%
X77175000Y-79500000D03*
X78825000Y-79500000D03*
%TD*%
%TO.C,R14*%
X125175000Y-52000000D03*
X126825000Y-52000000D03*
%TD*%
D29*
%TO.C,C21*%
X135225000Y-28000000D03*
X136775000Y-28000000D03*
%TD*%
D30*
%TO.C,D21*%
X66350000Y-68000000D03*
X70650000Y-68000000D03*
%TD*%
D25*
%TO.C,R21*%
X126975000Y-24000000D03*
X128625000Y-24000000D03*
%TD*%
%TO.C,R2*%
X17175000Y-55000000D03*
X18825000Y-55000000D03*
%TD*%
%TO.C,R56*%
X41175000Y-83000000D03*
X42825000Y-83000000D03*
%TD*%
D23*
%TO.C,J3*%
X57700000Y-5000000D03*
D24*
X62780000Y-5000000D03*
X67860000Y-5000000D03*
X72940000Y-5000000D03*
%TD*%
D19*
%TO.C,D30*%
X127300000Y-32000000D03*
X128300000Y-32000000D03*
%TD*%
D44*
%TO.C,U12*%
X112862500Y-32050000D03*
X112862500Y-33000000D03*
X112862500Y-33950000D03*
X115137500Y-33950000D03*
X115137500Y-32050000D03*
%TD*%
D33*
%TO.C,Q2*%
X11090000Y-76500000D03*
D34*
X14910000Y-82500000D03*
X13640000Y-82500000D03*
D35*
X13000000Y-79890000D03*
D34*
X12370000Y-82500000D03*
X11100000Y-82500000D03*
D33*
X14900000Y-76500000D03*
X13640000Y-76500000D03*
X12360000Y-76500000D03*
%TD*%
D23*
%TO.C,J2*%
X34300000Y-5000000D03*
D24*
X39380000Y-5000000D03*
X44460000Y-5000000D03*
X49540000Y-5000000D03*
%TD*%
D25*
%TO.C,R18*%
X116675000Y-22000000D03*
X118325000Y-22000000D03*
%TD*%
D39*
%TO.C,C2*%
X66525000Y-60000000D03*
X69475000Y-60000000D03*
%TD*%
D48*
%TO.C,R12*%
X115087500Y-47000000D03*
X116912500Y-47000000D03*
%TD*%
D17*
%TO.C,F10*%
X18000000Y-68000000D03*
D18*
X11600000Y-66750000D03*
X11600000Y-69250000D03*
X15100000Y-66880000D03*
X15100000Y-69250000D03*
X20900000Y-66750000D03*
X20900000Y-69250000D03*
X24400000Y-66750000D03*
X24400000Y-69250000D03*
%TD*%
D25*
%TO.C,R20*%
X121975000Y-20000000D03*
X123625000Y-20000000D03*
%TD*%
%LPD*%
M02*
