#VRML V2.0 utf8
# 3D model generated by easyeda2kicad.py (https://github.com/uPesy/easyeda2kicad.py)

Shape{
    appearance Appearance {
        material  Material 	{
            diffuseColor 0.25098039215686274 0.25098039215686274 0.25098039215686274
            specularColor 0.12549019607843137 0.12549019607843137 0.12549019607843137
            ambientIntensity 0.251
            transparency 0.0
            shininess 0.5
        }
    }
    geometry IndexedFaceSet {
        ccw TRUE
        solid FALSE
        coord DEF co Coordinate {
            point [
                -0.187 -0.1181 0.0079, -0.1969 -0.1181 0.0079, -0.1969 -0.1083 0.0079, 0.0787 -0.0984 0.0079, 0.1772 -0.0984 0.0079, 0.1969 -0.1083 0.0079, 0.1969 -0.0086 0.0079, 0.0787 -0.0086 0.0079, 0.0561 -0.1083 0.0079, 0.0787 0.0984 0.0079, 0.0787 0.0113 0.0079, 0.0561 0.0113 0.0079, 0.0561 -0.0086 0.0079, 0.1772 0.0113 0.0079, 0.1772 0.0984 0.0079, 0.1969 0.1181 0.0079, 0.0561 0.1181 0.0079, 0.1969 0.0113 0.0079, 0.1772 -0.0086 0.0079, -0.1772 -0.0086 0.0079, -0.1772 -0.0984 0.0079, -0.187 -0.1083 0.0079, -0.0625 -0.1083 0.0079, -0.187 -0.0086 0.0079, -0.187 0.0113 0.0079, -0.1772 0.0113 0.0079, -0.1772 0.0984 0.0079, -0.187 0.1181 0.0079, -0.0787 0.0984 0.0079, -0.0625 0.1181 0.0079, -0.0787 0.0113 0.0079, 0.0071 -0.0075 0.0079, 0.0052 -0.0086 0.0079, 0.0071 -0.0053 0.0079, 0.0052 0.0113 0.0079, 0.01 0.0113 0.0079, 0.0094 0.0113 0.0079, 0.0071 0.0106 0.0079, 0.0071 0.008 0.0079, 0.0094 0.009 0.0079, 0.0075 -0.0055 0.0079, 0.0117 0.0093 0.0079, 0.0137 0.0091 0.0079, 0.0152 0.0085 0.0079, 0.0165 0.0076 0.0079, 0.0177 0.0063 0.0079, 0.0191 0.0011 0.0079, 0.0189 -0.001 0.0079, 0.0184 -0.0027 0.0079, 0.014 -0.0064 0.0079, 0.0122 -0.0066 0.0079, 0.0155 -0.0058 0.0079, 0.0167 -0.005 0.0079, 0.0176 -0.0041 0.0079, 0.0096 -0.0063 0.0079, 0.0185 0.0048 0.0079, 0.019 0.0027 0.0079, 0.0118 0.0114 0.0079, 0.0052 0.1181 0.0079, 0.0132 0.0113 0.0079, 0.0226 0.1181 0.0079, 0.0207 0.006 0.0079, 0.0196 0.0078 0.0079, 0.0226 0.0113 0.0079, 0.0169 -0.0078 0.0079, 0.0185 -0.0068 0.0079, 0.0226 -0.0086 0.0079, 0.0199 -0.0053 0.0079, 0.021 -0.0034 0.0079, 0.0178 0.0096 0.0079, 0.0159 0.0106 0.0079, 0.0137 0.0113 0.0079, 0.0216 -0.0013 0.0079, 0.0218 0.001 0.0079, 0.0215 0.0038 0.0079, 0.012 -0.0087 0.0079, 0.0052 -0.1083 0.0079, 0.0112 -0.0086 0.0079, 0.0092 -0.0083 0.0079, 0.0125 -0.0087 0.0079, 0.0226 -0.1083 0.0079, 0.0137 -0.0086 0.0079, 0.015 -0.0085 0.0079, 0.1969 -0.1181 0.0079, 0.0561 -0.1181 0.0079, 0.0226 -0.1181 0.0079, 0.0052 -0.1181 0.0079, -0.0625 -0.1181 0.0079, -0.0277 -0.1181 0.0079, -0.0277 -0.1083 0.0079, -0.0092 -0.1181 0.0079, -0.0092 -0.1083 0.0079, -0.0787 -0.0984 0.0079, -0.0625 -0.0086 0.0079, -0.0277 -0.0086 0.0079, -0.0092 -0.0086 0.0079, 0.0235 -0.0063 0.0079, 0.0235 -0.0085 0.0079, 0.0335 -0.0085 0.0079, 0.0309 -0.0063 0.0079, 0.0309 0.0112 0.0079, 0.0335 0.0112 0.0079, -0.0068 0.0112 0.0079, -0.0092 0.0113 0.0079, 0.0033 -0.0085 0.0079, 0.0033 0.0112 0.0079, -0.0068 0.009 0.0079, -0.0073 -0.0063 0.0079, -0.0073 -0.0085 0.0079, 0.0007 0.0004 0.0079, 0.0007 -0.0063 0.0079, -0.0063 0.0004 0.0079, -0.0063 0.0025 0.0079, 0.0007 0.0025 0.0079, 0.0007 0.009 0.0079, -0.026 -0.0031 0.0079, -0.0248 -0.0049 0.0079, -0.0232 -0.0064 0.0079, -0.0212 -0.0076 0.0079, -0.0167 0.0112 0.0079, -0.0277 0.0113 0.0079, -0.0195 0.0109 0.0079, -0.0218 0.0101 0.0079, -0.024 0.0086 0.0079, -0.024 0.0086 0.0079, -0.0254 0.0071 0.0079, -0.0263 0.0054 0.0079, -0.0189 -0.0083 0.0079, -0.0165 -0.0085 0.0079, -0.0111 -0.0085 0.0079, -0.0111 0.0112 0.0079, -0.0268 0.0034 0.0079, -0.027 0.0016 0.0079, -0.0267 -0.001 0.0079, -0.0313 -0.0085 0.0079, -0.0284 -0.0085 0.0079, -0.0433 -0.0085 0.0079, -0.0413 -0.003 0.0079, -0.0332 -0.003 0.0079, -0.0358 0.0112 0.0079, -0.0385 0.0112 0.0079, -0.0462 -0.0085 0.0079, -0.0625 0.0113 0.0079, -0.0787 -0.0086 0.0079, -0.0277 0.1181 0.0079, -0.0092 0.1181 0.0079, -0.1969 -0.0086 0.0079, -0.1969 0.0113 0.0079, -0.1969 0.1181 0.0079, 0.1969 -0.0428 0.0231, 0.1969 -0.0896 0.0231, 0.1969 -0.0896 0.0455, 0.1969 -0.0428 0.0455, 0.1969 0.1181 0.1535, 0.1969 -0.1181 0.1535, 0.1969 0.0428 0.0455, 0.1969 0.0428 0.0231, 0.1969 0.0896 0.0231, 0.1969 0.0896 0.0455, -0.1969 -0.0428 0.0455, -0.1969 -0.0896 0.0455, -0.1969 -0.1181 0.1535, -0.1969 0.0428 0.0455, -0.1969 0.0428 0.0231, -0.1969 0.0896 0.0231, -0.1969 0.0896 0.0455, -0.1969 0.1181 0.1535, -0.1969 -0.0428 0.0231, -0.1969 -0.0896 0.0231, -0.1345 0.1181 0.1535, -0.0667 0.1181 0.1496, -0.0793 0.1181 0.0455, -0.1345 0.1181 0.1496, -0.1317 0.1181 0.0455, 0.1317 0.1181 0.0455, 0.0793 0.1181 0.0455, 0.0793 0.1181 0.0231, 0.1317 0.1181 0.0231, -0.0667 0.1181 0.1535, -0.1317 0.1181 0.0231, -0.0793 0.1181 0.0231, -0.1345 -0.1181 0.1496, -0.1345 -0.1181 0.1535, 0.1317 -0.1181 0.0231, -0.0793 -0.1181 0.0231, -0.1317 -0.1181 0.0231, 0.0793 -0.1181 0.0231, 0.0793 -0.1181 0.0455, -0.0667 -0.1181 0.1496, 0.1317 -0.1181 0.0455, -0.0667 -0.1181 0.1535, -0.1317 -0.1181 0.0455, -0.0793 -0.1181 0.0455, -0.0667 0.0 0.1535, -0.0667 0.0567 0.1535, -0.1345 0.0 0.1535, -0.1345 -0.0567 0.1535
            ]
        }
        coordIndex [
            0,1,2,-1,3,4,5,-1,5,4,6,-1,7,3,8,-1,9,10,11,-1,11,10,7,-1,11,7,12,-1,12,7,8,-1,13,14,15,-1,15,14,16,-1,15,17,13,-1,13,17,6,-1,13,6,18,-1,18,6,4,-1,19,20,21,-1,21,20,22,-1,21,23,19,-1,19,23,24,-1,19,24,25,-1,25,24,26,-1,26,24,27,-1,26,27,28,-1,28,27,29,-1,28,29,30,-1,31,32,33,-1,33,32,34,-1,34,35,36,-1,36,37,34,-1,34,37,38,-1,34,38,33,-1,33,38,39,-1,33,39,40,-1,40,39,41,-1,40,41,42,-1,42,43,40,-1,40,43,44,-1,40,44,45,-1,46,47,40,-1,40,47,48,-1,49,50,51,-1,51,50,52,-1,48,53,40,-1,40,53,52,-1,40,52,54,-1,54,52,50,-1,45,55,40,-1,40,55,56,-1,40,56,46,-1,57,58,59,-1,59,58,60,-1,61,62,63,-1,64,65,66,-1,66,65,67,-1,66,67,68,-1,62,69,63,-1,63,69,70,-1,63,70,71,-1,68,72,66,-1,66,72,73,-1,66,73,63,-1,63,73,74,-1,63,74,61,-1,75,76,77,-1,77,76,32,-1,77,32,78,-1,78,32,31,-1,75,79,80,-1,80,79,81,-1,80,81,66,-1,66,81,82,-1,66,82,64,-1,3,5,8,-1,8,5,83,-1,8,83,84,-1,75,80,76,-1,76,80,85,-1,76,85,86,-1,0,21,87,-1,87,21,22,-1,87,22,88,-1,88,22,89,-1,88,89,90,-1,90,89,91,-1,90,91,86,-1,20,92,22,-1,22,92,93,-1,22,93,89,-1,89,93,94,-1,89,94,91,-1,91,94,95,-1,63,96,66,-1,66,96,97,-1,66,97,98,-1,99,96,100,-1,100,96,63,-1,100,63,101,-1,101,63,11,-1,101,11,98,-1,98,11,12,-1,98,12,66,-1,66,12,8,-1,66,8,80,-1,80,8,84,-1,80,84,85,-1,102,103,34,-1,86,91,76,-1,76,91,95,-1,76,95,32,-1,32,95,104,-1,32,104,34,-1,34,104,105,-1,34,105,102,-1,102,106,103,-1,103,106,107,-1,103,107,95,-1,95,107,108,-1,95,108,104,-1,109,110,111,-1,111,110,107,-1,111,107,112,-1,112,107,106,-1,112,106,113,-1,113,106,114,-1,115,116,94,-1,94,116,117,-1,94,117,118,-1,119,120,103,-1,119,121,120,-1,120,121,122,-1,120,122,123,-1,123,124,120,-1,120,124,125,-1,120,125,126,-1,118,127,94,-1,94,127,128,-1,94,128,95,-1,95,128,129,-1,95,129,103,-1,103,129,130,-1,103,130,119,-1,126,131,120,-1,120,131,132,-1,120,132,94,-1,94,132,133,-1,94,133,115,-1,134,135,94,-1,136,137,138,-1,94,135,120,-1,120,135,139,-1,120,139,140,-1,138,134,136,-1,136,134,94,-1,136,94,141,-1,141,94,93,-1,141,93,140,-1,140,93,142,-1,140,142,120,-1,71,59,63,-1,63,59,60,-1,63,60,11,-1,11,60,16,-1,11,16,9,-1,9,16,14,-1,92,143,93,-1,93,143,30,-1,93,30,142,-1,142,30,29,-1,142,29,120,-1,120,29,144,-1,120,144,103,-1,103,144,145,-1,103,145,34,-1,34,145,58,-1,34,58,35,-1,35,58,57,-1,0,2,21,-1,21,2,146,-1,21,146,23,-1,23,146,147,-1,23,147,24,-1,24,147,148,-1,24,148,27,-1,6,149,5,-1,5,149,150,-1,5,150,83,-1,83,150,151,-1,152,153,151,-1,151,153,154,-1,151,154,83,-1,152,149,155,-1,155,149,6,-1,155,6,156,-1,156,6,17,-1,156,17,157,-1,157,17,15,-1,157,15,158,-1,158,15,153,-1,158,153,155,-1,155,153,152,-1,159,160,161,-1,146,162,147,-1,147,162,163,-1,147,163,148,-1,163,164,148,-1,148,164,165,-1,148,165,166,-1,166,165,162,-1,161,166,159,-1,159,166,162,-1,159,162,167,-1,167,162,146,-1,167,146,168,-1,168,146,2,-1,168,2,160,-1,160,2,1,-1,160,1,161,-1,148,166,169,-1,170,171,172,-1,172,171,173,-1,153,174,175,-1,60,175,16,-1,16,175,176,-1,16,176,177,-1,174,153,177,-1,177,153,15,-1,177,15,16,-1,60,58,175,-1,175,58,171,-1,175,171,153,-1,153,171,170,-1,153,170,178,-1,169,172,148,-1,148,172,173,-1,148,173,27,-1,27,173,179,-1,27,179,29,-1,29,179,180,-1,29,180,144,-1,144,180,171,-1,144,171,145,-1,145,171,58,-1,181,182,161,-1,84,83,183,-1,87,184,185,-1,186,187,188,-1,183,83,189,-1,189,83,154,-1,189,154,187,-1,187,154,190,-1,187,190,188,-1,87,185,0,-1,0,185,191,-1,0,191,1,-1,161,1,181,-1,181,1,191,-1,181,191,188,-1,188,191,192,-1,184,87,192,-1,192,87,88,-1,192,88,188,-1,188,88,90,-1,188,90,86,-1,183,186,84,-1,84,186,188,-1,84,188,85,-1,85,188,86,-1,193,190,154,-1,193,154,194,-1,194,154,153,-1,194,153,178,-1,195,169,166,-1,195,166,196,-1,196,166,161,-1,196,161,182,-1,
        ]
    }
}
Shape{
    appearance Appearance {
        material  Material 	{
            diffuseColor 0.5019607843137255 0.5019607843137255 0.5019607843137255
            specularColor 0.25098039215686274 0.25098039215686274 0.25098039215686274
            ambientIntensity 0.502
            transparency 0.0
            shininess 0.5
        }
    }
    geometry IndexedFaceSet {
        ccw TRUE
        solid FALSE
        coord DEF co Coordinate {
            point [
                -0.0667 -0.1181 0.1496, -0.0667 -0.1181 0.1535, -0.0667 0.0 0.1535, -0.0667 0.1181 0.1496, -0.0667 0.0567 0.1535, -0.0667 0.1181 0.1535, -0.1345 0.1181 0.1496, -0.1345 0.1181 0.1535, -0.1345 0.0 0.1535, -0.1345 -0.1181 0.1496, -0.1345 -0.0567 0.1535, -0.1345 -0.1181 0.1535
            ]
        }
        coordIndex [
            0,1,2,-1,0,2,3,-1,3,2,4,-1,3,4,5,-1,6,7,8,-1,6,8,9,-1,9,8,10,-1,9,10,11,-1,3,6,0,-1,0,6,9,-1,
        ]
    }
}
Shape{
    appearance Appearance {
        material  Material 	{
            diffuseColor 0.7529411764705882 0.7529411764705882 0.7529411764705882
            specularColor 0.3764705882352941 0.3764705882352941 0.3764705882352941
            ambientIntensity 0.7529
            transparency 0.0
            shininess 0.5
        }
    }
    geometry IndexedFaceSet {
        ccw TRUE
        solid FALSE
        coord DEF co Coordinate {
            point [
                0.1772 0.0984 0.0079, 0.1772 0.0113 0.0079, 0.1772 0.0984 0.0, 0.1772 -0.0086 0.0079, 0.1772 -0.0984 0.0, 0.1772 -0.0984 0.0079, 0.0787 -0.0984 0.0, 0.0787 -0.0984 0.0079, 0.0787 0.0113 0.0079, 0.0787 0.0984 0.0079, 0.0787 0.0984 0.0, 0.0787 -0.0086 0.0079, -0.0787 0.0984 0.0079, -0.0787 0.0113 0.0079, -0.0787 0.0984 0.0, -0.0787 -0.0086 0.0079, -0.0787 -0.0984 0.0, -0.0787 -0.0984 0.0079, -0.1772 -0.0984 0.0, -0.1772 -0.0984 0.0079, -0.1772 0.0113 0.0079, -0.1772 0.0984 0.0079, -0.1772 0.0984 0.0, -0.1772 -0.0086 0.0079
            ]
        }
        coordIndex [
            0,1,2,-1,2,1,3,-1,2,3,4,-1,4,3,5,-1,6,4,7,-1,7,4,5,-1,8,9,10,-1,8,10,11,-1,11,10,6,-1,11,6,7,-1,2,10,0,-1,0,10,9,-1,6,10,4,-1,4,10,2,-1,12,13,14,-1,14,13,15,-1,14,15,16,-1,16,15,17,-1,18,16,19,-1,19,16,17,-1,20,21,22,-1,20,22,23,-1,23,22,18,-1,23,18,19,-1,14,22,12,-1,12,22,21,-1,18,22,16,-1,16,22,14,-1,
        ]
    }
}
Shape{
    appearance Appearance {
        material  Material 	{
            diffuseColor 1.0 1.0 0.0
            specularColor 0.5019607843137255 0.5019607843137255 0.0
            ambientIntensity 0.886
            transparency 0.0
            shininess 0.5
        }
    }
    geometry IndexedFaceSet {
        ccw TRUE
        solid FALSE
        coord DEF co Coordinate {
            point [
                -0.0793 -0.122 0.0455, -0.0793 -0.122 0.0231, -0.0793 -0.1181 0.0455, -0.0793 -0.1181 0.0231, -0.1317 -0.122 0.0455, -0.1317 -0.1181 0.0455, -0.1317 -0.122 0.0231, -0.1317 -0.1181 0.0231, 0.0793 -0.122 0.0231, 0.0793 -0.122 0.0455, 0.0793 -0.1181 0.0231, 0.0793 -0.1181 0.0455, 0.1317 -0.122 0.0231, 0.1317 -0.1181 0.0231, 0.1317 -0.122 0.0455, 0.1317 -0.1181 0.0455, 0.0793 0.122 0.0455, 0.0793 0.122 0.0231, 0.0793 0.1181 0.0455, 0.0793 0.1181 0.0231, 0.1317 0.122 0.0455, 0.1317 0.1181 0.0455, 0.1317 0.122 0.0231, 0.1317 0.1181 0.0231, -0.0793 0.122 0.0231, -0.0793 0.122 0.0455, -0.0793 0.1181 0.0231, -0.0793 0.1181 0.0455, -0.1317 0.122 0.0231, -0.1317 0.1181 0.0231, -0.1317 0.122 0.0455, -0.1317 0.1181 0.0455, -0.2008 0.0896 0.0231, -0.2008 0.0896 0.0455, -0.1969 0.0896 0.0231, -0.1969 0.0896 0.0455, -0.2008 0.0428 0.0231, -0.1969 0.0428 0.0231, -0.2008 0.0428 0.0455, -0.1969 0.0428 0.0455, -0.2008 -0.0896 0.0455, -0.2008 -0.0896 0.0231, -0.1969 -0.0896 0.0455, -0.1969 -0.0896 0.0231, -0.2008 -0.0428 0.0455, -0.1969 -0.0428 0.0455, -0.2008 -0.0428 0.0231, -0.1969 -0.0428 0.0231, 0.2008 -0.0896 0.0231, 0.2008 -0.0896 0.0455, 0.1969 -0.0896 0.0231, 0.1969 -0.0896 0.0455, 0.2008 -0.0428 0.0231, 0.1969 -0.0428 0.0231, 0.2008 -0.0428 0.0455, 0.1969 -0.0428 0.0455, 0.2008 0.0896 0.0455, 0.2008 0.0896 0.0231, 0.1969 0.0896 0.0455, 0.1969 0.0896 0.0231, 0.2008 0.0428 0.0455, 0.1969 0.0428 0.0455, 0.2008 0.0428 0.0231, 0.1969 0.0428 0.0231
            ]
        }
        coordIndex [
            0,1,2,-1,2,1,3,-1,4,0,5,-1,5,0,2,-1,6,4,7,-1,7,4,5,-1,1,6,3,-1,3,6,7,-1,4,6,0,-1,0,6,1,-1,8,9,10,-1,10,9,11,-1,12,8,13,-1,13,8,10,-1,14,12,15,-1,15,12,13,-1,9,14,11,-1,11,14,15,-1,12,14,8,-1,8,14,9,-1,16,17,18,-1,18,17,19,-1,20,16,21,-1,21,16,18,-1,22,20,23,-1,23,20,21,-1,17,22,19,-1,19,22,23,-1,20,22,16,-1,16,22,17,-1,24,25,26,-1,26,25,27,-1,28,24,29,-1,29,24,26,-1,30,28,31,-1,31,28,29,-1,25,30,27,-1,27,30,31,-1,28,30,24,-1,24,30,25,-1,32,33,34,-1,34,33,35,-1,36,32,37,-1,37,32,34,-1,38,36,39,-1,39,36,37,-1,33,38,35,-1,35,38,39,-1,36,38,32,-1,32,38,33,-1,40,41,42,-1,42,41,43,-1,44,40,45,-1,45,40,42,-1,46,44,47,-1,47,44,45,-1,41,46,43,-1,43,46,47,-1,44,46,40,-1,40,46,41,-1,48,49,50,-1,50,49,51,-1,52,48,53,-1,53,48,50,-1,54,52,55,-1,55,52,53,-1,49,54,51,-1,51,54,55,-1,52,54,48,-1,48,54,49,-1,56,57,58,-1,58,57,59,-1,60,56,61,-1,61,56,58,-1,62,60,63,-1,63,60,61,-1,57,62,59,-1,59,62,63,-1,60,62,56,-1,56,62,57,-1,
        ]
    }
}
Shape{
    appearance Appearance {
        material  Material 	{
            diffuseColor 1.0 1.0 1.0
            specularColor 0.5019607843137255 0.5019607843137255 0.5019607843137255
            ambientIntensity 1.0
            transparency 0.0
            shininess 0.5
        }
    }
    geometry IndexedFaceSet {
        ccw TRUE
        solid FALSE
        coord DEF co Coordinate {
            point [
                -0.0385 0.0112 0.0118, -0.0462 -0.0085 0.0118, -0.0385 0.0112 0.0079, -0.0462 -0.0085 0.0079, -0.0433 -0.0085 0.0118, -0.0433 -0.0085 0.0079, -0.0413 -0.003 0.0118, -0.0413 -0.003 0.0079, -0.0332 -0.003 0.0118, -0.0332 -0.003 0.0079, -0.0313 -0.0085 0.0118, -0.0313 -0.0085 0.0079, -0.0284 -0.0085 0.0118, -0.0284 -0.0085 0.0079, -0.0358 0.0112 0.0118, -0.0358 0.0112 0.0079, -0.0338 -0.0008 0.0118, -0.0404 -0.0008 0.0118, -0.0368 0.0074 0.0118, -0.0369 0.0081 0.0118, -0.0371 0.0088 0.0118, -0.0371 0.0088 0.0118, -0.0373 0.0081 0.0118, -0.0374 0.0074 0.0118, -0.0338 -0.0008 0.0079, -0.0404 -0.0008 0.0079, -0.0368 0.0074 0.0079, -0.0369 0.0081 0.0079, -0.0371 0.0088 0.0079, -0.0371 0.0088 0.0079, -0.0373 0.0081 0.0079, -0.0374 0.0074 0.0079, -0.0165 -0.0085 0.0118, -0.0111 -0.0085 0.0118, -0.0165 -0.0085 0.0079, -0.0111 -0.0085 0.0079, -0.0111 0.0112 0.0118, -0.0111 0.0112 0.0079, -0.0167 0.0112 0.0118, -0.0167 0.0112 0.0079, -0.027 0.0016 0.0118, -0.027 0.0016 0.0079, -0.0268 0.0034 0.0079, -0.0268 0.0034 0.0118, -0.0263 0.0054 0.0079, -0.0263 0.0054 0.0118, -0.0254 0.0071 0.0079, -0.0254 0.0071 0.0118, -0.024 0.0086 0.0079, -0.024 0.0086 0.0118, -0.024 0.0086 0.0079, -0.024 0.0086 0.0118, -0.0218 0.0101 0.0079, -0.0218 0.0101 0.0118, -0.0195 0.0109 0.0079, -0.0195 0.0109 0.0118, -0.0189 -0.0083 0.0079, -0.0189 -0.0083 0.0118, -0.0212 -0.0076 0.0079, -0.0212 -0.0076 0.0118, -0.0232 -0.0064 0.0079, -0.0232 -0.0064 0.0118, -0.0248 -0.0049 0.0079, -0.0248 -0.0049 0.0118, -0.026 -0.0031 0.0079, -0.026 -0.0031 0.0118, -0.0267 -0.001 0.0079, -0.0267 -0.001 0.0118, -0.023 0.0063 0.0118, -0.022 0.0073 0.0118, -0.0206 0.0082 0.0118, -0.019 0.0088 0.0118, -0.0167 0.009 0.0118, -0.0138 0.009 0.0118, -0.0138 -0.0063 0.0118, -0.0165 -0.0063 0.0118, -0.0186 -0.0061 0.0118, -0.0203 -0.0056 0.0118, -0.0216 -0.0048 0.0118, -0.0227 -0.0037 0.0118, -0.0236 -0.0024 0.0118, -0.0241 -0.0005 0.0118, -0.0243 0.0015 0.0118, -0.0241 0.0035 0.0118, -0.0237 0.0051 0.0118, -0.0167 0.009 0.0079, -0.0138 0.009 0.0079, -0.019 0.0088 0.0079, -0.0206 0.0082 0.0079, -0.022 0.0073 0.0079, -0.023 0.0063 0.0079, -0.0237 0.0051 0.0079, -0.0241 0.0035 0.0079, -0.0243 0.0015 0.0079, -0.0241 -0.0005 0.0079, -0.0236 -0.0024 0.0079, -0.0227 -0.0037 0.0079, -0.0216 -0.0048 0.0079, -0.0203 -0.0056 0.0079, -0.0186 -0.0061 0.0079, -0.0165 -0.0063 0.0079, -0.0138 -0.0063 0.0079, -0.0073 -0.0063 0.0118, -0.0073 -0.0085 0.0118, -0.0073 -0.0063 0.0079, -0.0073 -0.0085 0.0079, 0.0033 -0.0085 0.0118, 0.0033 -0.0085 0.0079, 0.0033 0.0112 0.0118, 0.0033 0.0112 0.0079, -0.0068 0.0112 0.0118, -0.0068 0.0112 0.0079, -0.0068 0.009 0.0118, -0.0068 0.009 0.0079, 0.0007 0.009 0.0118, 0.0007 0.009 0.0079, 0.0007 0.0025 0.0118, 0.0007 0.0025 0.0079, -0.0063 0.0025 0.0118, -0.0063 0.0025 0.0079, -0.0063 0.0004 0.0118, -0.0063 0.0004 0.0079, 0.0007 0.0004 0.0118, 0.0007 0.0004 0.0079, 0.0007 -0.0063 0.0118, 0.0007 -0.0063 0.0079, 0.0071 -0.0053 0.0118, 0.0071 -0.0075 0.0118, 0.0071 -0.0053 0.0079, 0.0071 -0.0075 0.0079, 0.0092 -0.0083 0.0118, 0.0125 -0.0087 0.0118, 0.0125 -0.0087 0.0079, 0.012 -0.0087 0.0079, 0.012 -0.0087 0.0118, 0.0112 -0.0086 0.0079, 0.0092 -0.0083 0.0079, 0.0137 -0.0086 0.0079, 0.015 -0.0085 0.0118, 0.015 -0.0085 0.0079, 0.0169 -0.0078 0.0118, 0.0169 -0.0078 0.0079, 0.0185 -0.0068 0.0118, 0.0185 -0.0068 0.0079, 0.0199 -0.0053 0.0118, 0.0199 -0.0053 0.0079, 0.021 -0.0034 0.0118, 0.021 -0.0034 0.0079, 0.0216 -0.0013 0.0118, 0.0216 -0.0013 0.0079, 0.0218 0.001 0.0118, 0.0218 0.001 0.0079, 0.0118 0.0114 0.0079, 0.0132 0.0113 0.0079, 0.0118 0.0114 0.0118, 0.0137 0.0113 0.0118, 0.0137 0.0113 0.0079, 0.0159 0.0106 0.0079, 0.0159 0.0106 0.0118, 0.0178 0.0096 0.0079, 0.0178 0.0096 0.0118, 0.0196 0.0078 0.0079, 0.0196 0.0078 0.0118, 0.0207 0.006 0.0079, 0.0207 0.006 0.0118, 0.0215 0.0038 0.0079, 0.0215 0.0038 0.0118, 0.01 0.0113 0.0079, 0.0094 0.0113 0.0118, 0.0094 0.0113 0.0079, 0.0071 0.0106 0.0118, 0.0071 0.0106 0.0079, 0.0071 0.008 0.0118, 0.0071 0.008 0.0079, 0.0117 0.0093 0.0118, 0.0117 0.0093 0.0079, 0.0094 0.009 0.0079, 0.0094 0.009 0.0118, 0.0191 0.0011 0.0118, 0.0191 0.0011 0.0079, 0.019 0.0027 0.0079, 0.019 0.0027 0.0118, 0.0185 0.0048 0.0079, 0.0185 0.0048 0.0118, 0.0177 0.0063 0.0079, 0.0177 0.0063 0.0118, 0.0165 0.0076 0.0079, 0.0165 0.0076 0.0118, 0.0152 0.0085 0.0079, 0.0152 0.0085 0.0118, 0.0137 0.0091 0.0079, 0.0137 0.0091 0.0118, 0.0122 -0.0066 0.0118, 0.0122 -0.0066 0.0079, 0.014 -0.0064 0.0079, 0.014 -0.0064 0.0118, 0.0155 -0.0058 0.0079, 0.0155 -0.0058 0.0118, 0.0167 -0.005 0.0079, 0.0167 -0.005 0.0118, 0.0176 -0.0041 0.0079, 0.0176 -0.0041 0.0118, 0.0184 -0.0027 0.0079, 0.0184 -0.0027 0.0118, 0.0189 -0.001 0.0079, 0.0189 -0.001 0.0118, 0.0075 -0.0055 0.0079, 0.0075 -0.0055 0.0118, 0.0096 -0.0063 0.0079, 0.0096 -0.0063 0.0118, 0.0235 -0.0063 0.0118, 0.0235 -0.0085 0.0118, 0.0235 -0.0063 0.0079, 0.0235 -0.0085 0.0079, 0.0335 -0.0085 0.0118, 0.0335 -0.0085 0.0079, 0.0335 0.0112 0.0118, 0.0335 0.0112 0.0079, 0.0309 0.0112 0.0118, 0.0309 0.0112 0.0079, 0.0309 -0.0063 0.0118, 0.0309 -0.0063 0.0079
            ]
        }
        coordIndex [
            0,1,2,-1,2,1,3,-1,1,4,3,-1,3,4,5,-1,4,6,5,-1,5,6,7,-1,6,8,7,-1,7,8,9,-1,8,10,9,-1,9,10,11,-1,10,12,11,-1,11,12,13,-1,12,14,13,-1,13,14,15,-1,14,0,15,-1,15,0,2,-1,16,8,17,-1,17,8,6,-1,18,14,16,-1,16,14,12,-1,16,12,8,-1,8,12,10,-1,18,19,14,-1,14,19,20,-1,14,20,0,-1,0,20,21,-1,0,21,22,-1,22,23,0,-1,0,23,17,-1,0,17,1,-1,1,17,6,-1,1,6,4,-1,16,17,24,-1,24,17,25,-1,18,16,26,-1,26,16,24,-1,18,26,27,-1,18,27,19,-1,19,27,28,-1,19,28,20,-1,21,20,29,-1,29,20,28,-1,21,29,30,-1,21,30,22,-1,22,30,31,-1,22,31,23,-1,17,23,25,-1,25,23,31,-1,32,33,34,-1,34,33,35,-1,33,36,35,-1,35,36,37,-1,36,38,37,-1,37,38,39,-1,40,41,42,-1,40,42,43,-1,43,42,44,-1,43,44,45,-1,45,44,46,-1,45,46,47,-1,47,46,48,-1,47,48,49,-1,49,48,50,-1,49,50,51,-1,51,50,52,-1,51,52,53,-1,53,52,54,-1,53,54,55,-1,55,54,39,-1,55,39,38,-1,32,34,56,-1,32,56,57,-1,57,56,58,-1,57,58,59,-1,59,58,60,-1,59,60,61,-1,61,60,62,-1,61,62,63,-1,63,62,64,-1,63,64,65,-1,65,64,66,-1,65,66,67,-1,67,66,41,-1,67,41,40,-1,45,47,68,-1,68,47,49,-1,68,49,69,-1,69,49,51,-1,69,51,70,-1,70,51,53,-1,70,53,71,-1,71,53,55,-1,71,55,72,-1,72,55,38,-1,72,38,73,-1,73,38,36,-1,73,36,74,-1,74,36,33,-1,74,33,75,-1,75,33,32,-1,75,32,76,-1,76,32,57,-1,76,57,77,-1,77,57,59,-1,77,59,78,-1,78,59,61,-1,78,61,79,-1,79,61,63,-1,79,63,80,-1,80,63,65,-1,80,65,81,-1,81,65,67,-1,81,67,82,-1,82,67,40,-1,82,40,83,-1,83,40,43,-1,83,43,84,-1,84,43,45,-1,84,45,68,-1,72,73,85,-1,85,73,86,-1,72,85,87,-1,72,87,71,-1,71,87,88,-1,71,88,70,-1,70,88,89,-1,70,89,69,-1,69,89,90,-1,69,90,68,-1,68,90,91,-1,68,91,84,-1,84,91,92,-1,84,92,83,-1,83,92,93,-1,83,93,82,-1,82,93,94,-1,82,94,81,-1,81,94,95,-1,81,95,80,-1,80,95,96,-1,80,96,79,-1,79,96,97,-1,79,97,78,-1,78,97,98,-1,78,98,77,-1,77,98,99,-1,77,99,76,-1,76,99,100,-1,76,100,75,-1,74,75,101,-1,101,75,100,-1,73,74,86,-1,86,74,101,-1,102,103,104,-1,104,103,105,-1,103,106,105,-1,105,106,107,-1,106,108,107,-1,107,108,109,-1,108,110,109,-1,109,110,111,-1,110,112,111,-1,111,112,113,-1,112,114,113,-1,113,114,115,-1,114,116,115,-1,115,116,117,-1,116,118,117,-1,117,118,119,-1,118,120,119,-1,119,120,121,-1,120,122,121,-1,121,122,123,-1,122,124,123,-1,123,124,125,-1,124,102,125,-1,125,102,104,-1,106,103,102,-1,102,124,106,-1,106,124,122,-1,106,122,108,-1,112,110,114,-1,114,110,108,-1,114,108,116,-1,116,108,122,-1,116,122,118,-1,118,122,120,-1,126,127,128,-1,128,127,129,-1,129,127,130,-1,131,132,133,-1,131,133,134,-1,134,133,135,-1,134,135,130,-1,130,135,136,-1,130,136,129,-1,132,131,137,-1,137,131,138,-1,137,138,139,-1,139,138,140,-1,139,140,141,-1,141,140,142,-1,141,142,143,-1,143,142,144,-1,143,144,145,-1,145,144,146,-1,145,146,147,-1,147,146,148,-1,147,148,149,-1,149,148,150,-1,149,150,151,-1,152,153,154,-1,154,153,155,-1,153,156,155,-1,155,156,157,-1,155,157,158,-1,158,157,159,-1,158,159,160,-1,160,159,161,-1,160,161,162,-1,162,161,163,-1,162,163,164,-1,164,163,165,-1,164,165,166,-1,166,165,151,-1,166,151,150,-1,152,154,167,-1,167,154,168,-1,167,168,169,-1,169,168,170,-1,169,170,171,-1,170,172,171,-1,171,172,173,-1,174,175,176,-1,174,176,177,-1,177,176,173,-1,177,173,172,-1,178,179,180,-1,178,180,181,-1,181,180,182,-1,181,182,183,-1,183,182,184,-1,183,184,185,-1,185,184,186,-1,185,186,187,-1,187,186,188,-1,187,188,189,-1,189,188,190,-1,189,190,191,-1,191,190,175,-1,191,175,174,-1,192,193,194,-1,192,194,195,-1,195,194,196,-1,195,196,197,-1,197,196,198,-1,197,198,199,-1,199,198,200,-1,199,200,201,-1,201,200,202,-1,201,202,203,-1,203,202,204,-1,203,204,205,-1,205,204,179,-1,205,179,178,-1,126,128,206,-1,126,206,207,-1,207,206,208,-1,207,208,209,-1,209,208,193,-1,209,193,192,-1,195,131,192,-1,192,131,134,-1,192,134,209,-1,209,134,130,-1,209,130,207,-1,207,130,127,-1,207,127,126,-1,172,170,177,-1,177,170,168,-1,177,168,174,-1,174,168,154,-1,174,154,191,-1,191,154,155,-1,191,155,189,-1,189,155,158,-1,189,158,187,-1,187,158,160,-1,187,160,185,-1,185,160,162,-1,185,162,183,-1,183,162,164,-1,183,164,181,-1,181,164,166,-1,181,166,178,-1,178,166,150,-1,178,150,205,-1,205,150,148,-1,205,148,203,-1,203,148,146,-1,203,146,201,-1,201,146,144,-1,201,144,199,-1,199,144,142,-1,199,142,197,-1,197,142,140,-1,197,140,195,-1,195,140,138,-1,195,138,131,-1,210,211,212,-1,212,211,213,-1,211,214,213,-1,213,214,215,-1,214,216,215,-1,215,216,217,-1,216,218,217,-1,217,218,219,-1,218,220,219,-1,219,220,221,-1,220,210,221,-1,221,210,212,-1,218,216,220,-1,220,216,214,-1,220,214,210,-1,210,214,211,-1,
        ]
    }
}
Shape{
    appearance Appearance {
        material  Material 	{
            diffuseColor 0.25098039215686274 0.25098039215686274 0.25098039215686274
            specularColor 0.12549019607843137 0.12549019607843137 0.12549019607843137
            ambientIntensity 0.251
            transparency 0.0
            shininess 0.5
        }
    }
    geometry IndexedFaceSet {
        ccw TRUE
        solid FALSE
        coord DEF co Coordinate {
            point [
                -0.0338 -0.0008 0.0079, -0.0404 -0.0008 0.0079, -0.0368 0.0074 0.0079, -0.0374 0.0074 0.0079, -0.0369 0.0081 0.0079, -0.0373 0.0081 0.0079, -0.0371 0.0088 0.0079, -0.0371 0.0088 0.0079, -0.0138 0.009 0.0079, -0.0138 -0.0063 0.0079, -0.0167 0.009 0.0079, -0.0165 -0.0063 0.0079, -0.0186 -0.0061 0.0079, -0.0243 0.0015 0.0079, -0.0241 0.0035 0.0079, -0.0237 0.0051 0.0079, -0.019 0.0088 0.0079, -0.0203 -0.0056 0.0079, -0.0216 -0.0048 0.0079, -0.0227 -0.0037 0.0079, -0.0236 -0.0024 0.0079, -0.0241 -0.0005 0.0079, -0.023 0.0063 0.0079, -0.022 0.0073 0.0079, -0.0206 0.0082 0.0079
            ]
        }
        coordIndex [
            0,1,2,-1,2,1,3,-1,2,3,4,-1,4,3,5,-1,4,5,6,-1,6,5,7,-1,8,9,10,-1,10,9,11,-1,10,11,12,-1,13,14,10,-1,10,14,15,-1,10,15,16,-1,12,17,10,-1,10,17,18,-1,10,18,19,-1,19,20,10,-1,10,20,21,-1,10,21,13,-1,22,23,15,-1,15,23,24,-1,15,24,16,-1,
        ]
    }
}